/* XPM */
static char *result[] = {
/* columns rows colors chars-per-pixel */
"58 58 75 1 ",
"  c #32733F",
". c #32753F",
"X c #31793D",
"o c #347C3F",
"O c #336544",
"+ c #336644",
"@ c #326E41",
"# c #2D962F",
"$ c #2D992D",
"% c #2D9A2D",
"& c #2E9B2D",
"* c #2F9B2E",
"= c #2E9C2D",
"- c #2E9D2D",
"; c #2F9D2D",
": c #2F9E2D",
"> c #2F9F2D",
", c #309F2D",
"< c #319D2E",
"1 c #329E2E",
"2 c #329E2F",
"3 c #339F2F",
"4 c #308339",
"5 c #32833B",
"6 c #308638",
"7 c #34823D",
"8 c #358C3B",
"9 c #2E9331",
"0 c #2E9032",
"q c #309433",
"w c #30A02D",
"e c #30A12D",
"r c #30A22D",
"t c #31A22D",
"y c #31A32D",
"u c #34A02F",
"i c #34A12F",
"p c #31A42D",
"a c #32A42D",
"s c #33A42D",
"d c #32A52D",
"f c #32A62C",
"g c #32A62D",
"h c #33A82C",
"j c #33A92C",
"k c #34AA2C",
"l c #34AB2C",
"z c #35AC2C",
"x c #35AD2C",
"c c #35AE2C",
"v c #36AE2C",
"b c #36AF2C",
"n c #36B02C",
"m c #37B12C",
"M c #37B22C",
"N c #3BB42E",
"B c #35A130",
"V c #35A230",
"C c #37A330",
"Z c #36A432",
"A c #3CA534",
"S c #3CA832",
"D c #3DA932",
"F c #3EAB32",
"G c #40AD33",
"H c #40AE34",
"J c #41B532",
"K c #48B737",
"L c #49B737",
"P c #44B933",
"I c #4BBA37",
"U c #4ABC37",
"Y c #4ABD37",
"T c #4BBA38",
"R c #4FBF39",
/* pixels */
"$$$$$$$$$$$$$$$$$$$$$$$$$$$$$$$$$$$$$$$$$$$$$$$$$$$$$$$$$$",
"$$$$$$$$$$$$$$$$$$$$$$$$$$$$$$$$$$$$$$$$$$$$$$$$$$$$$$$$$$",
"$$$$$$$$$$$$$$$$$$$$$$$$$$$$$$$$$$$$$$$$$$$$$$$$$$$$$$$$$$",
"$$$$$$$$$$$$$$$$$$$$$2GGGB$$$$$$$$$$$$$$$$$$$$$$$$$$$$$$$$",
"$$$$$$$$$$$$$$$$$$$$$CRRRD$$$$$$$$$$$$$$$$$$$$$$$$$$$$$$$$",
"$$$$$$$$$$$$$$$$$$$$$CRRRD$$$$$$$$$$$$$$$$$$$$$$$$$$$$$$$$",
"$$$$$$$$$$$$$$$$$$$$$CRRRD$$$$$$$$$$$$$$$$$$$$$$$$$$$$$$$$",
"$$$$$$$$$$$$$$$$$$.@@7NNNs$$$$$$$$$$$$$$$$$ybbb:$$=bbbp$$$",
"$$$$$$$$$$$$$$$$$$@++oMMMy$$$$$$$$$$$$$$$$$pMMM>$$-MMMg$$$",
"$$$$$$$$$$$$$$$$$$@++oMMMy$$$$$$$$$$$$$$$$$pMMM>$$-MMMg$$$",
"$$$$$$$$$$$$$$$$$$X  5xxxe$$$$$$$$$$$$$$$$$rxxxt>>exxxy$$$",
"$$$$$$$$$$$$$$$$$$$$$$$$$$$$$$$$$$$$$$$$$$$$$$$xMMb$$$$$$$",
"$$$$$$$$$$$$$$$$$$$$$$$$$$$$$$$$$$$$$$$$$$$$$$$xMMb$$$$$$$",
"$$$$$$$$$$$$$$$$$$$$$$$$$$$$$$$$$$$$$$$$$$$$$$$xMMb$$$$$$$",
"$$$$$$$dhhf$$$ehhh&$$$$$$$$$$$$$$$$$$$$$$$$,hhhdppphhhe$$$",
"$$$$$$$xMMb$$$fMMM=$$$$$$$$$$$$$$$$$$$$$$$$pMMM>$$-MMMg$$$",
"$$$$$$$xMMb$$$fMMM=$$$$$$$$$$$$$$$$$$$$$$$$pMMM>$$-MMMg$$$",
"$$$$$$$xmmc%%%fmmm=$$$$$$$$$$$$$$$$$$$$$$$$pmmm>$$=mmmg$$$",
"$$$$$$$&&&>nnng&&&$$$$$$$$$$$$$$$$$$$$$$$$$%&&&$$$$&&&%$$$",
"$$$$$$$$$$;MMMg$$$$$$$$$$$$$$$$$$$$$$$$$$$$$$$$$$$$$$$$$$$",
"$$$$$$$$$$;MMMg$$$$$$$$$$$$$$$$$$$$$$$$$$$$$$$$$$$$$$$$$$$",
"$$$$$$$$$$=lllt$$$$$$$$$$$$$$$$$$$$$$$$$$$$$$$$$$$$$$$$$$$",
"$$$$$$$$$$$$$$$$$$$$$$$$$$$$$$$$$$$$$$$$$$$$$$$$$$$$$$$$$$",
"$$$$$$$$$$$$$$$$$$$$$$$$$$$$$$$$$$$$$$$$$$$$$$$$$$$$$$$$$$",
"$$$$$$$$$$$$$$$$$$$$$$$$$$$$$$$$$$$$$$$$$$$$$$$$$$$$$$$$$$",
"$$$$$$$$$$$$$$$$$$$$$$$$$pkkk%$$$$$$$$$$$$$$$$$$$$&kkkt$$$",
"$$$$$$$$$$$$$$$$$$$$$$$$$jMMM%$$$$$$$$$$$$$$$$$$$$-MMMg$$$",
"$$$$$$$$$$$$$$$$$$$$$$$$$jMMM%$$$$$$$$$$$$$$$$$$$$-MMMg$$$",
"$$$%%%%$$$$%%%%$$$$$$$%%%hmmn=%%%$$$$$$$$$$$$$$%%%:mmmg%%%",
"$$$aMMM:$$;MMMd$$$$$$>MMMy$$%nMMk$$$$$$$$$$$$$$xMMv$$$fMMM",
"$$$aMMM:$$;MMMg$$$$$$,MMMy$$$mMMk$$$$$$$$$$$$$$xMMb$$$fMMM",
"$$$aMMM:$$;MMMg$$$$$$,MMMy$$$mMMk$$$$$$$$$$$$$$xMMb$$$fMMM",
"$$$wjjjayypjjje$$$$$$;jjj,$$$hjjp$$$$$$$$$$$$$$djjg$$$ejjj",
"$$$$$$$xMMb$$$$$$$$$$$$$$$$$$$$$$$$$$$$$$$$$$$$$$$$$$$$$$$",
"$$$$$$$xMMb$$$$$$$$$$$$$$$$$$$$$$$$$$$$$$$$$$$$$$$$$$$$$$$",
"$$$$$$$xMMb$$$$$$$$$$$$$$$$$$$$$$$$$$$$$$$$$$$$$$$$$$$$$$$",
"$$$tzzzt,,ezzzy$$$$$$$$$$$$$$$$$$$$$$$$$$$$$$$$$$$$$$$$$$$",
"$$$aMMM:$$;MMMg$$$$$$$$$$$$$$$$$$$$$$$$$$$$$$$$$$$$$$$$$$$",
"$$$aMMM:$$;MMMg$$$$$$$$$$$$$$$$$$$$$$$$$$$$$$$$$$$$$$$$$$$",
"$$$ybbb:$$-bbbp$$$$$$$$$$$$$$$$$$$$$$$$$$$$$$$$<331$$$$$$$",
"$$$$$$$$$$$$$$$$$$$$$$$$$$$$$$$$$$$$$$$$$$$$$$$KRRI$$$$$$$",
"$$$$$$$$$$$$$$$$$$$$$$$$$$$$$$$$$$$$$$$$$$$$$$$LRRT$$$$$$$",
"$$$$$$$$$$$$$$$$$$$$$$$$$$$$$$$$$$$$$$$$$$$$$$$LRRT$$$$$$$",
"$$$$$$$$$$$$$$$$$$$$$$$$$$$$$$$$$$$$$$$$$$$0444HPPJ$$$$$$$",
"$$$$$$$$$$$$$$$$$$$$$$$$$$$$$$$$$$$$$$$$$$$6+++ZMMb$$$$$$$",
"$$$$$$$$$$$$$$$$$$$$$$$$$$$$$$$$$$$$$$$$$$$6+++ZMMb$$$$$$$",
"$$$$$$$$$$$$$$$$$$$$$$$$$$$$$$$$$$$$$$$$$$$6++OZMMb$$$$$$$",
"$$$SIIIu$$$$$$$$$$$$$$$$$gbbc%$$wbbbw$$$$$$#999*;;-$$$$$$$",
"$$$FRRRV$$$$$$$$$$$$$$$$$jMMM%$$rMMMe$$$$$$$$$$$$$$$$$$$$$",
"$$$FRRRV$$$$$$$$$$$$$$$$$jMMM%$$rMMMe$$$$$$$$$$$$$$$$$$$$$",
"000AUUYi$$$$$$$$$$$$$$$$$dxxx>::yxxxw$$$$$$$$$$$$$$$$$$$$$",
"+++8MMM:$$$$$$$$$$$$$$$$$$$$$mMMk$$$$$$$$$$$$$$$$$$$$$$$$$",
"+++8MMM:$$$$$$$$$$$$$$$$$$$$$mMMk$$$$$$$$$$$$$$$$$$$$$$$$$",
"+++8MMM:$$$$$$$$$$$$$$$$$$$$$mMMk$$$$$$$$$$$$$$$$$$$$$$$$$",
"666qaaa&$$$$$$$$$$$$$$$$$$$$$paae$$$$$$$$$$$$$$$$$$$$$$$$$",
"$$$$$$$$$$$$$$$$$$$$$$$$$$$$$$$$$$$$$$$$$$$$$$$$$$$$$$$$$$",
"$$$$$$$$$$$$$$$$$$$$$$$$$$$$$$$$$$$$$$$$$$$$$$$$$$$$$$$$$$",
"$$$$$$$$$$$$$$$$$$$$$$$$$$$$$$$$$$$$$$$$$$$$$$$$$$$$$$$$$$"
};
