/* XPM */
static char *_d0432ce87464bda90f0a5370d8d378b[] = {
/* columns rows colors chars-per-pixel */
"58 58 124 2 ",
"   c #191E1F",
".  c #1A1F20",
"X  c #1A2221",
"o  c #1C2A25",
"O  c #1E2D28",
"+  c #1B3222",
"@  c #1D3E23",
"#  c #1F312B",
"$  c #1D3A2E",
"%  c #1E3F31",
"&  c #203C22",
"*  c #20332D",
"=  c #223730",
"-  c #243C34",
";  c #283F39",
":  c #1E4523",
">  c #1F4B23",
",  c #1F5024",
"<  c #1F4434",
"1  c #23422C",
"2  c #205624",
"3  c #205925",
"4  c #244236",
"5  c #204937",
"6  c #274139",
"7  c #28443A",
"8  c #234C3B",
"9  c #284B3D",
"0  c #23533E",
"q  c #2B533C",
"w  c #24593C",
"e  c #2D5B3B",
"r  c #236726",
"t  c #246D27",
"y  c #257428",
"u  c #267B29",
"i  c #2C623F",
"p  c #2E6D3F",
"a  c #316339",
"s  c #346C3A",
"d  c #2A7534",
"f  c #2D7F34",
"g  c #377B3C",
"h  c #274E41",
"j  c #245640",
"k  c #285341",
"l  c #255C44",
"z  c #285C45",
"x  c #275D48",
"c  c #266047",
"v  c #2A6444",
"b  c #2D6B41",
"n  c #26654B",
"m  c #28644A",
"M  c #27694D",
"N  c #286A4D",
"B  c #336644",
"V  c #297746",
"C  c #297A45",
"Z  c #2B734C",
"A  c #2D7B4C",
"S  c #307743",
"D  c #347D45",
"F  c #327C4A",
"G  c #28832A",
"H  c #2A8C2B",
"J  c #36832C",
"K  c #3C8E2F",
"L  c #2D962D",
"P  c #2D992D",
"I  c #2F8234",
"U  c #2B863F",
"Y  c #2B8B3A",
"T  c #308634",
"R  c #3E8537",
"E  c #308A33",
"W  c #308638",
"Q  c #358C3B",
"!  c #3D893C",
"~  c #2D9332",
"^  c #2D9038",
"/  c #309433",
"(  c #3F9631",
")  c #329B3A",
"_  c #32A52D",
"`  c #36AD2C",
"'  c #37B22C",
"]  c #34A435",
"[  c #3DA432",
"{  c #35AA32",
"}  c #3EAB32",
"|  c #33A039",
" . c #449737",
".. c #479D36",
"X. c #429238",
"o. c #49A336",
"O. c #4CAB35",
"+. c #45A13F",
"@. c #47AB3F",
"#. c #4AAD3D",
"$. c #4DB135",
"%. c #4BBB37",
"&. c #4EB439",
"*. c #50B636",
"=. c #53BC34",
"-. c #50B738",
";. c #50B838",
":. c #2B8341",
">. c #2E8A43",
",. c #2F814C",
"<. c #318344",
"1. c #3A8C46",
"2. c #31844B",
"3. c #338B4B",
"4. c #3C9245",
"5. c #3D9D46",
"6. c #36944A",
"7. c #389749",
"8. c #399949",
"9. c #3FA045",
"0. c #409643",
"q. c #439C41",
"w. c #42A443",
"e. c #46AA41",
/* pixels */
"P P P P P P P P P P P P P P P Y Z Z Z Z ~ P P P P P P P P P P P P P P P P P P P P P P P P P P P P P P P P P P P P P ",
"P P P P P P P P P P P P P P P Y N N N Z ^ P P P P P P P P P P P P P P P P P P P P P P P P P P P P P P P P P P P P P ",
"P P P P P P P P P P P P P U V 4.#.#.#.#.<.C C C C C :.P P P P P P Y C C C C L P P P P P P P P P P P P P P P P P P P ",
"P P P P P P P P P P P P P C M 4.=.=.=.*.F M M M M M C P P P P P P :.M M M Z ~ P P P P P P P P P P P P P P P P P P P ",
"P P P P P P P P P P P P P C M 4.=.=.=.*.F M A 2.2.2.,.:.U ~ P Y :.4.q.q.q.q.:.:.~ P P P P P P P P P P P P P P P P P ",
"P P P P P P P P P P P P P :.M 4.=.=.=.*.F M 3.6.6.6.3.M N ~ P C M q.=.=.=.&.Z M ^ P P P P P P P P P P P P P P P P P ",
"P P P P P P P P L Y Y Y Y C M 4.=.=.=.*.F M 3.6.6.6.3.A A Y Y Z M q.=.=.=.*.4.1.Y Y Y Y ^ P ~ Y Y Y Y ~ P P P P P P ",
"P P P P P P P P ~ N M M M M M 4.=.=.=.*.F M 3.6.6.6.6.6.6.Z M M M q.=.=.=.=.=.*.2.M M M >.` ] N M M M ) ` ` _ P P P ",
"P P P P P P L ~ ^ F F F F Z Z 4.&.&.&.&.2.Z 2.6.6.6.6.6.6.Z M M M 0.&.*.=.=.=.*.D c M M >.{ | Z Z Z Z ) _ ` _ P P P ",
"P P P P P P Y N F &.*.*.*.w.6.6.8.8.8.8.6.6.A N 2.6.6.6.6.Z M M M N Z 4.=.=.=.*.s 7 z M N Z A 6.6.6.6.p 9 E _ P P P ",
"P P P P P P Y M F *.=.=.=.w.6.6.6.6.6.6.6.6.A M ,.6.6.6.6.Z N N N N M 1.*.*.*.*.s 7 z M M N Z 6.6.6.6.b 6 I _ P P P ",
"P P P P P P Y M F *.=.=.=.w.6.3.Z A 6.6.6.6.6.3.2.Z Z Z A 3.3.3.3.3.3.6.5.5.2.D q 6 z M A 3.6.6.6.6.6.b 6 d P P P P ",
"P P P P P P Y M F *.=.=.=.w.6.2.M Z 6.6.6.6.6.6.2.M M M N 6.6.6.6.6.6.6.6.3.N M 9 7 z M A 6.6.6.6.6.6.b 6 d P P P P ",
"P P P P P P Y M Z 1.4.4.4.w.#.w.2.6.#.#.#.#.5.6.2.M Z 2.3.6.6.e.#.#.#.w.6.6.2.2.v z n M A 6.6.6.6.,.A z 6 d P P P P ",
"P P P P P P Y M M M M M M +.=.#.6.5.*.=.=.=.w.6.,.M Z 6.6.6.6.&.=.=.=.&.6.6.6.6.Z M M M A 6.6.6.6.Z M k 6 f _ P P P ",
"P P P P ^ Y :.A A N N 1.4.#.=.&.w.e.*.=.=.=.#.w.7.A 2.6.7.w.w.&.=.=.=.&.w.w.6.6.2.A M z Z 2.2.2.2.N M k 6 T _ P P P ",
"P P P P :.M A 6.3.N N #.=.=.=.=.=.=.=.=.=.=.=.=.@.6.6.6.8.*.=.=.=.=.=.=.=.&.8.6.6.6.b ; k M M M M M M k 6 T _ P P P ",
"P P P P :.M A 6.6.A A &.=.=.=.=.=.=.=.=.=.=.=.=.@.6.8.5.w.*.=.=.=.=.=.=.=.&.8.6.6.6.S e c M M M M n m k 6 T _ P P P ",
"P P P P :.M A 6.6.6.6.&.=.=.=.=.=.=.=.=.=.=.=.=.@.6.9.*.*.=.=.=.=.=.=.=.=.&.8.6.6.6.6.6.2.M M M M 9 7 7 7 d P P P P ",
"P P L ~ :.N A 6.6.6.7.&.=.=.=.*.*.*.=.=.=.=.=.=.@.6.5.*.=.=.=.=.=.=.=.*.*.&.8.6.6.6.6.6.2.M M M n 9 7 9 9 d L L P P ",
"P P C Z ,.6.6.6.6.6.7.&.=.=.=.&.5.w.*.=.=.=.=.=.q.N 1.*.=.=.=.=.=.=.=.&.5.8.6.6.6.6.6.6.2.M n 9 9 m n n n w : r P P ",
"P P C M 2.6.6.6.6.6.7.&.=.=.=.#.6.5.*.=.=.=.=.=.q.M 1.*.=.=.=.=.=.=.=.&.6.6.6.6.6.6.6.6.2.M n 7 9 n M M M 0 X 2 L P ",
"P P C M Z A A A A 6.6.9.w.&.=.#.6.8.w.w.*.=.q.1.3.3.3.1.4.*.=.=.=.#.w.7.A A 6.6.6.6.2.A N k k z m M M M M 0 X 3 L P ",
"P P C M M M M M Z 6.6.6.6.#.=.#.6.6.6.8.;.=.1.n A 6.3.M Z *.=.=.=.e.6.3.M Z 6.6.6.6.A M z 6 9 M M M M M M 0 . 3 L P ",
"P P C M Z ,.,.,.,.2.2.6.6.w.#.w.6.6.2.2.q.q.3.A 3.6.6.,.2.q.q.q.q.4.2.A M Z 6.6.2.2.N z z z z z z z z z z 5 X 3 L P ",
"P P C M 2.6.6.6.6.N N 3.6.6.6.6.6.3.N M M M 3.6.6.6.6.6.6.N M M M M M M M Z 6.6.Z M k 6 k N n 7 6 6 6 6 7 = X 3 L P ",
"H G C Z 3.6.6.6.3.N N 2.3.3.3.3.3.2.N M Z A 3.6.6.6.6.6.6.Z M Z A Z A Z M Z 3.3.N m z 9 z M n k k k k 9 7 = X 3 L P ",
": o <.6.6.6.6.6.6.N M M M M M M N N M N 3.6.6.6.6.6.6.6.6.Z M 3.6.6.6.3.M M M M 9 7 z M M M M M M M M k 7 = X 3 P P ",
"@ o <.6.6.6.6.3.3.M n n M M M M M N Z F 3.6.6.6.7.8.8.6.3.Z Z 6.8.8.8.6.Z Z M M k 9 z M M M M M M M M k 7 * X 2 L L ",
"@ o <.6.6.6.<.q q 9 9 9 9 c N M M F &.&.F N 3.6.w.*.#.Z Z 3.6.#.*.*.*.*.*.#.Z M M n M M M M M M M M M 5 X X X + : 3 ",
"@ o <.6.6.6.<.7 7 7 7 7 7 z M M M 2.*.*.F M 3.6.e.=.#.N Z 6.7.&.=.=.=.=.=.&.Z N M M M M M M M M M M M < X X X X X : ",
"@ X q i i i v m m m m m m z 9 b 3.7.*.*.7.3.w.&.-.=.&.3.6.#.&.*.=.=.=.=.=.*.#.#.s h m M M M n k 8 4 % 0 x x x 0 X > ",
"@ X - 6 6 6 k M M M N N N k ; b 6.5.*.*.5.6.&.=.=.=.&.6.8.*.=.=.=.=.=.=.=.=.=.*.s ; z M M M m 7 7 o   j N M N x X : ",
"@ X - 7 k z m M M M M M M k ; g e.#.*.=.#.@.;.=.=.=.*.@.#.*.=.=.=.=.=.=.=.=.=.*.s 7 z M M M m 7 6 = = x M M N x X : ",
"@ X - 7 z N M M M M M M M k ; R =.=.=.=.=.=.=.=.=.=.=.=.=.=.=.=.=.=.=.=.=.=.=.*.s 7 z M M M n 7 7 7 7 m M M N x X @ ",
"r 3 5 - j M M M M M M m z z h ! =.=.=.*.o.o.*.=.=.=.=.=.*.o.o.*.=.=.=.=.=.=.=.*.s 7 k m z m z 7 7 7 7 k m x j 8 X @ ",
"P L 3 X 0 M M M M M M 9 6 z M 4.=.=.=.*.a 7 o.=.=.=.=.=.*.e 9 o.=.=.=.=.=.=.=.*.s 7 7 7 7 7 7 7 7 7 7 7 7 = X X X : ",
"P L 3 X 8 m c c c m c k 9 z M 1.&.&.$.O.a 6 o.=.=.=.*.&.O.e 9 ..$.*.=.=.=.*.&.#.s 9 7 4 4 4 4 4 4 6 7 7 7 = X X X : ",
"P L 3 X o o o o o o # x M M M N Z N q q 7 7 o.=.=.=.#.Z N 9 7 q q  .=.=.=.&.F Z M M 8 X o o o X o 4 7 7 7 = X X X @ ",
"P L 3 X X X X X X X o c N M M M M m 7 7 7 7 ..*.*.*.#.M n 9 7 7 7 X.*.*.*.#.Z M M M 8 X X X X X X - 6 7 6 = X X o : ",
"P L 3 X X X X X X X o c M M M M M m 7 7 7 7 a s s s a 9 9 7 7 z m Z 2.D s s M M M M m c 8 X X X X o O O O o X , H H ",
"P L 3 X X X X X X X o c M M M M M n 7 7 7 7 7 7 7 7 7 6 6 7 7 m M M M x 7 9 M M M M M N j X X X X X X X X X X 3 P P ",
"P L 3 X X X X X o = = 0 k 8 5 5 5 5 * * j z z z k 6 9 z z 7 7 m M M M n z l 8 8 m M M M j X o = = = = o X 3 u G P P ",
"P L 3 X X X X X o 7 7 6 6 *           o c M M M z 6 k M n 9 7 m M M M M N c o X c N M N j   o 7 7 7 7 # X t P P P P ",
"P L 3 X X X o * * 7 7 7 7 * X X X o 5 8 m M M M m k z M M z k j 0 c M M M c o X 8 j j j 8 * = 6 7 7 7 # X t P P P P ",
"P L 2 X X X # 7 7 7 7 7 7 * X X X $ M M M M M M M M M M M M M %   0 M M M c o X X X X X * 7 7 7 7 7 7 # X t P P P P ",
"P P r > @ X # 7 7 7 7 4 - # X X X $ M M M M M M M M M M M M M %   8 c c c j o X X X X X * 7 7 7 7 - - O X t P P P P ",
"P P L [ J X # 7 7 7 6 O X X X X X $ M M M M M M M M M M M M M % . X o o o o X X X X X X * 7 7 7 7 o X X X t P P P P ",
"P P P } K & 1 7 7 7 7 o X X X X X $ m M M M M m n M M M M M n % . X X X X X X o o o X X * 7 7 7 4 o X + + y P P P P ",
"P P P } %.$.( o o o o X X X X X X O 9 9 n M 8 # 4 9 k M n q 9 # X X X X X o - 4 4 4 # X X o o o o X X u H L P P P P ",
"~ ~ ~ [ %.%.[ X X X X X X X X X X O 7 7 n M <   * 6 q M n 9 6 O X X X X X o 7 7 7 7 * X X X X X X X X G P P P P P P ",
"B B B Q ' ' ` G G G u : X X X X X X # # < < # X o # $ < < # # o X X X O - - 6 7 7 7 * X X X X X + u G L P P P P P P ",
"B B B Q ' ' ' P P P L > X X X X X X X X .   X X X X X   . X X X X X X # 7 7 7 7 7 7 * X X X X X + H P P P P P P P P ",
"B B B Q ' ' ' P P P L u t > X X X X X X X X X X X X X X X X X X X X X # 7 7 7 6 = = O X X X @ t y L P P P P P P P P ",
"W W W / _ _ _ P P P P P P r X X X X X X X X X X X X X X X X X X X X X # 7 7 7 6 o X X X X X > L P P P P P P P P P P ",
"P P P P P P P P P P P P P y 2 > X X X X X X X X : 3 3 3 2 o X X X X X O - - - - o X > 3 3 2 r L P P P P P P P P P P ",
"P P P P P P P P P P P P P P P u X X X X X X X X t P L P L @ X X X X X X X X X X X X u P L L P P P P P P P P P P P P ",
"P P P P P P P P P P P P P P P u @ @ @ @ @ @ @ @ y P P P L , @ @ @ @ @ @ @ @ @ @ @ @ u P P P P P P P P P P P P P P P "
};
