/* XPM */
static char *_b87d82f300b4a4f88c30f7376c3c5a6[] = {
/* columns rows colors chars-per-pixel */
"58 58 207 2 ",
"   c #1D5A19",
".  c #3C7B37",
"X  c #32743F",
"o  c #337B3E",
"O  c #527E26",
"+  c #5F7C26",
"@  c #796E23",
"#  c #687B25",
"$  c #717C27",
"%  c #336644",
"&  c #326E41",
"*  c #966F1D",
"=  c #986F1B",
"-  c #87721F",
";  c #8C711E",
":  c #92711D",
">  c #AA661C",
",  c #AA6A1A",
"<  c #B96A17",
"1  c #BB7A1A",
"2  c #8C6F25",
"3  c #916921",
"4  c #8C7727",
"5  c #957321",
"6  c #A36621",
"7  c #BD7E22",
"8  c #CC7709",
"9  c #D27406",
"0  c #D2720A",
"q  c #DB780C",
"w  c #C26B17",
"e  c #CC7517",
"r  c #D27311",
"t  c #DB7F11",
"y  c #C77622",
"u  c #D37A21",
"i  c #2F8E29",
"p  c #318E29",
"a  c #2F962C",
"s  c #2D992D",
"d  c #32952C",
"f  c #3D962C",
"g  c #319D2E",
"h  c #308539",
"j  c #358C3B",
"k  c #2E9132",
"l  c #309433",
"z  c #31A42D",
"x  c #35AC2C",
"c  c #37B22C",
"v  c #3BB42E",
"b  c #36A331",
"n  c #3CA534",
"m  c #3DAA32",
"M  c #4B8A2B",
"N  c #528127",
"B  c #5F8824",
"V  c #48952D",
"C  c #41992D",
"Z  c #5F9125",
"A  c #459C3D",
"S  c #7E862A",
"D  c #609124",
"F  c #40AD33",
"G  c #49B737",
"H  c #43B833",
"J  c #4BBB37",
"K  c #4FBF39",
"L  c #5F9052",
"P  c #619055",
"I  c #5CA14C",
"U  c #AF8D1F",
"Y  c #888E2B",
"T  c #958827",
"R  c #9A8B29",
"E  c #AA8B25",
"W  c #A48731",
"Q  c #D7820E",
"!  c #DB840B",
"~  c #D58E0F",
"^  c #CC8C17",
"/  c #DC8411",
"(  c #D38D14",
")  c #DB8B12",
"_  c #D58A18",
"`  c #D5991A",
"'  c #E68F0C",
"]  c #E5900B",
"[  c #EA960D",
"{  c #F09C0E",
"}  c #E89614",
"|  c #DAA418",
" . c #FCA607",
".. c #F7AA06",
"X. c #FAA807",
"o. c #F7A70D",
"O. c #F9A70C",
"+. c #F5AA0C",
"@. c #F9AB0C",
"#. c #F4B00D",
"$. c #F9B50F",
"%. c #EBA917",
"&. c #FAA612",
"*. c #F4AA14",
"=. c #FAAC12",
"-. c #F7A81A",
";. c #F1AC1C",
":. c #EFB41B",
">. c #F6B314",
",. c #F3BB16",
"<. c #F8B71B",
"1. c #F5BC1A",
"2. c #CA8D26",
"3. c #D18F22",
"4. c #D88F24",
"5. c #CC9023",
"6. c #DA9923",
"7. c #D48232",
"8. c #E69923",
"9. c #C7AE39",
"0. c #D5AA30",
"q. c #DFB33E",
"w. c #E0A921",
"e. c #F6AA25",
"r. c #F8A925",
"t. c #F5AB29",
"y. c #E2B925",
"u. c #F5BA25",
"i. c #E5B93F",
"p. c #FAC20D",
"a. c #FAC90F",
"s. c #FCC715",
"d. c #F6CB15",
"f. c #FAC914",
"g. c #F4C71A",
"h. c #FCC61C",
"j. c #F9CB1C",
"k. c #F7D21B",
"l. c #FAD31D",
"z. c #F7C921",
"x. c #F9CB23",
"c. c #F9CA28",
"v. c #F5D424",
"b. c #FAD223",
"n. c #FAD62B",
"m. c #FCDB2A",
"M. c #F6C939",
"N. c #F8D636",
"B. c #FCE32E",
"V. c #F9E82F",
"C. c #FCE533",
"Z. c #F9E831",
"A. c #F9E73D",
"S. c #F7E93D",
"D. c #C79A5B",
"F. c #DCB84D",
"G. c #E4AE4C",
"H. c #F6B949",
"J. c #D9A36C",
"K. c #D5A270",
"L. c #ECC74C",
"P. c #F6CF42",
"I. c #F5D143",
"U. c #F5D349",
"Y. c #FAD14C",
"T. c #F6D849",
"R. c #F7DC57",
"E. c #FDE646",
"W. c #FBEB4A",
"Q. c #F8F14D",
"!. c #F9E754",
"~. c #FBEC5D",
"^. c #FAED64",
"/. c #F8E669",
"(. c #FEFC6E",
"). c #F9EB77",
"_. c #F8ED76",
"`. c #FDFE73",
"'. c #FCFC78",
"]. c #B2B98A",
"[. c #B4BD9C",
"{. c #D4C592",
"}. c #F7D687",
"|. c #FBDE99",
" X c #FBEE8D",
".X c #FAFA87",
"XX c #FAFF8A",
"oX c #FAE593",
"OX c #FCF89D",
"+X c #D8D6B6",
"@X c #FCEEA1",
"#X c #FAF8A9",
"$X c #FCEFB6",
"%X c #F9EAB9",
"&X c #FDEEBB",
"*X c #FBF7B7",
"=X c #FCF4B4",
"-X c #FCF2BC",
";X c #E8E8C2",
":X c #FDF4C4",
">X c #FDFBC5",
",X c #FCF3CB",
"<X c #FDFDCE",
"1X c #FCF6D5",
"2X c #F6FED4",
"3X c #FCFDD3",
"4X c #FDFCDA",
/* pixels */
"s s s s s s s s s s s s s s s s s s s s s s s s s s s s s s s s s s s s s s s s s s s s s s s s s s s s s s s s s s ",
"s s s s s s s s s s s s s s s s s s s s s s s s s s s s s s s s s s s s s s s s s s s s s s s s s s s s s s s s s s ",
"s s s s s s s s s s s s s s s s s s s s s s s s s s s s s s s s s s s s s s s s s s s s s s s s s s s s s s s s s s ",
"s s s s s s s s s s s s s s s s s s s s s g F F F b s s s s s s s s s s s s s s s s s s s s s s s s s s s s s s s s ",
"s s s s s s s s s s s s s s s s s s s s s b K K K m s s s s s s s s s s s s s s s s s s s s s s s s s s s s s s s s ",
"s s s s s s s s s s s s s s s s s s s s s b K K K m s s s s s s s s s s s s s s s s s s s s s s s s s s s s s s s s ",
"s s s s s s s s s s s s s s s s s s s s s b K K K m s s s s s s s s s s s s s s s s s s s s s s s s s s s s s s s s ",
"s s s s s s s s s s s s s s s s s s X & & h v v v z s s s s s s s s s s s s s s s s s z x x x s s s s x x x z s s s ",
"s s s s s s s s s s s s s s s s s s & % % o c c c z Y T T T 4 @ @ a s s s s s s s s s z c c c g s s s c c c z s s s ",
"s s s s s s s s s s s s s s s s s s & % % o c c c z 6.&.O.o.} 0 < d s s s s s s s s s z c c c g s s s c c c z s s s ",
"s s s s s s s s s s s s s s s s s s o X X . Z D Z B 0.u.>.>.} q y P L O O d s s s s s z x x x z s s z x x x z s s s ",
"s s s s s s s s s s s s s s s s s s s s s S e.=.-.*.^.`.Q.Z.b.*.H.2X<X7.e # s s s s s s s s s x c c x s s s s s s s ",
"s s s s s s s s s s s s s s s s s s s a p S ;.;.+.*.^.'.Q.C.c.;.H.<X1X7.y # i a s s s s s s s x c c c s s s s s s s ",
"s s s s s s s s s s s s s s s s s s s W 8.i.^.^.C.N.Z.A.Z.V.).:X-X<X2X$X-XD.w 4 s s s s s s s x c c c s s s s s s s ",
"s s s s s s s z z z z s s s z z z z s E ..M.`.(.S.Z.B.C.C.B..X3X3X3X3X3X3XK.9 : s s s g z z z z z z z z z z z s s s ",
"s s s s s s s x c c x s s s z c c c s E &.u.W.W.b.l.w.| :.<.Y.). X3X<X3X4XJ.9 : s s s z c c c s s s s c c c z s s s ",
"s s s s s s s x c c x s s s z c c c s U &.1.C.B.d.s.Q 9 [ O.g.Z.Q.3X3X<X<XJ.0 = s s s z c c c s s s s c c c z s s s ",
"s s s s s s s x c c x s s s z c c Y R 9.U.I.m.n.%.%.q.F.L.I.N.n.!.3X<XOXOXG.) 1 4 $ s z c c c s s s s c c c z s s s ",
"s s s s s s s s s s s c c c z s s 5.+.T.(.~.d.g.8 8 /.'.'.`.!.j.U.<X<XE.E.1.X.] e > s s s s s s s s s s s s s s s s ",
"s s s s s s s s s s s c c c z s s 3.O.Y.(.~.U.P.t Q ).XXXXXX/.p.M.=X=XA.C.1. .' 0 > s s s s s s s s s s s s s s s s ",
"s s s s s s s s s s s c c c z s s 5.+.j.V._.3X,Xt.*.$X3X3X3X|.o.=.j.d.B.C.1.O.] 0 > s s s s s s s s s s s s s s s s ",
"s s s s s s s s s s s x x x z s s 3.+.c.S._.3X:Xr.-.&X4X3X3X|.+.#.a.d.C.Z.,.O.] 9 > s s s s s s s s s s s s s s s s ",
"s s s s s s s s s s s s s s s s s _ &.}.>X>X3X:Xr.*.$X<X<X2X|.O.@.f.j.B.C.1.O.] 0 > s s s s s s s s s s s s s s s s ",
"s s s s s s s s s s s s s s s s s ^ o.}.3X2X<X:Xr.-.$X3X3X3XoXO.@.f.f.B.C.1.O.] 0 > s s s s s s s s s s s s s s s s ",
"s s s s s s s s s s s s s s s s s {.%X:X3X2X<X:Xt.*.-X3X*XOX/.O.@.f.f.B.C.1.O.] 0 > s s s s s s s s s s s s s s s s ",
"s s s s s s s s s s s s s s s s s +X<X>X<X<X<X,Xt.*.&X<XOX`.R.&.@.f.f.B.C.1.O.] 0 > s s s s s s s s s x x x z s s s ",
"s s s s s s s s s s s s s s s s s +X<X4X4X<X3X:X8.} oX#X.X`.!.O.@.f.f.B.C.1.O.] 0 > s s s s s s s s s c c c z s s s ",
"s s s s s s s s s s s s s s s s s +X3X2X2X3X3X-Xu r /.`.`.'.!.O.@.f.f.B.C.1.O.] 0 > s s s s s s s s s c c c z s s s ",
"s s s s s s s s s s s s s s s s s [.+X;X>X>X=X@X4.( R.^.~.^.U.#.$.j.k.n.n.*.{ ^ , 2 s s s s s s s s s c c c z s s s ",
"s s s z c c c s s s s c c c z s s s s [.2X#XS.C.d.f.#.o.O.&.$.f.j.B.C.#.&./ 0 ; s s s s s s s x c c x s s s z c c c ",
"s s s z c c c s s s s c c c z s s s s ].,X#XC.B.j.s.@.O.+.O.>.j.k.C.C.=.O.! 0 : s s s s s s s x c c x s s s z c c c ",
"s s s z c c c s s s s c c c z s s s s 5 e 6.h.d.a.d.f.f.d.f.b.C.B.C.Z.=.o.! r * s s s s s s s x c c x s s s z c c c ",
"s s s z z z z z z z z z z z z s s s s 5 e ` h.z.s.j.f.f.s.f.v.Z.C.C.Z.=.o./ e * s s s s s s s z z z z s s s z z z z ",
"s s s s s s s x c c x s s s s s s s s M + ; ( ) ~ ) v.B.m.B.v.,.,.u.,.! Q - # M s s s s s s s s s s s s s s s s s s ",
"s s s s s s s x c c c s s s s s s s s s s $ r 0 0 0 N.C.Z.Z.x.O. . .X.q r $ s s s s s s s s s s s s s s s s s s s s ",
"s s s s s s s x c c c s s s s s s s s s s N ; ; ; ; y.z.z.z.:.' ( E E : 2 N s s s s s s s s s s s s s s s s s s s s ",
"s s s z x x x z g g z x x x z s s s s s s s s s s d ` X.O. .[ 9 < d s s s s s s s s s s s s s s s s s s s s s s s s ",
"s s s z c c c s s s s c c c z s s s s s s s s s s a E 2.2.2.7 6 3 a s s s s s s s s s s s s s s s s s s s s s s s s ",
"s s s z c c c s s s s c c c z s s s s s s s s s s s s s s s s s s s s s s s s s s s s s s s s s s s s s s s s s s s ",
"s s s z x x x s s s s x x x z s s s s s s s s s s s s s s s s s s s s s s s s s s s s s s s s g g g g s s s s s s s ",
"s s s s s s s s s s s s s s s s s s d C s s s s s s             s s s s s s V f s s s s s s s G K K J s s s s s s s ",
"s s s s s s s s s s s s s s s s s C s s s                                   s s s s s s s s s G K K J s s s s s s s ",
"s s s s s s s s s s s s s s s s s s                                               s s s s s s G K K J s s s s s s s ",
"s s s s s s s s s s s s s s s s s s                                               s s k h h h F H H H s s s s s s s ",
"s s s s s s s s s s s s s s s s s A I s s                                     s s f s h % % % b c c x s s s s s s s ",
"s s s s s s s s s s s s s s s s s s d f s s s s s s               s s s s s s s s s s h % % % b c c x s s s s s s s ",
"s s s s s s s s s s s s s s s s s s s s s s s s s s s s s s s s s s s s s s s s s s s h % % % b c c x s s s s s s s ",
"s s s m J J J z s s s s s s s s s s s s s s s s s z x x x s s s z x x x z s s s s s s a k k k s s s s s s s s s s s ",
"s s s m K K K b s s s s s s s s s s s s s s s s s z c c c s s s z c c c z s s s s s s s s s s s s s s s s s s s s s ",
"s s s m K K K b s s s s s s s s s s s s s s s s s z c c c s s s z c c c z s s s s s s s s s s s s s s s s s s s s s ",
"k k k n J J J z s s s s s s s s s s s s s s s s s z x x x g s s z x x x z s s s s s s s s s s s s s s s s s s s s s ",
"% % % j c c c s s s s s s s s s s s s s s s s s s s s s s c c c x s s s s s s s s s s s s s s s s s s s s s s s s s ",
"% % % j c c c s s s s s s s s s s s s s s s s s s s s s s c c c x s s s s s s s s s s s s s s s s s s s s s s s s s ",
"% % % j c c c s s s s s s s s s s s s s s s s s s s s s s c c c x s s s s s s s s s s s s s s s s s s s s s s s s s ",
"h h h l z z z s s s s s s s s s s s s s s s s s s s s s s z z z z s s s s s s s s s s s s s s s s s s s s s s s s s ",
"s s s s s s s s s s s s s s s s s s s s s s s s s s s s s s s s s s s s s s s s s s s s s s s s s s s s s s s s s s ",
"s s s s s s s s s s s s s s s s s s s s s s s s s s s s s s s s s s s s s s s s s s s s s s s s s s s s s s s s s s ",
"s s s s s s s s s s s s s s s s s s s s s s s s s s s s s s s s s s s s s s s s s s s s s s s s s s s s s s s s s s "
};
