/* XPM */
static char *a10bec2f7a5947eebcc6a0f22dc01a03[] = {
/* columns rows colors chars-per-pixel */
"58 58 219 2 ",
"   c #110200",
".  c #1B0C03",
"X  c #0E1204",
"o  c #2C0201",
"O  c #290602",
"+  c #380A02",
"@  c #261707",
"#  c #2E1C09",
"$  c #371406",
"%  c #351E0A",
"&  c #0B3309",
"*  c #14380B",
"=  c #35230D",
"-  c #3C290F",
";  c #26390F",
":  c #2B2A10",
">  c #3C2911",
",  c #431305",
"<  c #491506",
"1  c #531506",
"2  c #591A08",
"3  c #621D0A",
"4  c #6C1D09",
"5  c #59210C",
"6  c #432D12",
"7  c #4A3416",
"8  c #4B3618",
"9  c #503517",
"0  c #543916",
"q  c #56381A",
"w  c #5B3D1D",
"e  c #65210C",
"r  c #6B230D",
"t  c #71260E",
"y  c #6D2912",
"u  c #742713",
"i  c #742B15",
"p  c #792B1A",
"a  c #653114",
"s  c #693419",
"d  c #5F2620",
"f  c #632824",
"g  c #74352E",
"h  c #17440F",
"j  c #194B0E",
"k  c #1B500F",
"l  c #144E12",
"z  c #185715",
"x  c #344F16",
"c  c #275C18",
"v  c #1C6A1B",
"b  c #2E661A",
"n  c #207520",
"m  c #237A22",
"M  c #3B7121",
"N  c #33773F",
"B  c #4D4B1B",
"V  c #5C431A",
"C  c #64431D",
"Z  c #6A4D1A",
"A  c #77521F",
"S  c #5C4920",
"D  c #654521",
"F  c #6D4B22",
"G  c #744E24",
"H  c #765729",
"J  c #6E5831",
"K  c #5D6326",
"L  c #5B6B27",
"P  c #4C7A25",
"I  c #537126",
"U  c #606426",
"Y  c #636A28",
"T  c #7C632D",
"R  c #776033",
"E  c #7B3A45",
"W  c #336644",
"Q  c #326E41",
"!  c #7F724A",
"~  c #812D23",
"^  c #873627",
"/  c #93382D",
"(  c #843733",
")  c #973B32",
"_  c #9B3A33",
"`  c #9C3D3A",
"'  c #A43E3C",
"]  c #845E2D",
"[  c #914238",
"{  c #A6453F",
"}  c #AB423D",
"|  c #89622E",
" . c #92642D",
".. c #886935",
"X. c #896E3B",
"o. c #916530",
"O. c #946A32",
"+. c #8F7235",
"@. c #8B723E",
"#. c #987437",
"$. c #9D7B39",
"%. c #A27D3A",
"&. c #9D4B4C",
"*. c #AA4443",
"=. c #B04642",
"-. c #B54A45",
";. c #BC4D4B",
":. c #A34C51",
">. c #B74D52",
",. c #A7535B",
"<. c #B95259",
"1. c #846E44",
"2. c #8B7443",
"3. c #8E7A47",
"4. c #977D46",
"5. c #937F54",
"6. c #A07B45",
"7. c #B95261",
"8. c #C4555A",
"9. c #CC5B66",
"0. c #C75A69",
"q. c #C85E75",
"w. c #D2606E",
"e. c #CD6174",
"r. c #D46373",
"t. c #DA677A",
"y. c #25811F",
"u. c #258225",
"i. c #2A8A25",
"p. c #2E9824",
"a. c #2B942B",
"s. c #2D992D",
"d. c #35972B",
"f. c #39902E",
"g. c #33873A",
"h. c #2E9032",
"j. c #31A42D",
"k. c #35AC2C",
"l. c #38AA2C",
"z. c #37B22C",
"x. c #3AB32E",
"c. c #36A230",
"v. c #3CA534",
"b. c #3DAA32",
"n. c #498225",
"m. c #48862A",
"M. c #4C962A",
"N. c #7E8A3F",
"B. c #40AD33",
"V. c #4BBB37",
"C. c #4FBF39",
"Z. c #80953F",
"A. c #92854A",
"S. c #9D834C",
"D. c #89865B",
"F. c #8E885C",
"G. c #968D5D",
"H. c #A58349",
"J. c #A48D4E",
"K. c #AA894C",
"L. c #B18C42",
"P. c #B88F45",
"I. c #A3914F",
"U. c #BA9649",
"Y. c #A88E56",
"T. c #A79151",
"R. c #A89252",
"E. c #AF9E56",
"W. c #AE925B",
"Q. c #B69953",
"!. c #AFA156",
"~. c #999464",
"^. c #A59864",
"/. c #B3A26A",
"(. c #C29D4B",
"). c #C2A04F",
"_. c #CCA54F",
"`. c #C9A857",
"'. c #D2AC55",
"]. c #D6B35C",
"[. c #C2A860",
"{. c #CAB668",
"}. c #D7B560",
"|. c #D6BC6A",
" X c #C8B677",
".X c #D2BE73",
"XX c #D9C26D",
"oX c #CFC37F",
"OX c #DAC575",
"+X c #E2C56B",
"@X c #E7CB6F",
"#X c #E3CD74",
"$X c #E4CD79",
"%X c #E7D37A",
"&X c #F2DC7E",
"*X c #DD6C81",
"=X c #E16D83",
"-X c #E7718A",
";X c #D8CD84",
":X c #D3CB8B",
">X c #DDD38F",
",X c #DBD592",
"<X c #DEDA96",
"1X c #E4CE80",
"2X c #E5D385",
"3X c #E6D58A",
"4X c #E9D689",
"5X c #E9DB8E",
"6X c #E5DB95",
"7X c #ECDE92",
"8X c #E2DE99",
"9X c #F6E181",
"0X c #F7E68C",
"qX c #E9E49C",
"wX c #FAEC95",
"eX c #F4E99A",
"rX c #FBF3A4",
"tX c #FCF6AA",
"yX c #FEFAAD",
/* pixels */
"s.s.s.s.s.s.s.s.s.s.s.s.s.s.s.s.s.s.s.s.s.s.s.s.s.s.s.s.s.s.s.s.s.s.s.s.s.s.s.s.s.s.s.s.s.s.s.s.s.s.s.s.s.s.s.s.s.s.",
"s.s.s.s.s.s.s.s.s.s.s.s.s.s.s.s.s.s.s.s.s.s.s.s.s.s.s.s.s.s.s.s.s.s.s.s.s.s.s.s.s.s.s.s.s.s.s.s.s.s.s.s.s.s.s.s.s.s.",
"s.s.s.s.s.s.s.s.s.s.s.s.s.s.s.s.s.s.s.s.s.s.s.s.s.s.s.s.s.s.s.s.s.s.s.s.s.s.s.s.s.s.s.s.s.s.s.s.s.s.s.s.s.s.s.s.s.s.",
"s.s.s.s.s.s.s.s.s.s.s.s.s.s.s.s.s.s.s.s.s.s.B.B.B.c.s.s.s.s.s.s.s.s.s.s.s.s.s.s.s.s.s.s.s.s.s.s.s.s.s.s.s.s.s.s.s.s.",
"s.s.s.s.s.s.s.s.s.s.s.s.s.s.s.s.s.s.s.s.s.c.C.C.C.b.s.s.s.s.s.s.s.s.s.s.s.s.s.s.s.s.s.s.s.s.s.s.s.s.s.s.s.s.s.s.s.s.",
"s.s.s.s.s.s.s.s.s.s.s.s.s.s.s.s.s.s.s.s.s.c.C.C.C.b.s.s.s.s.s.s.s.s.s.s.s.s.s.s.s.s.s.s.s.s.s.s.s.s.s.s.s.s.s.s.s.s.",
"s.s.s.s.s.s.s.s.s.s.s.s.s.s.s.s.s.s.s.s.s.c.C.C.C.b.s.s.s.s.s.s.s.s.s.s.s.s.s.s.s.s.s.s.s.s.s.s.s.s.s.s.s.s.s.s.s.s.",
"s.s.s.s.s.s.s.s.s.s.s.s.s.s.s.s.s.s.N Q Q g.x.x.x.j.s.s.s.s.s.s.s.s.s.s.s.s.s.s.s.s.s.j.k.k.k.s.s.s.s.k.k.k.j.s.s.s.",
"s.s.s.s.s.s.s.s.s.s.s.s.s.s.s.s.s.s.Q W W N z.z.z.j.s.s.s.s.s.s.s.s.s.s.s.s.s.s.s.s.s.j.z.z.z.s.s.s.s.z.z.z.j.s.s.s.",
"s.s.s.s.s.s.s.s.s.s.s.s.s.s.s.s.s.s.Q W W N z.z.z.j.s.s.s.s.s.s.s.s.s.s.s.s.s.s.s.s.s.j.z.z.z.s.s.s.s.z.z.z.j.s.s.s.",
"s.s.s.s.s.s.s.s.s.s.s.s.s.s.s.s.s.s.N N N g.k.k.k.j.s.s.s.s.s.s.s.s.s.s.s.s.s.s.s.s.s.j.k.k.k.j.s.s.j.k.k.k.j.s.s.s.",
"s.s.s.s.s.s.s.s.s.s.m.L K K K K K I f.s.s.s.s.s.d.P K K K K K K P d.s.s.s.s.s.f.I K K K K K L M.z.z.k.s.s.s.s.s.s.s.",
"s.s.s.s.s.s.s.s.a.u.I F @.J.J.S.R B P n.n.n.n.n.P K J 4.J.J.4.H K P n.n.n.n.n.P B R S.J.J.@.F P p.k.k.s.s.s.s.s.s.s.",
"s.s.s.s.s.s.s.s.u.c 8 J E.OX%X|.3.6 V Z Z Z Z Z Z C X.{.#X#X{.X.C Z Z Z Z Z Z V 6 3.|.%XOXE.J B v p.z.s.s.s.s.s.s.s.",
"s.s.s.s.s.s.s.j.i.x Z 4..X0X0X#XA.5 ~ / / / / ~ i a @.XX9X9XXX@.a i ~ / / / / ~ 5 A.#X0X0X.X4.Z x i.j.k.k.k.j.s.s.s.",
"s.s.s.s.s.s.s.l.M.Y #.).2XrXwX#XA.d ` -.-.-.=.) p a 2.XX9X9XXX2.a p ) =.-.-.-.` d A.#XwXrX2X).#.Y m.d.z.z.z.j.s.s.s.",
"s.s.s.s.s.s.s.M.Z.!.`.].4XrXwX#XA.f ' 8.9.8.;.} ) g 3.;XwXwX;X3.g ) } ;.8.9.8.' f A.#XwXrX4X].`.E.N.m.z.z.z.j.s.s.s.",
"s.s.s.s.s.s.s.L I.OX+X}.4XrXwX$XA.f *.9.t.r.8.;.=.^ 5.>XyXyX>X5.^ =.;.8.r.t.9.*.f A.$XwXrX4X}.+XOXJ.L z.z.z.j.s.s.s.",
"s.s.s.s.s.s.s.U T.#X@X}.4XrXrX5XG.g 7.t.=X*Xr.8.-./ 5.,XyXyX,X5./ -.8.r.*X=Xt.7.g G.5XrXrX4X}.@X#XT.U s.s.s.s.s.s.s.",
"s.s.s.s.s.s.s.U T.#X#X}.4XtXyXqX~.E q.=X=X=X=Xr.<.[ 5.,XyXyX,X5.[ <.r.=X=X=X=Xq.E ~.qXyXtX4X}.@X#XT.U s.s.s.s.s.s.s.",
"s.s.s.s.s.s.s.U T.#X@X}.4XtXyXqX~.E e.*Xw.r.=X=Xw.&.5.,XyXyX,X5.&.w.=X=Xr.w.*Xe.E ~.qXyXtX4X}.@X#XT.U s.s.s.s.s.s.s.",
"s.s.s.s.s.s.s.U T.#X@X].2XrXyXqX~.E 0.r.8.9.=X-X*X,.5.,XyXyX,X5.,.*X-X=X9.8.r.0.E ~.qXyXrX2X].@X#XT.U s.s.s.s.s.s.s.",
"s.s.s.s.s.s.s.U T.#X#X].#X0XwX2XY.( >.8.;.9.=X-X*X,.5.,XyXyX,X5.,.*X-X=X9.;.8.>.( Y.2XwX0X#X].#X#XT.U s.s.s.s.s.s.s.",
"s.s.s.s.s.s.s.U T.#X#X].+X&X9X#XK.^ } -.=.0.*X=Xr.:.5.,XyXyX,X5.:.r.=X*X0.=.-.} ^ K.#X9X&X+X].#X#XT.U s.s.s.s.s.s.s.",
"s.s.s.s.s.s.s.U T.#X#X].+X&X9X#XK.^ } } ) <.t.t.8.[ A.,XyXyX,X5.[ 8.t.t.<.) } } ^ K.#X9X&X+X].@X#XT.U s.s.s.s.s.s.s.",
"s.s.s.s.s.s.s.U T.#X#X].+X&X9X#XK.~ ) / ~ :.q.0.{ ^ 3.;XrXrX;X3.^ { 0.q.:.~ / ) ~ K.#X9X&X+X].#X#XT.U k.k.k.j.s.s.s.",
"s.s.s.s.s.s.s.U T.#X#X].+X&X9X#XK.p p p p ` >.*.^ s 2.OX0X0XOX2.s ^ *.>.` p p p i K.#X9X&X+X].#X#XT.U z.z.z.j.s.s.s.",
"s.s.s.s.s.s.s.U R.#XXXQ.}.&X9X#XK.i 4 r u / =._ i a @.XX9X9X|.2.a i _ =./ u r 4 i K.#X9X&X}.Q.XX#XR.U z.z.z.j.s.s.s.",
"s.s.s.s.s.s.s.U T.#X{.4.`.%X9X#XK.i 4 t u / =.) p a @.|.&X&X|.@.a p ) =./ u t 4 i K.#X9X%X`.4.{.#XR.U z.z.z.j.s.s.s.",
"s.s.s.j.z.z.z.U T.#X{.X.Q.XX@X}.4.5 4 t u ^ ) ^ i a X.`.@X@X`.X.a i ^ ) ^ u t 4 5 4.}.@XXXQ.X.{.#XR.Y s.s.s.j.z.z.z.",
"s.s.s.j.z.z.z.U R.#X{.X.H.'.].)..., 3 t r u p u y s H U.'.'.U.] s y u i u r t 3 , ..).].'.H.X.{.#XR.Y s.s.s.j.z.z.z.",
"s.s.s.j.z.z.z.U R.#X{.X.%._.'.U.T $ 3 r 2 2 r 3 5 q H $.L.L.$.H q 5 3 r 2 2 r 3 $ T U.'._.%.X.{.#XR.Y s.s.s.j.z.z.z.",
"s.s.s.j.k.k.k.Y R.$X{.X.%._.'.U.T $ 3 3 + < e < # 9 F ] O.O.] F 9 # < e < + 3 3 $ T U.'._.%.X.{.$XR.Y s.s.s.j.k.k.k.",
"s.s.s.s.s.s.s.Y ^.5XoX2.%._.'.(.T $ 3 3 O O , o . 9 D G G G G D 9 . o $ O O 3 3 $ T (.'._.%.2.oX6X^.U s.s.s.s.s.s.s.",
"s.s.s.s.s.s.s.L /.qX:X2.#.U.(.L.H o 1 1 O   # = 6 9 D H | | H D 9 6 = #   O 1 1 o H L.(.U.#.2.:XqX/.K s.s.s.s.s.s.s.",
"s.s.s.s.s.s.s.b ^.qX:X1.A O.O.| 0   o o   # 9 F G 0 V $.P.P.$.V 0 G F 9 #   o o   0 | O.O.A 1.:XqX^.x s.s.s.s.s.s.s.",
"s.s.s.j.k.k.k.z F.:X:X^.~.^.^.~.F.D.D.D.D.! R 4.W.3.@.[.OXOX[.@.3.W.4.R ! D.D.D.D.F.~.^.^.G.^.:X:XF.l s.s.s.s.s.s.s.",
"s.s.s.j.z.z.z.l J W. X6X8X8X8X8X8X8X8X8X<X XS. X3X.X[.2XeXeX2X[..X3X XS. X<X8X8X8X8X8X8X8X8X6X XW.J l s.s.s.s.s.s.s.",
"s.s.s.j.z.z.z.l 9 | /.>X6X6X6X6X6X6X6X6X6X XK. X7X4X1X7XeXeX5X1X4X7X XK. X6X6X6X6X6X6X6X6X6X>X/.| 9 l s.s.s.s.s.s.s.",
"s.s.s.j.k.k.k.l 0 ] 6.Y.W.W.W.W.W.W.W.W.W.H.#.Q.|.5XeX$X|.|.$XeX5X|.Q.#.H.W.W.W.W.W.W.W.W.W.Y.6.] 0 l s.s.s.s.s.s.s.",
"s.s.s.s.s.s.s.l 7 H  . . . . . . . . . . . .O.%.Q.OX4X|._._.|.4XOXQ.%.O. . . . . . . . . . . . .H 7 c s.s.s.s.s.s.s.",
"s.s.s.s.s.s.s.z > D H  . . .o. . . . . . .o.o.] ..Q.].'._._.'.].Q...] o.o. . . . . . . . . . .H C > b s.s.s.s.s.s.s.",
"s.s.s.s.s.s.s.m c 8 w F F F F F F F F F F F F w w T $.L.P.P.L.$.T w w F F F F F F F F F F F F w B M f.s.s.s.s.s.s.s.",
"s.s.s.s.s.s.s.a.m k : # = 6 8 8 - # % % % % % # # = V ] O.O.] V = # # % % % % % # - 8 8 6 = # : c d.b.s.s.s.s.s.s.s.",
"s.s.s.s.s.s.s.s.a.m z & 7 G +.+.S O , 1 1 1 1 1 < o . 9 C C 9 . o 1 1 1 1 1 1 , O S +.+.G 7 X z i.k.k.s.s.s.s.s.s.s.",
"s.s.s.s.s.s.s.s.s.a.n ; C O.L.L.H $ 2 r e e e r e , . @ = = @ . , e r e e e r 2 $ H L.L.O.C : m k.z.k.s.s.s.s.s.s.s.",
"s.s.s.s.s.s.s.s.s.s.m ; F O.#.+.S O + < < < < < , O @ 6 9 9 6 @ O , < < < < < + O S +.#.O.F : u.z.z.k.s.s.s.s.s.s.s.",
"s.s.s.b.V.V.V.j.s.a.m ; C H G w = X * h h h h h * & @ 7 w w 7 @ & j k k j h h * X = w G H C ; m s.s.s.s.s.s.s.s.s.s.",
"s.s.s.b.C.C.C.c.s.a.m * - 9 6 % . * n u.u.u.u.u.m z X # - - # X z i.p.p.i.u.u.n * . % 6 9 - * m a.s.s.s.s.s.s.s.s.s.",
"s.s.s.b.C.C.C.c.s.s.u.z l l l l l v i.s.s.s.s.s.a.y.z z z l l z m k.z.z.j.s.s.i.v l l l l l z u.s.s.s.s.s.s.s.s.s.s.",
"h.h.h.v.V.V.V.j.s.s.s.s.s.s.s.s.s.s.s.s.s.s.s.s.s.j.k.k.k.j.s.s.j.k.k.k.j.s.s.s.s.s.s.s.s.s.s.s.s.s.s.s.s.s.s.s.s.s.",
"W W W g.z.z.z.s.s.s.s.s.s.s.s.s.s.s.s.s.s.s.s.s.s.s.s.s.s.z.z.z.k.s.s.s.s.s.s.s.s.s.s.s.s.s.s.s.s.s.s.s.s.s.s.s.s.s.",
"W W W g.z.z.z.s.s.s.s.s.s.s.s.s.s.s.s.s.s.s.s.s.s.s.s.s.s.z.z.z.k.s.s.s.s.s.s.s.s.s.s.s.s.s.s.s.s.s.s.s.s.s.s.s.s.s.",
"W W W g.z.z.z.s.s.s.s.s.s.s.s.s.s.s.s.s.s.s.s.s.s.s.s.s.s.z.z.z.k.s.s.s.s.s.s.s.s.s.s.s.s.s.s.s.s.s.s.s.s.s.s.s.s.s.",
"g.g.g.h.j.j.j.s.s.s.s.s.s.s.s.s.s.s.s.s.s.s.s.s.s.s.s.s.s.j.j.j.j.s.s.s.s.s.s.s.s.s.s.s.s.s.s.s.s.s.s.s.s.s.s.s.s.s.",
"s.s.s.s.s.s.s.s.s.s.s.s.s.s.s.s.s.s.s.s.s.s.s.s.s.s.s.s.s.s.s.s.s.s.s.s.s.s.s.s.s.s.s.s.s.s.s.s.s.s.s.s.s.s.s.s.s.s.",
"s.s.s.s.s.s.s.s.s.s.s.s.s.s.s.s.s.s.s.s.s.s.s.s.s.s.s.s.s.s.s.s.s.s.s.s.s.s.s.s.s.s.s.s.s.s.s.s.s.s.s.s.s.s.s.s.s.s.",
"s.s.s.s.s.s.s.s.s.s.s.s.s.s.s.s.s.s.s.s.s.s.s.s.s.s.s.s.s.s.s.s.s.s.s.s.s.s.s.s.s.s.s.s.s.s.s.s.s.s.s.s.s.s.s.s.s.s."
};
