/* XPM */
static char *_ae75681c03e43739b4078b1d7aaed30[] = {
/* columns rows colors chars-per-pixel */
"58 58 205 2 ",
"   c #080506",
".  c #0A0606",
"X  c #180C05",
"o  c #120B0B",
"O  c #08100B",
"+  c #1B1306",
"@  c #140D15",
"#  c #1E1516",
"$  c #290401",
"%  c #3B0702",
"&  c #261708",
"*  c #371908",
"=  c #231616",
"-  c #271C18",
";  c #301C1A",
":  c #0E2E0A",
">  c #0C360A",
",  c #16380B",
"<  c #34230D",
"1  c #3B250E",
"2  c #3D280F",
"3  c #26390E",
"4  c #272916",
"5  c #3A2717",
"6  c #3E2B11",
"7  c #2E2020",
"8  c #332424",
"9  c #362628",
"0  c #3D2C2C",
"q  c #4C0502",
"w  c #540F05",
"e  c #4A1406",
"r  c #481607",
"t  c #5B1607",
"y  c #631908",
"u  c #422B11",
"i  c #582813",
"p  c #4B3116",
"a  c #4C371C",
"s  c #543918",
"d  c #5B3D1D",
"f  c #64210C",
"g  c #6A230D",
"h  c #71250D",
"j  c #6A2C12",
"k  c #742711",
"l  c #722B14",
"z  c #683619",
"x  c #763618",
"c  c #442B2C",
"v  c #5A3E21",
"b  c #5B3F2E",
"n  c #443232",
"m  c #4C3634",
"M  c #503334",
"N  c #533C3B",
"B  c #5B393A",
"V  c #16430F",
"C  c #194B0F",
"Z  c #1B500F",
"A  c #1D4711",
"S  c #134E12",
"D  c #195915",
"F  c #234812",
"G  c #34591A",
"H  c #1C681B",
"J  c #1F711F",
"K  c #24711E",
"L  c #227A22",
"P  c #56401C",
"I  c #63431D",
"U  c #5F631F",
"Y  c #5B4324",
"T  c #4C5E20",
"R  c #5B423C",
"E  c #634322",
"W  c #644D22",
"Q  c #6B4A24",
"!  c #714E22",
"~  c #6D5226",
"^  c #7B5327",
"/  c #785629",
"(  c #7C5B2B",
")  c #624435",
"_  c #765837",
"`  c #5D6326",
"'  c #576A26",
"]  c #4E7426",
"[  c #7C632D",
"{  c #6F6C38",
"}  c #7B6335",
"|  c #336644",
" . c #604343",
".. c #6B4646",
"X. c #6D6641",
"o. c #707C4A",
"O. c #81271B",
"+. c #89392C",
"@. c #913424",
"#. c #865B2D",
"$. c #855C2C",
"%. c #81642F",
"&. c #876836",
"*. c #936A31",
"=. c #986E36",
"-. c #88723C",
";. c #987739",
":. c #A07B3F",
">. c #955B4E",
",. c #AB4748",
"<. c #B54D4F",
"1. c #B74E50",
"2. c #AC525A",
"3. c #8D7C45",
"4. c #977B45",
"5. c #937E53",
"6. c #A17B40",
"7. c #9C5662",
"8. c #A95E6F",
"9. c #BE6F70",
"0. c #C56475",
"q. c #CB7579",
"w. c #D2797F",
"e. c #25811F",
"r. c #248124",
"t. c #298724",
"y. c #298C29",
"u. c #328C2C",
"i. c #2D9523",
"p. c #2C972C",
"a. c #2D992D",
"s. c #35932C",
"d. c #39972D",
"f. c #31992E",
"g. c #33893A",
"h. c #3A9A31",
"j. c #32A42D",
"k. c #35AC2C",
"l. c #37B22C",
"z. c #3AA732",
"x. c #47862A",
"c. c #578738",
"v. c #6C8833",
"b. c #47AD33",
"n. c #48B936",
"m. c #4EBE39",
"M. c #7F8A4C",
"N. c #8B8F3D",
"B. c #A5833F",
"V. c #B58A3F",
"C. c #98884A",
"Z. c #8C8C54",
"A. c #978456",
"S. c #87955B",
"D. c #A78847",
"F. c #B28E45",
"G. c #B3944E",
"H. c #A79656",
"J. c #B99A58",
"K. c #9BAE4D",
"L. c #B9A35B",
"P. c #A3B656",
"I. c #9C9969",
"U. c #A79763",
"Y. c #BBA868",
"T. c #ADA974",
"R. c #C4AA59",
"E. c #D2B25E",
"W. c #C79E6E",
"Q. c #C8B169",
"!. c #D8B963",
"~. c #D5BC6A",
"^. c #D2A173",
"/. c #C4B372",
"(. c #D0BC71",
"). c #D9C46E",
"_. c #DECA74",
"`. c #D9C77B",
"'. c #E2CE76",
"]. c #E2CB7C",
"[. c #EAD57A",
"{. c #AB6A83",
"}. c #CD7185",
"|. c #D47693",
" X c #DF7C9C",
".X c #DE84AB",
"XX c #DF8DB6",
"oX c #E881A4",
"OX c #E28CB6",
"+X c #E893BF",
"@X c #C9C788",
"#X c #DAD28B",
"$X c #DBD591",
"%X c #E9D789",
"&X c #E9DD93",
"*X c #F6E487",
"=X c #EAE39B",
"-X c #F7E995",
";X c #F4E9A1",
":X c #FCF5A7",
">X c #FEFAAC",
",X c #FFFDB0",
"<X c #E493C0",
"1X c #EB94C0",
"2X c #ED9AC9",
/* pixels */
"a.a.a.a.a.a.a.a.a.a.a.f.x.' ` ' x.a.a.f.f.f.f.a.d.] ` ` ` ` ` ` ] d.a.f.f.f.f.a.a.x.' ` ' x.f.a.a.a.a.a.a.a.a.a.a.a.",
"a.a.a.a.a.a.a.a.a.a.s.x.N.D.D.C.v.c.M.Z.Z.Z.Z.Z.Z.{ ( 4.D.D.4._ { Z.Z.Z.Z.Z.Z.M.c.v.C.D.D.N.x.s.a.a.a.a.a.a.a.a.a.a.",
"a.a.a.a.a.a.a.a.a.f.x.{ L._.'.).C.>.9.w.w.w.w.}.q.>.-.Q.'.'.Q.-.>.q.}.w.w.w.w.9.>.C.).'._.L.{ x.a.a.a.a.a.a.a.a.a.a.",
"a.a.a.a.a.a.a.a.a.f.v.C.(.-X-X%XJ.2.|.oXoXoXoXoX X8.5.`.-X-X`.5.8. XoXoXoXoXoX|.2.J.%X-X-X(.C.v.f.a.a.a.a.a.a.a.a.a.",
"a.a.a.a.a.a.a.a.a.d.N.R.%X:X>X=XW.0.oX1X1X1X1X1XOX{.5.#X>X>X#X5.{.OX1X1X1X1X1X.X0.W.=X>X:X%XR.N.d.a.a.a.a.a.a.a.a.a.",
"a.a.a.a.a.a.a.a.a.h.K.).-X>X,X;X^.0.OX2X2X2X2X2X<X{.A.$X>X>X$XA.{.<X2X2X2X2X2XOX0.^.;X,X>X-X).K.h.a.a.a.a.a.a.a.a.a.",
"a.a.a.a.a.a.a.a.a.h.P.[.-X>X>X;X^.0..X1X+X+X+X1XXX{.A.$X>X>X$XA.{.XX1X+X+X+X1X.X0.^.;X>X>X-X[.P.h.a.a.a.a.a.a.a.a.a.",
"a.a.a.a.a.a.a.a.a.h.K.).-X>X,X;XW.2.}.|.|.|.|.|.}.7.A.$X>X>X$XA.7.}.|.|.|.|.|.}.2.W.;X,X>X-X).K.h.a.a.k.k.k.j.a.a.a.",
"a.a.a.a.a.a.a.a.p.s.N.R.%X:X>X=XU.+.,.<.<.<.<.1.<.+.5.#X>X>X#X5.+.<.1.<.<.<.<.,.+.U.=X>X:X%XR.N.s.p.a.l.l.l.j.a.a.a.",
"a.a.a.a.a.a.a.a.y.H U 4.(.-X-X%XA.i O.@.@.@.@.@.@.x 3.`.-X-X`.3.x @.@.@.@.@.@.O.i A.%X-X-X(.B.U H y.a.l.l.l.j.a.a.a.",
"a.a.a.a.a.a.a.y.c.o.X._ L.[.*X'.C.* y k k k k k l z &.Q._._.Q.&.z l k k k k k y * C.'.*X[.Y._ X.o.c.p.k.k.k.j.a.a.a.",
"a.a.a.a.a.a.a.J S.@XT.{ L.[.*X'.C.* y h h h h h l z ~ -.3.3.-.~ z l h h h h h y * C.'.*X[.L.{ T.@XS.L a.a.a.a.a.a.a.",
"a.a.a.a.a.a.a.S I.=X@XX.H.'.[.).3.$ q t t f j x x z I W ~ ~ W d z x x j f y y q $ 3.).[.'.H.X.@X=XI.D a.a.a.a.a.a.a.",
"a.a.a.a.a.a.a.Z I.=X@XX.B.E.!.R.&.& * * * p z #.#.I W ;.G.G.;.Y I #.^ z p * * * & &.R.!.E.B.X.@X=XI.D a.a.a.a.a.a.a.",
"a.a.a.a.a.a.a.G U.&X#XH.L.!.!.!.J.C.C.C.C.-.%.H.Y.C.4.Q.].].Q.4.A.Y.H.%.-.C.C.C.C.J.!.!.!.L.H.#X&XU.G k.k.k.j.a.a.a.",
"a.a.a.a.a.a.a.' H.].%X'.'.[.[.[.'._._.'._.R.D./.&X`.Q.%X;X;X%XQ.`.&X/.D.R._.'._._.'.[.[.[.'.'.%X].H.` l.l.l.j.a.a.a.",
"a.a.a.a.a.a.a.T -.L.~.~.~.~.~.~.~.~.~.~.~.J.D./.%X%X%X&X&X&X&X%X%X%X/.D.J.~.~.~.~.~.~.~.~.~.~.~.L.-.T l.l.l.j.a.a.a.",
"a.a.a.a.a.a.a.G a ( -.;.6.:.:.:.:.:.:.6.:.=.=.F.~.%X=X`.E.E.`.=X%X~.F.=.=.:.6.:.:.:.:.:.:.6.;.-.( a F l.l.l.j.a.a.a.",
"a.a.a.a.a.a.a.S * d Q ^ ^ ^ ^ ^ ^ ^ ^ ^ ^ ^ $.*.D.Y./.L.V.V.L./.Y.D.*.$.^ ^ ^ ^ ^ ^ ^ ^ ^ ^ ^ Q d * S a.a.a.a.a.a.a.",
"a.a.a.a.a.a.a.S 1 d E E E E E E E E E E E E E Q ~ _ } &.*.*.&.} _ ~ Q E E E E E E E E E E E E E d < S a.a.a.a.a.a.a.",
"a.a.a.a.a.a.a.S & 6 u u u u u u u u u u u u 6 2 1 * r s I I s r * 1 2 6 u u u u u u u u u u u u 6 & S a.a.a.a.a.a.a.",
"a.a.a.a.a.a.a.D : + + & & X = ; ; ; ; ; ; ; ; ; ; ; ; ; 5 5 ; ; ; ; ; ; ; ; ; ; ; ; ; = X & & + + : D a.a.a.a.a.a.a.",
"a.a.a.a.a.a.a.r.H > < p 1 + c B B B B B B B B B B B B B B B B B B B B B B B B B B B B c + 1 p < > H r.a.a.a.a.a.a.a.",
"a.a.a.a.a.a.a.a.L V u d a 8 M  ..................................................... .M 8 a d u V L a.a.a.a.a.a.a.a.",
"a.a.a.a.a.a.a.a.r.V u Y b m c c N  . . . . . . . . . . . . . . . . . . . . . . . .N c c m b E u V r.a.a.a.a.a.a.a.a.",
"a.a.a.a.a.a.a.a.r.V u Y ) N 9 = n N N N N N N N N N N N N N N N N N N N N N N N N n = 9 N ) E u V r.a.k.k.k.j.a.a.a.",
"a.a.a.a.a.a.a.a.r.V u E ) N 9 # 9 n n n n n n n n n n n n n n n n n n n n n n n n 9 # 9 N ) E u V r.a.l.l.l.j.a.a.a.",
"a.a.a.a.a.a.a.a.r.V u E ) N 9 # 8 0 0 0 0 0 0 0 0 0 0 0 0 0 0 0 0 0 0 0 0 0 0 0 0 8 # 9 N ) E u V r.a.l.l.l.j.a.a.a.",
"a.a.a.a.a.a.a.a.r.V u E ) N 9 # 8 0 0 0 0 0 0 0 0 0 0 0 0 0 0 0 0 0 0 0 0 0 0 0 0 8 # 9 N ) E u V r.a.l.l.l.j.a.a.a.",
"a.a.a.j.l.l.l.a.r.V u E ) N 9 o = 7 7 7 7 7 7 7 7 7 7 7 7 7 7 7 7 7 7 7 7 7 7 7 7 = o 9 N ) E u Z i.k.a.a.a.j.l.l.l.",
"a.a.a.j.l.l.l.a.r.V u E ) N 9     o o o o o o o o o o o o o o o o o o o o o o o o     9 N ) E u Z i.k.a.a.a.j.l.l.l.",
"a.a.a.j.l.l.l.a.r.V u Y ) N 9     o o o o o o o o o o o o o o o o o o o o o o o o     9 N ) Y u Z i.k.a.a.a.j.l.l.l.",
"a.a.a.j.k.k.k.j.t.C u E ) N 9 o o # # # # # # # # # # # # # # # # # # # # # # # # o o 9 N ) E u C t.j.a.a.a.j.k.k.k.",
"a.a.a.a.a.a.a.k.i.Z s / _ N 9 o @ # = # # # # # # # # # # # # # # # # # # # # = # o o 9 R _ / s A r.a.a.a.a.a.a.a.a.",
"a.a.a.a.a.a.a.k.i.F I $._ R 9 o o # # # = # # # # # # # # # # # # # # # # # # # # o o 9 R _ $.I A r.a.a.a.a.a.a.a.a.",
"a.a.a.a.a.a.a.k.i.F I $._ R 9 o o # # # = # # # # # # # # # # # # # # # # # # # # o o 9 R _ $.I A r.a.a.a.a.a.a.a.a.",
"a.a.a.j.k.k.k.j.t.F ~ =.&.R 8   o # # # # # # # # # # # # # # # # # # # # # # # # o   8 R &.=.~ F r.a.a.a.a.a.a.a.a.",
"a.a.a.j.l.l.l.a.L F %.F.4.R 8 o o # # # # # # # # # # # # # # # # # # # # # # # # o o 8 R 4.F.%.F r.a.a.a.a.a.a.a.a.",
"a.a.a.j.l.l.l.a.L F [ D.4._ Y d d v v v v p = @ # @ @ # # # # @ @ # @ = p v v v v d d ) _ 4.D.[ F r.a.a.a.a.a.a.a.a.",
"a.a.a.j.k.k.k.a.r.A P ( &.&.$.$.$.$.$.$.$.Q 5 - - - - - # # - - - - - 5 Q $.$.$.$.$.$.$.&.&.( P A t.f.a.a.a.a.a.a.a.",
"a.a.a.a.a.a.a.a.y.J G a I ^ ^ ^ ^ ^ ^ ^ ^ %.&.( ~ } } Y     Y } } Q ( &.%.^ ^ ^ ^ ^ ^ ^ ^ I a G u.b.n.a.a.a.a.a.a.a.",
"a.a.a.a.a.a.a.a.p.y.K 3 < 1 1 1 2 2 2 1 u &.F.B.*.D.F.} 5 5 } F.D.*.B.F.&.p 1 2 2 2 1 1 1 * 3 u.n.m.n.a.a.a.a.a.a.a.",
"a.a.a.a.a.a.a.a.a.a.L > & 1 X   % r r q r / ;.&.( *.;.;.;.;.;.B.*.( &.;./ r q r r %   X 1 & > s.m.m.n.a.a.a.a.a.a.a.",
"a.a.a.a.a.a.a.a.a.p.L , p I s p i g g g g j p 6 1 1 W B.J.G.B.W 1 1 u p j g g g g i p s I p , u.n.n.n.a.a.a.a.a.a.a.",
"a.a.a.a.a.a.a.a.a.p.L 3 d $.;.;.! t g k h y w w r $ 6 [ ;.;.[ 6 $ r w w y h k g t ! ;.;.$.d 4 r.l.l.k.a.a.a.a.a.a.a.",
"a.a.a.a.a.a.a.a.a.p.L 3 I *.F.F.( * t g g g g g f r + < 6 6 < + r f g g g g g t * ( F.F.*.I 4 r.l.l.k.a.a.a.a.a.a.a.",
"a.a.a.a.a.a.a.a.a.p.L 3 Q *.;.*.Y $ % r r r r r r $ + 2 p p 6 + $ r r r r r r % $ Y *.;.*.Q 4 r.l.l.k.a.a.a.a.a.a.a.",
"a.a.a.z.n.n.n.j.a.p.L 3 I ( ^ d < O , V V V V C , : & p d d p & : C Z Z C V V , O < d ^ ( I 3 L a.a.a.a.a.a.a.a.a.a.",
"a.a.a.z.m.m.m.j.a.p.L , 2 s u * X > J r.r.r.r.r.L D + * 1 1 * + D t.i.i.t.r.r.J > X * u s 2 , L p.a.a.a.a.a.a.a.a.a.",
"a.a.a.z.m.m.m.j.a.a.r.D S S S S S H y.a.a.a.a.a.p.e.H D D S S S L k.l.l.j.a.a.y.H S S S S S D r.a.a.a.a.a.a.a.a.a.a.",
"u.u.u.z.n.n.m.j.a.a.a.a.a.a.a.a.a.a.a.a.a.a.a.a.a.j.k.k.k.a.a.a.j.k.k.k.j.a.a.a.a.a.a.a.a.a.a.a.a.a.a.a.a.a.a.a.a.a.",
"| | | g.l.l.l.f.a.a.a.a.a.a.a.a.a.a.a.a.a.a.a.a.a.a.a.a.a.l.l.l.k.a.a.a.a.a.a.a.a.a.a.a.a.a.a.a.a.a.a.a.a.a.a.a.a.a.",
"| | | g.l.l.l.a.a.a.a.a.a.a.a.a.a.a.a.a.a.a.a.a.a.a.a.a.a.l.l.l.k.a.a.a.a.a.a.a.a.a.a.a.a.a.a.a.a.a.a.a.a.a.a.a.a.a.",
"| | | g.l.l.l.a.a.a.a.a.a.a.a.a.a.a.a.a.a.a.a.a.a.a.a.a.a.l.l.l.k.a.a.a.a.a.a.a.a.a.a.a.a.a.a.a.a.a.a.a.a.a.a.a.a.a.",
"g.g.g.f.j.j.j.a.a.a.a.a.a.a.a.a.a.a.a.a.a.a.a.a.a.a.a.a.a.j.j.j.j.a.a.a.a.a.a.a.a.a.a.a.a.a.a.a.a.a.a.a.a.a.a.a.a.a.",
"a.a.a.a.a.a.a.a.a.a.a.a.a.a.a.a.a.a.a.a.a.a.a.a.a.a.a.a.a.a.a.a.a.a.a.a.a.a.a.a.a.a.a.a.a.a.a.a.a.a.a.a.a.a.a.a.a.a.",
"a.a.a.a.a.a.a.a.a.a.a.a.a.a.a.a.a.a.a.a.a.a.a.a.a.a.a.a.a.a.a.a.a.a.a.a.a.a.a.a.a.a.a.a.a.a.a.a.a.a.a.a.a.a.a.a.a.a.",
"a.a.a.a.a.a.a.a.a.a.a.a.a.a.a.a.a.a.a.a.a.a.a.a.a.a.a.a.a.a.a.a.a.a.a.a.a.a.a.a.a.a.a.a.a.a.a.a.a.a.a.a.a.a.a.a.a.a."
};
