/* XPM */
static char *_643513315377[] = {
/* columns rows colors chars-per-pixel */
"58 30 4 1 ",
"  c #534329",
". c #664329",
"X c #EFB833",
"o c #EFE025",
/* pixels */
"o  .......................................................",
"  ....... ... ... ... ... ... ... ... ... ... ... ... ... ",
" ....                                                     ",
"....  oooooooooooooooooooooooooooooooooooooooooooooooooooo",
"...  ooXXXXXXXXXXXXXXXXXXXXXXXXXXXXXXXXXXXXXXXXXXXXXXXXXXX",
"..  ooX                                                   ",
".. ooX   ... ... ... ... ... ... ... ... ... ... ... ... .",
".  oo  ...................................................",
".. oo ....................................................",
".. oo ....................................................",
".  oo  ...................................................",
".. oo ....................................................",
".. oo ....................................................",
".  oo  ...................................................",
".. oo ....................................................",
".. oo ....................................................",
".  oo  ...................................................",
".. oo ....................................................",
".. oo ....................................................",
".  oo  ...................................................",
".. oo ....................................................",
".. oo ....................................................",
".  oo  ...................................................",
".. Xoo   ... ... ... ... ... ... ... ... ... ... ... ... .",
"..  Xoo                                                   ",
"...  Xoooooooooooooooooooooooooooooooooooooooooooooooooooo",
"....  XXXXXXXXXXXXXXXXXXXXXXXXXXXXXXXXXXXXXXXXXXXXXXXXXXXX",
" ....                                                     ",
"  ....... ... ... ... ... ... ... ... ... ... ... ... ... ",
"o  ......................................................."
};
