/* XPM */
static char *_643513360485[] = {
/* columns rows colors chars-per-pixel */
"58 30 4 1 ",
"  c #534329",
". c #664329",
"X c #EFB833",
"o c #EFE025",
/* pixels */
"..........................................................",
". ... ... ... ... ... ... ... ... ... ... ... ... ... ... ",
"                                                          ",
"oooooooooooooooooooooooooooooooooooooooooooooooooooooooooo",
"XXXXXXXXXXXXXXXXXXXXXXXXXXXXXXXXXXXXXXXXXXXXXXXXXXXXXXXXXX",
"                                                          ",
" ... ... ... ... ... ... ... ... ... ... ... ... ... ... .",
"..........................................................",
"..........................................................",
"..........................................................",
"..........................................................",
"..........................................................",
"..........................................................",
"..........................................................",
"..........................................................",
"..........................................................",
"..........................................................",
"..........................................................",
"..........................................................",
"..........................................................",
"..........................................................",
"..........................................................",
"..........................................................",
" ... ... ... ... ... ... ... ... ... ... ... ... ... ... .",
"                                                          ",
"oooooooooooooooooooooooooooooooooooooooooooooooooooooooooo",
"XXXXXXXXXXXXXXXXXXXXXXXXXXXXXXXXXXXXXXXXXXXXXXXXXXXXXXXXXX",
"                                                          ",
". ... ... ... ... ... ... ... ... ... ... ... ... ... ... ",
".........................................................."
};
