/* XPM */
static char *_c3d9589003240728847e6f2d62dc0b5[] = {
/* columns rows colors chars-per-pixel */
"58 58 230 2 ",
"   c #010101",
".  c #060702",
"X  c #180703",
"o  c #021904",
"O  c #1F1609",
"+  c #181415",
"@  c #2F1406",
"#  c #27160A",
"$  c #261713",
"%  c #062808",
"&  c #063504",
"*  c #152E10",
"=  c #053E13",
"-  c #2E2315",
";  c #382814",
":  c #101D2A",
">  c #132330",
",  c #252726",
"<  c #2E3426",
"1  c #353335",
"2  c #5B2D05",
"3  c #4B2A15",
"4  c #46281B",
"5  c #532E15",
"6  c #4A3819",
"7  c #593519",
"8  c #6D3508",
"9  c #663B1C",
"0  c #6B3C1D",
"q  c #713E1C",
"w  c #4A2920",
"e  c #48372D",
"r  c #563721",
"t  c #563D34",
"y  c #6A3B24",
"u  c #703520",
"i  c #723D20",
"p  c #0C420D",
"a  c #13430E",
"s  c #084617",
"d  c #08571B",
"f  c #175615",
"g  c #21541C",
"h  c #08641F",
"j  c #15621C",
"k  c #2B731A",
"l  c #34781F",
"z  c #0C5E20",
"x  c #28502B",
"c  c #365C23",
"v  c #126822",
"b  c #0F7326",
"n  c #0E7728",
"m  c #0E7A29",
"M  c #107B29",
"N  c #19792A",
"B  c #2B6D26",
"V  c #3A6625",
"C  c #217629",
"Z  c #28772A",
"A  c #4B4318",
"S  c #554219",
"D  c #66441E",
"F  c #74431F",
"G  c #7A521F",
"H  c #594C3A",
"J  c #6B4623",
"K  c #6E4D2E",
"L  c #734120",
"P  c #764B28",
"I  c #775528",
"U  c #7E5030",
"Y  c #456D25",
"T  c #567A25",
"R  c #726E31",
"E  c #11354C",
"W  c #3D5049",
"Q  c #336644",
"!  c #2C4A69",
"~  c #354E6A",
"^  c #335373",
"/  c #4E4B4E",
"(  c #5E5E5D",
")  c #685844",
"_  c #69504C",
"`  c #537056",
"'  c #62635D",
"]  c #717477",
"[  c #8F7715",
"{  c #85572D",
"}  c #885D39",
"|  c #936B37",
" . c #976C39",
".. c #A37C2F",
"X. c #A77B3C",
"o. c #8A6443",
"O. c #926F50",
"+. c #9A7455",
"@. c #A47B41",
"#. c #A77D45",
"$. c #A17C5A",
"%. c #94786C",
"&. c #198229",
"*. c #1C8030",
"=. c #2C8F2C",
"-. c #368726",
";. c #2E9129",
":. c #2D992D",
">. c #3A9625",
",. c #319529",
"<. c #349D2B",
"1. c #3A9D29",
"2. c #328839",
"3. c #2E9232",
"4. c #32A42D",
"5. c #3DA129",
"6. c #35AC2C",
"7. c #37B22C",
"8. c #3AA732",
"9. c #709E1F",
"0. c #4D8E29",
"q. c #6E902E",
"w. c #41A429",
"e. c #52A12C",
"r. c #5BA52C",
"t. c #4BBB37",
"y. c #4FBF39",
"u. c #64AF26",
"i. c #65B026",
"p. c #6D9865",
"a. c #73A273",
"s. c #A49113",
"d. c #82B31A",
"f. c #9B8A29",
"g. c #96823D",
"h. c #AB853D",
"j. c #AB883F",
"k. c #B29533",
"l. c #B79739",
"z. c #BAA72E",
"x. c #C4B512",
"c. c #C0973F",
"v. c #CDB72A",
"b. c #C7AF31",
"n. c #D9CB1B",
"m. c #D6D111",
"M. c #E4D818",
"N. c #DCE80E",
"B. c #E2F105",
"V. c #F7F507",
"C. c #FEFE01",
"Z. c #F4F00C",
"A. c #FAF909",
"S. c #EDE515",
"D. c #F3EA19",
"F. c #D5C424",
"G. c #D7C625",
"H. c #D9D022",
"J. c #E8D12D",
"K. c #EBD52C",
"L. c #EDD532",
"P. c #F4E52A",
"I. c #928A54",
"U. c #AA8247",
"Y. c #B48946",
"T. c #B7944D",
"R. c #AB865B",
"E. c #9D8069",
"W. c #AB8C6B",
"Q. c #B18E69",
"!. c #B99464",
"~. c #B99772",
"^. c #B8A57A",
"/. c #B9A97B",
"(. c #C8994A",
"). c #CA9F5E",
"_. c #CCA94D",
"`. c #D6A84D",
"'. c #D8A750",
"]. c #DDAC51",
"[. c #E1B74A",
"{. c #C29E73",
"}. c #C7A57A",
"|. c #D0AE7F",
" X c #E4B76B",
".X c #E6C14C",
"XX c #2A4F9B",
"oX c #2E519C",
"OX c #365497",
"+X c #395BA2",
"@X c #404E82",
"#X c #6077AE",
"$X c #7A85A8",
"%X c #7C8EBE",
"&X c #0592C8",
"*X c #3AABD6",
"=X c #04B7F9",
"-X c #6CC4F9",
";X c #8A8A8A",
":X c #AFAC9B",
">X c #989BAC",
",X c #A7A9AE",
"<X c #ACB5B9",
"1X c #D0AE84",
"2X c #CEB088",
"3X c #D0B184",
"4X c #D5B48B",
"5X c #DABA93",
"6X c #DDC19A",
"7X c #E5C79A",
"8X c #E3C59C",
"9X c #F1D19D",
"0X c #C8C1BF",
"qX c #E8CAA1",
"wX c #ECD2AA",
"eX c #F2D6AE",
"rX c #E9D7BA",
"tX c #F5DBB2",
"yX c #FAE2BA",
"uX c #FEE5BC",
"iX c #A7B3CC",
"pX c #85D1C3",
"aX c #DDD6D3",
"sX c #E6DACF",
"dX c #DAE5DC",
"fX c #FEE9C7",
"gX c #FFEFD6",
"hX c #EDEFEB",
"jX c #FDF5E8",
"kX c #FDFEFE",
/* pixels */
":.:.:.:.:.:.:.:.:.:.:.:.:.:.:.:.:.:.:.:.:.:.o % M M M M M M M M M M o o :.:.:.:.:.:.:.:.:.:.:.:.:.:.:.:.:.:.:.:.:.:.",
":.:.:.:.:.:.:.:.:.:.:.:.:.:.:.:.:.:.:.:.:.:.  o n m m m m m m m m n     :.:.:.:.:.:.:.:.:.:.:.:.:.:.:.:.:.:.:.:.:.:.",
":.:.:.:.:.:.:.:.:.:.:.:.:.:.:.:.:.:.:.:.:.x d j ,.,.,.,.,.,.,.,.,.;.d d :.:.:.:.:.:.:.:.:.:.:.:.:.:.:.:.:.:.:.:.:.:.",
":.:.:.:.:.:.:.:.:.:.:.:.:.:.:.:.:.:.:.    d M &.w.w.w.w.w.w.w.w.w.5.M M s     :.:.:.:.:.:.:.:.:.:.:.:.:.:.:.:.:.:.:.",
":.:.:.:.:.:.:.:.:.:.:.:.:.:.:.:.:.:.:.. o z M &.1.1.1.1.1.1.1.1.1.1.M M s o % :.:.:.:.:.:.:.:.:.:.:.:.:.:.:.:.:.:.:.",
":.:.:.:.:.:.:.:.:.:.:.:.:.:.:.:.:.:.:.b b n M M &.&.&.&.&.&.&.&.&.&.M M n b v :.:.:.:.:.:.:.:.:.:.:.:.:.:.:.:.:.:.:.",
":.:.:.:.:.:.:.:.:.:.:.:.:.:.:.:.:.  % M M M m M M M M M M M M M M M m m M M b %   :.:.:.:.:.:.:.:.:.:.:.:.:.:.:.:.:.",
":.:.:.:.:.:.:.:.:.:.:.:.:.:.:.:.:.d j ;.;.;.;.;.;.;.;.;.;.;.;.;.;.;.;.;.;.;.=.d d :.:.4.6.6.6.:.:.:.:.6.6.6.4.:.:.:.",
":.:.:.:.:.:.:.:.:.:.:.:.:.:.    d m &.w.w.w.w.w.w.w.w.w.w.w.w.w.w.w.w.w.w.w.5.&.M d   4.7.7.7.:.:.:.:.7.7.7.4.:.:.:.",
":.:.:.:.:.:.:.:.:.:.:.:.:.:.% % j &.=.e.e.r.u.u.u.i.r.e.e.u.i.i.u.u.e.e.e.r.r.-.Z g % 4.7.7.7.:.:.:.:.7.7.7.4.:.:.:.",
":.:.:.:.:.:.:.:.:.:.:.:., x v v =.1.e.g.g.n.B.B.B.B.z.g.k.N.B.B.B.N.g.g.T._._.g. .R v v < , 6.4.:.:.4.6.6.6.4.:.:.:.",
":.:.:.:.:.:.:.:.:.:.:.:.  = n M ,.w.r.@.@.M.C.C.C.C.b.@.l.Z.C.C.C.A.h.@.(.].'.U.@.R N b %   :.6.7.7.6.:.:.:.:.:.:.:.",
":.:.:.:.:.:.:.:.:.:.:.:.  = n N 0.q.q.@.@.M.C.V.n.n.l.@.j.F.n.S.C.A.v.v.b.(.(.v.v.f.Y c *   :.6.7.7.6.:.:.:.:.:.:.:.",
":.:.:.:.:.:.:.:.:.:.:.:.  = n C R @.@.@.@.M.C.S.U.@.@.@.@.@.@.F.C.C.C.C.F.@.h.A.C.x.F 0 #   :.6.7.7.7.:.:.:.:.:.:.:.",
":.:.:.:.:.:.:.4.4.4.4.:.  = n N R @.@.@.@.M.C.S.h.@.@.@.@.@.@.F.C.C.C.C.F.@.h.Z.C.x.F 0 #   6.4.4.4.4.4.4.4.4.:.:.:.",
":.:.:.:.:.:.:.R.~.5X4Xo.0 F J G m.A.A.A.A.b.j.z.Z.A.A.A.A.A.A.F.j.l.V.C.K.'.[.A.C.L.'.(.{ F O.5X5X!.R.7.7.7.4.:.:.:.",
":.:.:.:.:.:.R.X.!.4X1Xo.q q q G m.C.C.C.C.b.@.l.A.C.C.C.C.C.C.F.@.j.V.C.K.].[.A.C.L.].`.{ L O.4X4XR.X.^.7.7.4.:.:.:.",
":.:.:.:.:.:.+.} Q.qX8X}.~.Q.X.h.M.C.A.F.F._.!.).F.F.K.K.P.C.C.F.@.U.F.F.H.L.J.F.F.J.L.J...{ R.qXqX#.} ~.7.7.4.:.:.:.",
":.:.:.:.:.:.} q W.uXuXuXuX9X].].P.C.D.@.@.}.4X}.U.X.(.]..XA.C.F.@.@.@.@.F.C.V.l.@.F.A.Z.l.@.}.uXuXo.q E.:.:.:.:.:.:.",
":.:.:.:.:.:.:.U W.eXeXyXyX9X].].P.A.D.U.U.}.4X}.U.#.(.'.[.Z.A.F.j.h.h.j.F.C.V.l.#.v.Z.S.l.U.{.eXeXO.U :.:.:.:.:.:.:.",
":.:.:.:.:.:.:.:.:.+.+.4X6X|.Y.Y.`..X.XwXwX5X4X4X|.1X!.Y.T.[..XJ.S.S.S.S.Z.C.A.`.`.l.[ ..{.|.~.+.+.a.:.:.:.:.:.:.:.:.",
":.:.:.:.:.:.:.:.:.P L }.4X}.#.@.(.]. XuXuX8X4X4X4X4X!.@.Y.'.].L.C.C.C.C.C.C.A.[.].h.L U {.4X~.q P :.:.:.:.:.:.:.:.:.",
":.:.:.:.:.:.:.:.:.:.:.<X<X:Xb.b.c.(.).eXeXqX8X8X4X4XR. .X.(.(.J.P.P.P.P.P.P.P.`.(.h.{ o.,X<X>X2 y :.:.:.:.:.:.:.:.:.",
":.:.:.:.:.:.:.:.:.:.:.-X=XpXV.V.s.i } 4X4XeXuXtX4X4X+.L P X.@.(.].].].].].].'.U.@.@.@.I.*X=X&X  :.:.:.:.:.:.:.:.:.:.",
":.:.:.:.:.:.:.:.:.:.:.-X=XpXV.V.s.L } 1X1XwXyXeX4X4X$.P {  .@.(.'.'.'.'.'.'.`.#.X.X.j.I.*X=X&X  :.:.:.:.:.:.:.:.:.:.",
":.:.:.:.:.:.:.:.:.:.:.:.E I.V.V.z. .} e e o.+.W.4X4X}.~.Q.{ {  .Y.Y.Y.Y.U 6 6 U { z.M.H.p.( /   :.:.:.6.6.6.4.:.:.:.",
":.:.:.:.:.:.:.:.:.:.:.:.  s.V.A.b.@.|     5 q } 4X4X4X4X}.{ L } @.@.@.@.S     0 i x.C.V.[ q 7   :.:.:.7.7.7.4.:.:.:.",
":.:.:.:.:.:.:.:.:.:.:.:.  [ S.D.l. .| ( ( / _ _ ~.~.4X8X4XO.o.|  . .O.O.' ( ( P i z.D.M.[ 7 t :.:.:.:.7.7.7.4.:.:.:.",
":.:.:.:.:.:.:.:.:.:.:.:.  I '.'. .q %.kXkX%XoX@XJ 8 6XuXtX5X4XR.q K OXXXiXkXhXO.q X.'.(.6   :.:.:.:.:.7.7.7.4.:.:.:.",
":.:.:.4.7.7.7.:.:.:.:.7.  I '.'. .L %.kXkX%XoX@Xy 8 6XuXtX5X3XR.8 y OXoXiXkXhXO.q X.].(.6   :.6.7.7.6.:.:.:.4.7.7.7.",
":.:.:.4.7.7.7.:.:.:.:.7.7.7.r 6 ; # ) fXfX$XoX#XaXsXfXuXuXtXtXsXsXaX+XXX,XfXrX) # ; 6 H :.:.:.6.7.7.6.:.:.:.4.7.7.7.",
":.:.:.4.7.7.7.:.:.:.:.7.7.7.        ) uXuX$XXX#XkXkXgXuXuXuXuXjXkXkX+XXX>XuXwXH       1 :.:.:.6.7.7.6.:.:.:.4.7.7.7.",
":.:.:.4.4.4.4.4.4.4.4.4.4.4.4.:.:.  H 8X7X>X$X>XjXjXfXuXuXuXuXgXjXjX$X$X:X7X2Xe   :.:.:.:.:.:.4.4.4.4.:.:.:.4.4.4.4.",
":.:.:.:.:.:.:.6.7.7.6.:.:.:.:.:.:.  4 U.U.8XyXyXuXfXuXuXuXuXuXuXfXfXyXyX3XU.@.-   :.:.:.:.:.:.:.:.:.:.:.:.:.:.:.:.:.",
":.:.:.:.:.:.:.6.7.7.7.:.:.:.:.:.:.  ; @.X.7XyXuXuXuXuXuXuXuXuXuXuXuXyXuX|.@.| -   :.:.:.:.:.:.:.:.:.:.:.:.:.:.:.:.:.",
":.:.:.:.:.:.:.6.7.7.7.:.:.:.:.:.Q h V { { $.W.~.8X8X8X8X8X8X8X8X8X8XQ.W.+.{ I B h :.:.:.:.:.:.:.:.:.:.:.:.:.:.:.:.:.",
":.:.:.4.6.6.6.4.<.<.4.6.6.p.. . d M B L L L F } 4X4X4X4X4X4X4X4X4X1XP L L L J Z M d   1 :.:.:.:.:.:.:.:.:.:.:.:.:.:.",
":.:.:.4.7.7.7.:.:.:.:.7.7.7.+ $ ` a.p.9 D J J R ^././././././././.^.K J D D D a.a.` > 1 :.:.:.:.:.:.:.:.:.:.:.:.:.:.",
":.:.:.4.7.7.7.:.:.+ . . . $ 4 t <XhXdX& a v N N N *.*.*.*.*.*.*.*.N N N f a g dXhX<X~ ! :       , :.:.:.:.:.:.:.:.:.",
":.:.:.4.6.6.6.:.:.+       $ w t 0XkXdX& a v m m M M M M M M M M M M M M d a f hXkXiX^ ! :       + <.<.:.:.:.:.:.:.:.",
":.:.:.:.:.:.:.:.:.3 3 3 3 e W / ] ;X] A A B m m m m M M m M M M M M M M c A A ] ;X] ^ ~ e 3 3 3 3 y.t.:.:.:.:.:.:.:.",
":.:.:.:.:.:.+   @ L L L L _ ^ ! :   X L L V m M m m m M m M M M M M M m Y F 0 X   E ^ ~ K L L L L X   :.:.:.:.:.:.:.",
":.:.:.:.:.:.,   ; U U U U _ ~ ! > . # P P V C C C N -.0.0.0.0.-.C C C C Y P D O . E ! ~ K U U U U O   :.:.:.:.:.:.:.",
":.:.:.:.:.:.,   H 4X4X4X4XW.. . & p f w.w.I F F L u m.C.C.C.C.x.i L L F T w.1.f p &   - W.4X4X4X4X<   :.:.:.:.:.:.:.",
":.:.:.:.:.:.+   H 4X4X4X4XW.    & p f w.w.I i i L u m.C.C.C.C.x.i L i i T w.1.f p %   $ W.4X4X4X4X;   :.:.:.:.:.:.:.",
":.:.:.:.:.:.:.:.:.) ) ) ) :.:.:.:.o a w.w.0.0.T V V 9.d.d.d.d.q.V V T T 0.w.>.* o :.:.2.` ) ) ) ) 7.6.:.:.:.:.:.:.:.",
":.:.:.:.:.:.:.:.:.+       :.:.:.:.  = w.w.w.w.1.M M M M M M M M M M 5.w.w.w.>.&   :.:.2.Q       g 7.6.:.:.:.:.:.:.:.",
":.:.:.8.t.t.t.4.:.:.:.:.:.:.:.:.:.  * -.-.>.>.;.&.&.&.&.&.&.&.&.&.&.1.1.>.-.l %   :.:.:.3.3.3.:.:.:.:.:.:.:.:.:.:.:.",
":.:.:.8.y.y.y.4.:.:.:.:.:.:.:.:.:.  . % % a f j 1.5.5.5.5.5.5.5.5.1.&.&.f % % .   , :.:.:.:.:.:.:.:.:.:.:.:.:.:.:.:.",
":.:.:.8.y.y.y.4.:.:.:.:.:.:.:.:.:.        % p f w.w.w.w.w.w.w.w.w.5.M M s             :.:.:.:.:.:.:.:.:.:.:.:.:.:.:.",
"3.3.3.8.t.t.t.4.:.:.:.:.:.:.:.:.:.:.:.    ; S A k k k k k k k l Y Y c c 6 5 5 5 5 @   :.:.:.:.:.:.:.:.:.:.:.:.:.:.:.",
"Q Q Q 2.7.7.7.<.:.:.:.:.:.:.:.:.:.:.:.    5 L 7 X             $ w w w w r L L L L 3   :.:.:.:.:.:.:.:.:.:.:.:.:.:.:.",
"Q Q Q 2.7.7.7.:.:.:.:.:.:.:.:.:.:.:.:.:.:.r 0 7 :.:.:.:.:.7.7.1 4 4 w w y L L 0 0 t :.:.:.:.:.:.:.:.:.:.:.:.:.:.:.:.",
"Q Q Q 2.7.7.7.:.:.:.:.:.:.:.:.:.:.:.:.:.:.:.X :.:.:.:.:.:.7.7.7.  O 9 y i L 0 # X :.:.:.:.:.:.:.:.:.:.:.:.:.:.:.:.:.",
"2.2.2.3.4.4.4.:.:.:.:.:.:.:.:.:.:.:.:.:.:.:.:.:.:.:.:.:.:.4.4.4.  X 0 L L L 9 #   :.:.:.:.:.:.:.:.:.:.:.:.:.:.:.:.:.",
":.:.:.:.:.:.:.:.:.:.:.:.:.:.:.:.:.:.:.:.:.:.:.:.:.:.:.:.:.:.:.:.:.:.3 3 3 3 3 :.:.:.:.:.:.:.:.:.:.:.:.:.:.:.:.:.:.:.",
":.:.:.:.:.:.:.:.:.:.:.:.:.:.:.:.:.:.:.:.:.:.:.:.:.:.:.:.:.:.:.:.:.:.          :.:.:.:.:.:.:.:.:.:.:.:.:.:.:.:.:.:.:.",
":.:.:.:.:.:.:.:.:.:.:.:.:.:.:.:.:.:.:.:.:.:.:.:.:.:.:.:.:.:.:.:.:.:.:.:.:.:.:.:.:.:.:.:.:.:.:.:.:.:.:.:.:.:.:.:.:.:."
};
