/* XPM */
static char *e65c5def0b9045279b0a995aaaa69002[] = {
/* columns rows colors chars-per-pixel */
"58 58 230 2 ",
"   c #010101",
".  c #060702",
"X  c #180703",
"o  c #021904",
"O  c #1F1609",
"+  c #181415",
"@  c #2F1406",
"#  c #27160A",
"$  c #261713",
"%  c #062808",
"&  c #063504",
"*  c #152E10",
"=  c #053E13",
"-  c #2E2315",
";  c #382814",
":  c #101D2A",
">  c #132330",
",  c #252726",
"<  c #2E3426",
"1  c #353335",
"2  c #5B2D05",
"3  c #4B2A15",
"4  c #46281B",
"5  c #532E15",
"6  c #4A3819",
"7  c #593519",
"8  c #6D3508",
"9  c #663B1C",
"0  c #6B3C1D",
"q  c #713E1C",
"w  c #4A2920",
"e  c #48372D",
"r  c #563721",
"t  c #563D34",
"y  c #6A3B24",
"u  c #703520",
"i  c #723D20",
"p  c #0C420D",
"a  c #13430E",
"s  c #084617",
"d  c #08571B",
"f  c #175615",
"g  c #21541C",
"h  c #08641F",
"j  c #15621C",
"k  c #2B731A",
"l  c #34781F",
"z  c #0C5E20",
"x  c #274C2B",
"c  c #365C23",
"v  c #126822",
"b  c #0F7326",
"n  c #0E7728",
"m  c #0E7A29",
"M  c #107B29",
"N  c #19792A",
"B  c #2B6D26",
"V  c #3A6625",
"C  c #217629",
"Z  c #28772A",
"A  c #4B4318",
"S  c #554219",
"D  c #66441E",
"F  c #74431F",
"G  c #7A521F",
"H  c #594C3A",
"J  c #6B4623",
"K  c #6E4D2E",
"L  c #734120",
"P  c #764B28",
"I  c #775528",
"U  c #7E5030",
"Y  c #456D25",
"T  c #567A25",
"R  c #726E31",
"E  c #11354C",
"W  c #3D5049",
"Q  c #336644",
"!  c #2C4A69",
"~  c #354E6A",
"^  c #335373",
"/  c #4E4B4E",
"(  c #5E5E5D",
")  c #685844",
"_  c #69504C",
"`  c #54765B",
"'  c #62635D",
"]  c #717477",
"[  c #8F7715",
"{  c #85572D",
"}  c #885D39",
"|  c #936B37",
" . c #976C39",
".. c #A37C2F",
"X. c #A77B3C",
"o. c #8A6443",
"O. c #926F50",
"+. c #9A7455",
"@. c #A47B41",
"#. c #A77D45",
"$. c #A17C5A",
"%. c #94786C",
"&. c #198229",
"*. c #1C8030",
"=. c #2C8F2C",
"-. c #368726",
";. c #2E9129",
":. c #2D992D",
">. c #3A9625",
",. c #319529",
"<. c #349D2B",
"1. c #3A9D29",
"2. c #328839",
"3. c #2E9232",
"4. c #32A42D",
"5. c #3DA129",
"6. c #35AC2C",
"7. c #37B22C",
"8. c #3AA732",
"9. c #709E1F",
"0. c #4D8E29",
"q. c #6E902E",
"w. c #41A429",
"e. c #52A12C",
"r. c #5BA52C",
"t. c #4BBB37",
"y. c #4FBF39",
"u. c #64AF26",
"i. c #65B026",
"p. c #67925D",
"a. c #73A273",
"s. c #A49113",
"d. c #82B31A",
"f. c #9B8A29",
"g. c #96823D",
"h. c #AB853D",
"j. c #AB883F",
"k. c #B29533",
"l. c #B79739",
"z. c #BAA72E",
"x. c #C4B512",
"c. c #C0973F",
"v. c #CDB72A",
"b. c #C7AF31",
"n. c #D9CB1B",
"m. c #D6D111",
"M. c #E4D818",
"N. c #DCE80E",
"B. c #E2F105",
"V. c #F7F507",
"C. c #FEFE01",
"Z. c #F4F00C",
"A. c #FAF909",
"S. c #EDE515",
"D. c #F3EA19",
"F. c #D5C424",
"G. c #D7C625",
"H. c #D9D022",
"J. c #E8D12D",
"K. c #EBD52C",
"L. c #EDD532",
"P. c #F4E52A",
"I. c #928A54",
"U. c #AA8247",
"Y. c #B48946",
"T. c #B7944D",
"R. c #AB865B",
"E. c #9D8069",
"W. c #AB8C6B",
"Q. c #B18E69",
"!. c #B99464",
"~. c #B99772",
"^. c #B8A57A",
"/. c #B9A97B",
"(. c #C8994A",
"). c #CA9F5E",
"_. c #CCA94D",
"`. c #D6A84D",
"'. c #D8A750",
"]. c #DDAC51",
"[. c #E1B74A",
"{. c #C29E73",
"}. c #C7A57A",
"|. c #D0AE7F",
" X c #E4B76B",
".X c #E6C14C",
"XX c #2A4F9B",
"oX c #2E519C",
"OX c #365497",
"+X c #395BA2",
"@X c #404E82",
"#X c #6077AE",
"$X c #7A85A8",
"%X c #7C8EBE",
"&X c #0592C8",
"*X c #3AABD6",
"=X c #04B7F9",
"-X c #6CC4F9",
";X c #8A8A8A",
":X c #AFAC9B",
">X c #989BAC",
",X c #A7A9AE",
"<X c #ACB5B9",
"1X c #D0AE84",
"2X c #CEB088",
"3X c #D0B184",
"4X c #D5B48B",
"5X c #DABA93",
"6X c #DDC19A",
"7X c #E5C79A",
"8X c #E3C59C",
"9X c #F1D19D",
"0X c #C8C1BF",
"qX c #E8CAA1",
"wX c #ECD2AA",
"eX c #F2D6AE",
"rX c #E9D7BA",
"tX c #F5DBB2",
"yX c #FAE2BA",
"uX c #FEE5BC",
"iX c #A7B3CC",
"pX c #85D1C3",
"aX c #DDD6D3",
"sX c #E6DACF",
"dX c #DAE5DC",
"fX c #FEE9C7",
"gX c #FFEFD6",
"hX c #EDEFEB",
"jX c #FDF5E8",
"kX c #FDFEFE",
/* pixels */
":.:.:.:.:.:.:.:.:.:.:.:.:.:.:.:.:.:.:.:.:.:.o o M M M M M M M M M M % o :.:.:.:.:.:.:.:.:.:.:.:.:.:.:.:.:.:.:.:.:.:.",
":.:.:.:.:.:.:.:.:.:.:.:.:.:.:.:.:.:.:.:.:.:.    n m m m m m m m m n o   :.:.:.:.:.:.:.:.:.:.:.:.:.:.:.:.:.:.:.:.:.:.",
":.:.:.:.:.:.:.:.:.:.:.:.:.:.:.:.:.:.:.:.:.:.d d ;.,.,.,.,.,.,.,.,.,.j d x :.:.:.:.:.:.:.:.:.:.:.:.:.:.:.:.:.:.:.:.:.",
":.:.:.:.:.:.:.:.:.:.:.:.:.:.:.:.:.:.:.    s M M 5.w.w.w.w.w.w.w.w.5.&.M d     :.:.:.:.:.:.:.:.:.:.:.:.:.:.:.:.:.:.:.",
":.:.:.:.:.:.:.:.:.:.:.:.:.:.:.:.:.:.:.% o s M M 1.1.1.1.1.1.1.1.1.1.&.M z o . :.:.:.:.:.:.:.:.:.:.:.:.:.:.:.:.:.:.:.",
":.:.:.:.:.:.:.:.:.:.:.:.:.:.:.:.:.:.:.v b n M M &.&.&.&.&.&.&.&.&.&.M M n b b :.:.:.:.:.:.:.:.:.:.:.:.:.:.:.:.:.:.:.",
":.:.:.:.:.:.:.:.:.:.:.:.:.:.:.:.:.  % b M M M M M M M M M M M M m M M M m M m %   :.:.:.:.:.:.:.:.:.:.:.:.:.:.:.:.:.",
":.:.:.:.:.:.:.:.:.:.:.:.:.:.:.:.:.d d =.;.;.;.;.;.;.;.;.;.;.;.;.;.;.;.;.;.;.;.j d :.:.4.6.6.6.:.:.:.:.6.6.6.4.:.:.:.",
":.:.:.:.:.:.:.:.:.:.:.:.:.:.:.  d m &.5.w.w.w.w.w.w.w.w.w.w.w.w.w.w.w.w.w.w.w.&.M d     7.7.7.:.:.:.:.7.7.7.4.:.:.:.",
":.:.:.:.:.:.:.:.:.:.:.:.:.:.:.o g Z -.r.r.e.e.e.u.u.u.u.u.e.e.r.i.u.u.u.r.e.e.=.&.j % % 7.7.7.:.:.:.:.7.7.7.4.:.:.:.",
":.:.:.:.:.:.:.:.:.:.:.:., < v v R | g._._.T.g.g.N.B.B.B.N.k.g.z.B.B.B.B.n.g.g.e.1.;.v v x , 6.4.:.:.4.6.6.6.4.:.:.:.",
":.:.:.:.:.:.:.:.:.:.:.:.  % b M R @.U.'.].(.@.h.A.C.C.C.Z.l.@.b.C.C.C.C.M.@.@.r.w.,.N n =   :.6.7.7.6.:.:.:.:.:.:.:.",
":.:.:.:.:.:.:.:.:.:.:.:.  * c Y f.v.v.(.(.b.v.v.C.C.S.n.F.j.@.l.n.n.V.C.M.@.@.q.q.0.N n =   :.6.7.7.7.:.:.:.:.:.:.:.",
":.:.:.:.:.:.:.:.:.:.:.:.  # 0 F x.C.A.h.@.F.C.C.C.C.F.@.@.@.@.@.@.U.S.C.M.@.@.@.@.R C n =   :.6.7.7.7.:.:.:.:.:.:.:.",
":.:.:.:.:.:.:.4.6.6.4.:.  # 0 F x.C.A.h.@.v.C.C.C.C.F.@.@.@.@.@.@.h.S.C.M.@.@.@.@.R N n =   6.4.4.4.4.6.6.6.4.:.:.:.",
":.:.:.:.:.:.:.R.Q.5X5XO.0 { (.'.L.C.A.[.].K.C.V.l.h.F.A.A.A.A.A.A.A.z.h.b.A.A.A.A.m.G J F 0 o.4X5X~.R.7.7.7.4.:.:.:.",
":.:.:.:.:.:.^.X.R.4X4XO.L { `.].L.C.A.[.].K.C.C.j.@.F.C.C.C.C.C.C.C.l.@.b.C.C.C.C.m.G q q q o.1X4X!.X.R.7.7.4.:.:.:.",
":.:.:.:.:.:.~.} #.qXqXR.} ..J.L.J.F.F.J.L.J.F.F.h.@.F.C.C.P.K.K.F.F.).!._.F.F.V.C.M.X.X.Q.~.}.qXqXQ.} +.7.7.4.:.:.:.",
":.:.:.:.:.:.E.q o.yXuX}.@.l.Z.C.F.@.l.V.C.F.@.@.@.@.F.C.A..X].(.@.U.}.4X}.@.@.D.C.P.].].9XuXuXuXuXW.q } :.:.:.:.:.:.",
":.:.:.:.:.:.:.U O.eXtX{.U.l.S.Z.v.#.Y.V.C.F.h.h.h.h.F.V.Z.[.].(.#.U.}.4X}.U.U.D.C.P.].].9XyXyXeXeXW.U :.:.:.:.:.:.:.",
":.:.:.:.:.:.:.:.a.+.+.~.}.~.f.[ l.`.`.A.C.Z.S.S.S.S.J..X[.T.Y.!.|.|.3X4X5XwXwX.X.X`.Y.Y.|.6X4X+.+.:.:.:.:.:.:.:.:.:.",
":.:.:.:.:.:.:.:.:.P q ~.4X{.U L h.].[.A.C.C.C.C.C.C.L.].'.Y.@.!.4X4X4X4X8XuXuX X].(.#.#.}.4X}.L P :.:.:.:.:.:.:.:.:.",
":.:.:.:.:.:.:.:.:.y 2 >X<X,Xo.{ U.(._.P.P.P.P.P.P.P.J.(.(.X. .R.4X4X8X8XqXeXeX).(.c.b.b.:X<X<X:.:.:.:.:.:.:.:.:.:.:.",
":.:.:.:.:.:.:.:.:.:.  &X=X*XE.@.@.@.U.'.].].].].].].(.@.X.P L +.4X4XtXuXeX4X4X} i s.V.V.pX=X-X:.:.:.:.:.:.:.:.:.:.:.",
":.:.:.:.:.:.:.:.:.:.  &X=X*XI.h.X.@.#.`.'.'.].].].].(.@. .{ P $.4X4XeXyXwX1X1X} L s.V.V.pX=X-X:.:.:.:.:.:.:.:.:.:.:.",
":.:.:.:.:.:.:.:.:.:.  / ( p.H.M.z.{ U 6 6 I Y.Y.Y.Y. .{ } Q.~.}.4X3XR.+.o.e e } | z.V.V.I.E :.:.:.:.:.6.6.6.4.:.:.:.",
":.:.:.:.:.:.:.:.:.:.  7 q [ V.C.x.i 0     S @.@.@.@.} L { }.4X4X4X3X} q 5      .@.b.A.V.s.  :.:.:.:.:.7.7.7.4.:.:.:.",
":.:.:.:.:.:.:.:.:.:.:.t 7 [ M.D.z.i K ( ( ' O.O. . .| o.O.3X8X4X~.~._ _ / ( ( o. .z.D.S.[   :.:.:.:.:.7.7.7.4.:.:.:.",
":.:.:.:.:.:.:.:.:.:.:.:.  6 (.].X.q O.hXkXiXXXOXK q R.4X5XtXuX6X8 J @XoX%XkXkX%.q  .'.`.I   :.:.:.:.:.7.7.7.4.:.:.:.",
":.:.:.4.7.7.7.:.:.:.:.7.  6 (.].X.F O.hXkXiXXXOXy 8 R.3X5XtXuX6X8 y @XoX%XkXkX%.F  .'.'.I   :.6.7.7.6.:.:.:.4.7.7.7.",
":.:.:.4.7.7.7.:.:.:.:.7.7.7.H 6 ; # / rXfX,XXX+XaXsXsXtXtXuXuXfXsXaX#XoX$XfXfX) # ; 6 r :.:.:.6.7.7.6.:.:.:.4.7.7.7.",
":.:.:.4.7.7.7.:.:.:.:.7.7.7.1       H wXuX>XXX+XkXkXjXuXuXuXuXgXkXkX#XXX$XuXuX)         :.:.:.6.7.7.6.:.:.:.4.7.7.7.",
":.:.:.4.6.6.6.4.4.4.4.6.6.6.4.:.:.  e 2X7X:X$X$XjXjXgXuXuXuXuXfXjXjX>X$X>X7X7XH   :.:.:.:.:.:.4.6.6.4.:.:.:.4.6.6.6.",
":.:.:.:.:.:.:.6.7.7.6.:.:.:.:.:.:.  - @.U.3XyXyXfXfXuXuXuXuXuXuXfXfXyXyX6XU.U.4   :.:.:.:.:.:.:.:.:.:.:.:.:.:.:.:.:.",
":.:.:.:.:.:.:.6.7.7.6.:.:.:.:.:.:.  -  .@.|.uXyXyXuXuXuXuXuXuXuXuXuXuXyX8XX.@.;   :.:.:.:.:.:.:.:.:.:.:.:.:.:.:.:.:.",
":.:.:.:.:.:.:.6.7.7.6.:.:.:.:.:.:.h B I { O.W.Q.8X8X8X8X8X8X8X8X8X8X~.W.$.{ { V h Q :.:.:.:.:.:.:.:.:.:.:.:.:.:.:.:.",
":.:.:.4.6.6.6.4.<.<.4.6.6.6.1   d M Z J L L L P 1X4X4X4X4X4X4X4X4X3X} F L L i B M d . . p.:.:.:.:.:.:.:.:.:.:.:.:.:.",
":.:.:.4.7.7.7.:.:.:.:.7.7.7.1 > ` a.a.D D D J K ^././././././././.^.R J J D 9 p.a.` $ + :.:.:.:.:.:.:.:.:.:.:.:.:.:.",
":.:.:.4.7.7.7.:.:.,       : ! ~ <XhXdXg a f N N N *.*.*.*.*.*.*.*.N N N v a & dXhX<Xt 4 $ .     + :.:.:.:.:.:.:.:.:.",
":.:.:.4.6.6.6.:.:.$       : ! ^ iXkXhXf a d M M M M M M M M M M M M M M v a & dXkX0Xt w $       + <.<.:.:.:.:.:.:.:.",
":.:.:.:.:.:.:.:.:.3 3 3 3 e ~ ^ ] ;X] A A c m M m m M M M M M M m m M M B A A ] ;X] / W e 3 3 3 3 y.t.:.:.:.:.:.:.:.",
":.:.:.:.:.:.:.  X L L L L K ~ ^ E   X 0 F Y m M m m m M M M M M m m m M V F L X   : ^ ^ _ L L L L @   + :.:.:.:.:.:.",
":.:.:.:.:.:.:.  O U U U U K ~ ! E . # D J Y C C C N -.0.0.0.0.-.N C C C V G J # . > ! ~ _ U U U U ;   , :.:.:.:.:.:.",
":.:.:.:.:.:.:.  < 3X4X4X4X~.-   % p f 1.w.T q L L i x.C.C.C.C.m.0 F F F R w.w.f p & . . W.4X4X4X3XH   , :.:.:.:.:.:.",
":.:.:.:.:.:.:.  ; 4X4X4X4X~.$   % p f 1.w.T q q i i x.C.C.C.C.m.u L i i R w.w.f p %     W.4X4X4X4XH   + :.:.:.:.:.:.",
":.:.:.:.:.:.:.:.:.) ) ) ) 0.:.:.:.o = >.w.0.T T V V q.d.d.d.d.9.V V T 0.0.w.w.a o :.:.2.Q ) ) ) ) 7.6.:.:.:.:.:.:.:.",
":.:.:.:.:.:.:.:.:.g       :.:.:.:.  & >.w.w.w.5.N M M M M M M M M N 1.w.w.w.w.=   :.:.2.Q       + 7.6.:.:.:.:.:.:.:.",
":.:.:.8.t.t.t.4.:.:.:.:.:.:.:.:.:.  % l -.>.1.1.&.&.&.&.&.&.&.&.&.&.;.>.>.-.-.*   :.:.:.3.3.3.:.:.:.:.:.:.:.:.:.:.:.",
":.:.:.8.y.y.y.4.:.:.:.:.:.:.:.:.,   . % % f N &.1.5.5.5.5.5.5.5.5.1.j f a % % .   :.:.:.:.:.:.:.:.:.:.:.:.:.:.:.:.:.",
":.:.:.8.y.y.y.4.:.:.:.:.:.:.:.            s m M 5.w.w.w.w.w.w.w.w.w.f p %         :.:.:.:.:.:.:.:.:.:.:.:.:.:.:.:.:.",
"3.3.3.8.t.t.t.4.:.:.:.:.:.:.:.  ; 5 5 5 5 6 c c Y Y l k k k k k k k A S ;     :.:.:.:.:.:.:.:.:.:.:.:.:.:.:.:.:.:.:.",
"Q Q Q 2.7.7.7.<.:.:.:.:.:.:.:.  3 L L L L r w w w w $             . 7 L 5     :.:.:.:.:.:.:.:.:.:.:.:.:.:.:.:.:.:.:.",
"Q Q Q 2.7.7.7.:.:.:.:.:.:.:.:.:.t 0 0 L L y w w 4 4 1 :.:.7.7.7.6.:.r 0 r :.:.:.:.:.:.:.:.:.:.:.:.:.:.:.:.:.:.:.:.:.",
"Q Q Q 2.7.7.7.:.:.:.:.:.:.:.:.:.:.. # 0 L i y 9 O   :.:.:.7.7.7.6.:.:.X :.:.:.:.:.:.:.:.:.:.:.:.:.:.:.:.:.:.:.:.:.:.",
"2.2.2.3.4.4.4.:.:.:.:.:.:.:.:.:.:.  # 9 L L L 0 X   :.:.:.4.4.4.4.:.:.:.:.:.:.:.:.:.:.:.:.:.:.:.:.:.:.:.:.:.:.:.:.:.",
":.:.:.:.:.:.:.:.:.:.:.:.:.:.:.:.:.:.:.3 3 3 3 3 :.:.:.:.:.:.:.:.:.:.:.:.:.:.:.:.:.:.:.:.:.:.:.:.:.:.:.:.:.:.:.:.:.:.",
":.:.:.:.:.:.:.:.:.:.:.:.:.:.:.:.:.:.:.          :.:.:.:.:.:.:.:.:.:.:.:.:.:.:.:.:.:.:.:.:.:.:.:.:.:.:.:.:.:.:.:.:.:.",
":.:.:.:.:.:.:.:.:.:.:.:.:.:.:.:.:.:.:.:.:.:.:.:.:.:.:.:.:.:.:.:.:.:.:.:.:.:.:.:.:.:.:.:.:.:.:.:.:.:.:.:.:.:.:.:.:.:."
};
