/* XPM */
static char *_4593eb2ac2c4cb1b30f41256e3504f0[] = {
/* columns rows colors chars-per-pixel */
"58 58 236 2 ",
"   c #000001",
".  c #0B0706",
"X  c #010B02",
"o  c #170907",
"O  c #031604",
"+  c #031B04",
"@  c #041C09",
"#  c #050F16",
"$  c #121313",
"%  c #13131A",
"&  c #1A1A1B",
"*  c #25140C",
"=  c #2F1209",
"-  c #2B1712",
";  c #271C16",
":  c #062808",
">  c #052A0C",
",  c #053608",
"<  c #0B3B0B",
"1  c #073712",
"2  c #103312",
"3  c #2E2818",
"4  c #3C2319",
"5  c #2E302A",
"6  c #343435",
"7  c #36363B",
"8  c #421300",
"9  c #44261D",
"0  c #492918",
"q  c #563118",
"w  c #66391C",
"e  c #6A3B1E",
"r  c #713D1C",
"t  c #4B2920",
"y  c #4D3427",
"u  c #463A2C",
"i  c #693920",
"p  c #723E20",
"a  c #014205",
"s  c #0D430D",
"d  c #114A0F",
"f  c #074816",
"g  c #0D4D14",
"h  c #174813",
"j  c #075717",
"k  c #0E5416",
"l  c #0D5A1B",
"z  c #195916",
"x  c #2E4616",
"c  c #0B611F",
"v  c #05691C",
"b  c #18621A",
"n  c #246918",
"m  c #3B6D1C",
"M  c #28741A",
"N  c #2C7A1D",
"B  c #195A26",
"V  c #265928",
"C  c #324C34",
"Z  c #0C6421",
"A  c #0E6B22",
"S  c #166B25",
"D  c #0F7326",
"F  c #057926",
"G  c #0E7B29",
"H  c #107426",
"J  c #1B7926",
"K  c #107B29",
"L  c #2C6F2D",
"P  c #53500D",
"I  c #69431E",
"U  c #72411F",
"Y  c #7A4E1F",
"T  c #695C17",
"R  c #757210",
"E  c #56462E",
"W  c #575724",
"Q  c #634B24",
"!  c #734121",
"~  c #7A4A26",
"^  c #6D5325",
"/  c #725132",
"(  c #446A26",
")  c #5A722C",
"_  c #6B652F",
"`  c #336644",
"'  c #396042",
"]  c #7D5442",
"[  c #77704F",
"{  c #7D6951",
"}  c #485160",
"|  c #78706B",
" . c #967219",
".. c #845629",
"X. c #865A38",
"o. c #82642E",
"O. c #956B39",
"+. c #9B723D",
"@. c #A77A3A",
"#. c #A67D3E",
"$. c #8D6647",
"%. c #906F51",
"&. c #8B7053",
"*. c #847A56",
"=. c #A47B41",
"-. c #A67C45",
";. c #A07753",
":. c #2F821F",
">. c #168129",
",. c #1C8429",
"<. c #298A27",
"1. c #368425",
"2. c #348C22",
"3. c #2C902B",
"4. c #2D992D",
"5. c #3A9425",
"6. c #399927",
"7. c #349C2B",
"8. c #3B9E29",
"9. c #338838",
"0. c #2E9032",
"q. c #2F9138",
"w. c #3FA325",
"e. c #32A42D",
"r. c #3FA229",
"t. c #35AC2C",
"y. c #37B22C",
"u. c #3AA732",
"i. c #72AB1A",
"p. c #528727",
"a. c #4A9728",
"s. c #698D32",
"d. c #41A429",
"f. c #49A329",
"g. c #55A32D",
"h. c #41AC35",
"j. c #4BBB37",
"k. c #4EBE39",
"l. c #338B43",
"z. c #4C9651",
"x. c #65A765",
"c. c #61A370",
"v. c #8D8A08",
"b. c #B29D18",
"n. c #95AD1E",
"m. c #B2A016",
"M. c #928B38",
"N. c #AC863D",
"B. c #B39431",
"V. c #B79738",
"C. c #B5AF2A",
"Z. c #C2AD11",
"A. c #C5B211",
"S. c #C2A82D",
"D. c #CDB331",
"F. c #92C71D",
"G. c #A9C01C",
"H. c #D0D118",
"J. c #E5DB19",
"K. c #CFE314",
"L. c #ECEA08",
"P. c #F8F604",
"I. c #FEFE01",
"U. c #EDE617",
"Y. c #F3EA19",
"T. c #F5F010",
"R. c #D6C531",
"E. c #E4DA24",
"W. c #ECD536",
"Q. c #F9F623",
"!. c #FBFA36",
"~. c #968753",
"^. c #AD8743",
"/. c #B78B46",
"(. c #BD9849",
"). c #AC8554",
"_. c #B38C56",
"`. c #BFA559",
"'. c #9A8E69",
"]. c #A5926F",
"[. c #B89569",
"{. c #B79873",
"}. c #A8A97E",
"|. c #C18F46",
" X c #C99B4A",
".X c #D5A74B",
"XX c #D0AC4A",
"oX c #D6A550",
"OX c #DDAB52",
"+X c #E1B648",
"@X c #D5BB6E",
"#X c #C5A47B",
"$X c #D9CF58",
"%X c #E8D654",
"&X c #224B9A",
"*X c #38559C",
"=X c #126E95",
"-X c #636898",
";X c #678C91",
":X c #00BCFE",
">X c #3EB3E4",
",X c #52B7EA",
"<X c #928F8F",
"1X c #A99990",
"2X c #BBA98B",
"3X c #ADABA9",
"4X c #CBAD85",
"5X c #CFAF86",
"6X c #C7AC89",
"7X c #D2B187",
"8X c #D5B48B",
"9X c #CDB796",
"0X c #D5BA94",
"qX c #DCBC93",
"wX c #E3BE88",
"eX c #E9D087",
"rX c #E2C49A",
"tX c #D8CBB6",
"yX c #E4CAA4",
"uX c #EBCEA6",
"iX c #ECD1A9",
"pX c #F3D8AB",
"aX c #E3D1B5",
"sX c #F6DDB3",
"dX c #FFEAA1",
"fX c #FEE5BD",
"gX c #CCC7C6",
"hX c #C4C7D8",
"jX c #D5DAD6",
"kX c #EADFC8",
"lX c #FFE9C5",
"zX c #FFEED1",
"xX c #E1E1E1",
"cX c #EFF5F0",
"vX c #F9F8F2",
"bX c #FEFDFC",
/* pixels */
"4.4.4.4.4.4.4.4.4.4.4.4.4.4.4.4.4.4.4.4.4.4.4.4.4.4.4.4.4.4.4.4.4.4.4.4.4.4.4.4.4.4.4.4.4.4.4.4.4.4.4.4.4.4.4.4.4.4.",
"4.4.4.4.4.4.4.4.4.4.4.4.4.4.4.4.4.4.4.4.4.4.4.4.4.4.F G 6.w.w.w.w.M a a v F J I r ..@.#.4.4.4.4.4.4.4.4.4.4.4.4.4.4.",
"4.4.4.4.4.4.4.4.4.4.4.4.4.4.4.4.4.4.4.4.4.4.4.4.4.4.G >.8.d.d.d.d.N s s A K J Q ! ..#.N.4.4.4.4.4.4.4.4.4.4.4.4.4.4.",
"4.4.4.4.4.4.4.4.4.4.4.4.4.4.4.4.4.4.4.4.4.7.h.h.h.z.8.8.d.d.d.d.d.N s s 1.8.a.+.+.B.U.U.%XwXwX4.4.4.4.4.4.4.4.4.4.4.",
"4.4.4.4.4.4.4.4.4.4.4.4.4.4.4.4.4.4.4.4.l.G <.d.d.d.d.d.d.d.d.d.d.N s s 2.d.f.M.=.S.P.I.W.OXOX/.=.[.4.4.4.4.4.4.4.4.",
"4.4.4.4.4.4.4.4.4.4.4.4.4.4.4.4.4.4.4.4.l.,.3.d.d.d.d.d.d.d.d.d.d.N s s 2.d.g.^.^.S.U.Y.W.oX.XV.V.`.4.4.4.4.4.4.4.4.",
"4.4.4.4.4.4.4.4.4.4.4.4.4.4.4.z V L l.q.8.r.r.d.d.d.d.d.d.d.d.d.d.N s s 2.d.g. XoX XN.N.N.^.^.J.P.J.(.).4.4.4.4.4.4.",
"4.4.4.4.4.4.4.4.4.4.4.4.4.4.4., s A G ,.r.d.d.d.d.d.d.d.d.d.d.d.d.N s s 2.d.g.XXOX X-.=.=.-.-.J.I.L.V.=.t.t.e.4.4.4.",
"4.4.4.4.4.4.4.4.4.4.4.4.4.4.4.j l J <.3.r.d.d.d.d.d.d.d.d.d.8.1.:.M n n i.F.F.R.W.D.(././././.D.J.H.D.S.@Xy.e.4.4.4.",
"4.4.4.4.4.4.4.4.4.4.4.4.V h S K K 7.d.d.d.d.d.d.d.d.d.d.d.d.5.d s M d.d.K.I.I.I.I.Y.OXOXOXOXOX/.-.V.T.I.Y.-.-.4.4.4.",
"4.4.4.4.4.4.4.4.4.4.4.4.h s A K K 7.d.d.d.d.d.d.d.d.d.d.d.d.5.s s M d.d.K.I.I.I.I.Y.+XOXOXOXOX/.=.V.T.I.Y.=.#.4.4.4.",
"4.4.4.4.4.4.4.4.4.4.4.4.S A H K K 7.d.d.d.d.5.M M M M N 8.d.5.s s M d.d.C.D.R.P.I.J. X(./.@.@./. XXXT.I.U.....4.4.4.",
"4.4.4.4.4.4.4.4.4.V , j K K K K K 7.d.d.d.d.1.s s s s d 5.d.5.s s M r.d.M.=.N.L.I.J.N.=.O.r ! |.OX+XT.I.L.i r 4.4.4.",
"4.4.4.4.4.4.4.4.4.V s k K K G K K 7.d.r.r.r.1.d d d d z 5.8.5.d d M f.f.M.N.V.U.P.J.^.-.O.~ ~ |.OX+XY.P.J.] ] 4.4.4.",
"4.4.4.4.4.4.4.e.e.V s k K K G K K ,.,.,.,.,.<.2.2.2.2.2.n z n 2.2.s.M.M.R.U.J.S.V. X#X#X#X{.{._.^.N. . .].e.e.4.4.4.",
"4.4.4.4.4.4.4.t.y.V s k K K K K K K K K K G <.d.d.d.d.6.z s z 8.d.s.=.#.E.I.P.B.=._.7X8X8X8X8X_.=.+.~ r y.y.e.4.4.4.",
"4.4.4.4.4.4.4.t.y.V g l K K K K K K K K K K <.7.7.5.2.2.z g b 5.7.s.=.N.E.I.T.(.).[.qXqXqX8X7X;.o.X.&.%.y.y.e.4.4.4.",
"4.4.4.4.4.4.4.' C H H K K K K K K K K K K G K K K b d z H H K K K ) =.N.E.I.Q.@X7XqXfXfXuX8X7XE * u 4.y.y.y.e.4.4.4.",
"4.4.4.4.4.4.4.s g H K K K K K K K K K K G G K K K l s g H K K G G ) =.#.E.I.Q.@X8XrXfXfXiX8X7XE   6 4.4.4.4.4.4.4.4.",
"4.4.4.4.4.4.4.s g H K K K K K K K K K K G G H A A k s s c A n ( ( _ =.#.E.I.Q.eXyX0X9X9X6X{.{.u   6 4.4.4.4.4.4.4.4.",
"4.4.4.4.4.4.4.s g H K K K K K K K K K K K K A s s s s s s s x I ! X.=.#.E.I.!.dXfX2X;   8 r r *   6 4.4.4.4.4.4.4.4.",
"4.4.4.4.4.4.4.s g H K K K K K K K K K K K K A h h h h h h h x I ! X.=.#.E.I.!.dXfX2X5 $ 0 ! ! -   6 4.4.4.4.4.4.4.4.",
"4.4.4.4.4.4.C s g H K D l l f 1 1 k l l l j [ }.}.}.}.}.'.~.*.! U O. X XS.D.XXpXfXaX3X3X<X} } | *.[ 4.4.4.4.4.4.4.4.",
"4.4.4.4.    < s k H K A s s :   X , s s s , ].fXfXfXfXfXqX8X#X~ U @.OXOX/.=.).pXfXzXbXbXhX&X*X1X8X{.u   4.4.4.4.4.4.",
"4.4.4.4.    < s g A H c < < 2 $ $ 2 < < < , '.pXsXfXfXfXrXqX4X~ U @.+X+X/.+.).pXfXzXbXbXhX&X*X1X8X{.u   4.4.4.4.4.4.",
"4.4.4.4.    < s s g k < +   4.4.4.4.O O O O _ [.[.rXfXfXsXsXyX~ p b.Y.Y.b.~ $.iXfXzXbXbXhX&X*X1X8X{.u   t.t.e.4.4.4.",
"4.4.4.4.    < s s s s >     4.4.4.4.        Q =.-.qXfXfXfXfXiX~ p b.I.P.b.p X.uXfXzXbXbXhX&X*X1X8X{.u   y.y.e.4.4.4.",
"4.4.4.4.    < s s < < 5 4.4.4.4.4.4.4.4.$   Q O.+.5XpXpXkXkXtX$.$.C.I.P.b.p X.uXfXzXvXvXhX-X-X<X#X].4.y.y.y.e.4.4.4.",
"4.4.4.4.    < s < X   4.x.4.4.4.4.4.4.4.4.        / -.~.>X:X,X6X5X%XI.P.b.p X.uXfXfXlXlXiX6X6XE   6 4.y.y.y.e.4.4.4.",
"4.4.4.e.    < s <     y.y.y.e.4.4.4.4.4.4.        ^ -.~.,X:X,X9X8X%XI.I.m.r X.uXfXfXfXfXiX8X8Xu   5 t.4.4.4.e.y.y.y.",
"4.4.4.e.y.y.C : 6 4.4.y.y.y.e.4.4.4.4.4.M.v.R ^ ^ Q Q E =X=X;X$X%XR.A.Z.^.;.).rXiXiXiXuX6X&.&.h.y.y.t.4.4.4.e.y.y.y.",
"4.4.4.e.y.y.y.  4.4.4.y.y.y.e.4.4.4.4.4.!.I.W.OXoXQ . . # # R L.I.Z.Y ~ {.7X7X8X8X8X8X8X'.  ; t.y.y.t.4.4.4.e.y.y.y.",
"4.4.4.e.e.e.e.e.e.e.e.e.e.e.e.4.4.4.4.4.!.P.W..X.XQ         R L.I.Z.U ! [.5X4X4X4X4X4X4X'.  $ e.e.e.e.4.4.4.e.e.e.e.",
"4.4.4.4.4.4.4.t.y.y.t.4.4.4.4.4.4.4.4.4.M.v.v.o.o.3 , : X   T R.W.M.0 0 [ *.*.*.[ [ { { 4.4.4.4.4.4.4.4.4.4.4.4.4.4.",
"4.4.4.4.4.4.4.t.y.y.y.4.4.4.4.4.4.4.4.4.7         : s < O   Q  XOXo..   , a a a a :     4.4.4.4.4.4.4.4.4.4.4.4.4.4.",
"4.4.4.4.4.4.4.t.y.y.y.4.4.4.4.4.4.4.4.4.4.6 5     : s < : O Q  XOXo..   , s s s s , + X 4.4.4.4.4.4.4.4.4.4.4.4.4.4.",
"4.4.4.e.t.t.t.e.7.7.e.t.t.t.e.4.4.4.4.4.4.4.4.    : s s Z A S 1.1.h X   l D D D D D A A V 4.4.4.4.4.4.4.4.4.4.4.4.4.",
"4.4.4.e.y.y.y.4.4.4.4.y.y.y.e.4.4.4.4.4.4.4.4.    > s g A F F F F f X   c K K K K K K K j   % 4.4.4.4.4.4.4.4.4.4.4.",
"4.4.4.e.y.y.y.4.4.4.4.y.y.y.e.4.4.4.4.4.4.4.4.    : , < z.c.c.c.c.' X   c K K K K K K K m P P 4.4.4.4.4.4.4.4.4.4.4.",
"4.4.4.e.t.t.t.4.4.4.4.t.t.t.e.4.4.4.4.4.4.4.4.    X X @ jXcXcXcXcX<X$   c K K K K K K F n.P.L._ 6 7.7.4.4.4.4.4.4.4.",
"4.4.4.4.4.4.4.4.4.4.4.4.4.4.4.4.4.4.4.4.4.4.4.        . xXbXbXbXbX<X$   c K K K K K K F G.I.I.P   6 j.4.4.4.4.4.4.4.",
"4.4.4.4.4.4.4.4.4.4.4.4.4.4.4.4.4.4.4.4.4.4.4.a f @   . 3XgXgXgXgX| .   c K K K G J ( ( n.H.H.P   5 j.4.4.4.4.4.4.4.",
"4.4.4.4.4.4.4.4.4.4.4.4.4.4.4.4.4.4.4.4.4.  a K K 1   . = 8 8 8 8 *     c K K K G L ! ! W F F >               4.4.4.",
"4.4.4.4.4.4.4.4.4.4.4.4.4.4.4.4.4.4.4.4.4.  f K G 1   . 9 t t t t -     c K K K G L ! ! W F G >               4.4.4.",
"4.4.4.4.4.4.4.4.4.4.4.4.4.4.4.4.4.4.4.4.B l f > 1 3 q q w i i t t -     P W W W W W p.p.1.G G >   . 0 q 0     4.4.4.",
"4.4.4.4.4.4.4.4.4.4.4.4.4.4.4.4.4.4.  @ H K l     0 ! U U U e t t -     q U U ! ! _ a.d.3.G G >   o w ! w     4.4.4.",
"4.4.4.4.4.4.4.4.4.4.4.4.4.4.4.4.4.4.  @ H K c     y X.X.X.X./ 9 9 ; @ @ P ^ ^ ^ ^ ) a.d.2.A A > . * w ! w     4.4.4.",
"4.4.4.u.j.j.j.e.4.4.4.4.4.4.4.4.4.4.  @ D K c   . { #X#XrXyX9X. o 2 Z A 1.a.a.a.a.a.d.d.N : > ; 4 9 e ! w     4.4.4.",
"4.4.4.u.k.k.k.e.4.4.4.4.4.4.4.4.4.4.  @ D K c   o *.8XqXsXfXyX    1 K K 7.d.d.d.d.d.d.d.N     4 t t p ! w     4.4.4.",
"4.4.4.u.k.k.k.e.4.4.4.4.4.4.4.4.4.4.4.4.S A j   . { #X6XyXiX9X    1 A D 3.8.8.8.8.6.5.5.M o o 4 t 0 w e / 4.4.4.4.4.",
"0.0.0.u.j.j.j.e.4.4.4.4.4.4.4.4.4.4.4.4.4.                              c G G G G l X   - t t t t 4 .   4.4.4.4.4.4.",
"` ` ` 9.y.y.y.7.4.4.4.4.4.4.4.4.4.4.4.4.4.                              Z K K K K l     = t t t t 4     4.4.4.4.4.4.",
"` ` ` 9.y.y.y.4.4.4.4.4.4.4.4.4.4.4.4.4.4.  o - - - - * .               1 f f f f C 4.4.4.* - - - 5 4.4.4.4.4.4.4.4.",
"` ` ` 9.y.y.y.4.4.4.4.4.4.4.4.4.4.4.4.4.4.  - 9 9 9 9 9 o               X X X X   4.4.4.4.        3.4.4.4.4.4.4.4.4.",
"9.9.9.0.e.e.e.4.4.4.4.4.4.4.4.4.4.4.4.4.4.& ; 9 9 9 9 4 o   . & & & & & & & & & $ 4.4.4.4.  & & & 4.4.4.4.4.4.4.4.4.",
"4.4.4.4.4.4.4.4.4.4.4.4.4.4.4.4.4.4.4.4.4.4.4.o * * * * .   4.4.4.4.4.4.4.4.4.4.4.4.4.4.4.4.4.4.4.4.4.4.4.4.4.4.4.4.",
"4.4.4.4.4.4.4.4.4.4.4.4.4.4.4.4.4.4.4.4.4.4.4.              4.4.4.4.4.4.4.4.4.4.4.4.4.4.4.4.4.4.4.4.4.4.4.4.4.4.4.4.",
"4.4.4.4.4.4.4.4.4.4.4.4.4.4.4.4.4.4.4.4.4.4.4.+ + + + + + + 4.4.4.4.4.4.4.4.4.4.4.4.4.4.4.4.4.4.4.4.4.4.4.4.4.4.4.4."
};
