/* XPM */
static char *_b7131d7ac2a4a19876be3a9f15e638e[] = {
/* columns rows colors chars-per-pixel */
"58 58 233 2 ",
"   c #000101",
".  c #0B0403",
"X  c #020B02",
"o  c #090909",
"O  c #190A07",
"+  c #021603",
"@  c #031B05",
"#  c #191206",
"$  c #0F0F12",
"%  c #0F1112",
"&  c #131414",
"*  c #1B1B1C",
"=  c #27130B",
"-  c #2B1508",
";  c #2B1A13",
":  c #331C16",
">  c #052908",
",  c #003E04",
"<  c #03300E",
"1  c #0B330C",
"2  c #0C3D0C",
"3  c #10320F",
"4  c #073C14",
"5  c #262D12",
"6  c #3C2518",
"7  c #0F1922",
"8  c #1D2023",
"9  c #252526",
"0  c #2B2926",
"q  c #352D28",
"w  c #3B3427",
"e  c #343634",
"r  c #482817",
"t  c #43251D",
"y  c #4D351B",
"u  c #593219",
"i  c #6E3500",
"p  c #64371B",
"a  c #6D3E1D",
"s  c #723E1B",
"d  c #4B2A20",
"f  c #483525",
"g  c #583424",
"h  c #6C3D20",
"j  c #723D20",
"k  c #024204",
"l  c #0D420D",
"z  c #11480F",
"x  c #0C4612",
"c  c #0D4C13",
"v  c #074B18",
"b  c #194D14",
"n  c #0B541A",
"m  c #0E5B1A",
"M  c #1B5816",
"N  c #2C4213",
"B  c #265617",
"V  c #0F661F",
"C  c #1B6617",
"Z  c #216517",
"A  c #256E19",
"S  c #29761C",
"D  c #2A7A1E",
"F  c #195D3C",
"G  c #264C28",
"H  c #31522C",
"J  c #3E5228",
"K  c #0D6421",
"L  c #0E6C23",
"P  c #156A24",
"I  c #0F7426",
"U  c #097826",
"Y  c #0E7B29",
"T  c #117526",
"R  c #107B29",
"E  c #177829",
"W  c #336627",
"Q  c #247727",
"!  c #367127",
"~  c #4F450F",
"^  c #6F411F",
"/  c #74411D",
"(  c #7A4C1F",
")  c #757B06",
"_  c #4D5822",
"`  c #4C4032",
"'  c #5D4C3C",
"]  c #694723",
"[  c #734221",
"{  c #7A4A28",
"}  c #6C5625",
"|  c #735532",
" . c #537129",
".. c #6B7230",
"X. c #223952",
"o. c #22654B",
"O. c #336644",
"+. c #0E516E",
"@. c #2F4D6D",
"#. c #4B5246",
"$. c #55535D",
"%. c #6A5B55",
"&. c #616947",
"*. c #766857",
"=. c #8A691E",
"-. c #875B32",
";. c #8E6C24",
":. c #8D6734",
">. c #976C34",
",. c #9D753C",
"<. c #A4793C",
"1. c #8E7554",
"2. c #A47B41",
"3. c #A67E5B",
"4. c #8B7367",
"5. c #36861E",
"6. c #1A8129",
"7. c #1E8437",
"8. c #248828",
"9. c #2B8F29",
"0. c #368923",
"q. c #2C9129",
"w. c #2D992D",
"e. c #399324",
"r. c #3D9C27",
"t. c #329D2D",
"y. c #3A9C28",
"u. c #33893A",
"i. c #2E9032",
"p. c #3DA323",
"a. c #32A42D",
"s. c #3EA229",
"d. c #35AC2C",
"f. c #37B22C",
"g. c #3AA732",
"h. c #76AC18",
"j. c #498E26",
"k. c #479A29",
"l. c #41A429",
"z. c #4BA328",
"x. c #4CAB2F",
"c. c #4BBB37",
"v. c #4EBE39",
"b. c #4B9251",
"n. c #63AE58",
"m. c #6C9366",
"M. c #AB9514",
"N. c #9BBD19",
"B. c #A4A400",
"V. c #948A39",
"C. c #AB853C",
"Z. c #AB8B3D",
"A. c #B2883B",
"S. c #B79938",
"D. c #94B034",
"F. c #C8B315",
"G. c #CBB52B",
"H. c #C3AC35",
"J. c #CBB332",
"K. c #9DC31C",
"L. c #AED317",
"P. c #DBD91A",
"I. c #E5DB1B",
"U. c #F1EB05",
"Y. c #F7F607",
"T. c #FEFD01",
"R. c #F6F40D",
"E. c #F2EE13",
"W. c #D9C62C",
"Q. c #E6D926",
"!. c #F1DD26",
"~. c #EACD38",
"^. c #ECD03C",
"/. c #F3E425",
"(. c #8D8659",
"). c #A98245",
"_. c #B5924E",
"`. c #AB8559",
"'. c #948A6F",
"]. c #AB8C6B",
"[. c #BA9666",
"{. c #AF9573",
"}. c #B59774",
"|. c #9DA276",
" X c #BEA57D",
".X c #BFBF74",
"XX c #C59749",
"oX c #CFAC4F",
"OX c #D9AB4D",
"+X c #D5AA52",
"@X c #DDAB52",
"#X c #E1B44C",
"$X c #E1AF52",
"%X c #C19F79",
"&X c #C3A06F",
"*X c #C7A67B",
"=X c #E1B66D",
"-X c #E8D956",
";X c #F9F56F",
":X c #2B509C",
">X c #787698",
",X c #445EA0",
"<X c #00BAFD",
"1X c #3DB0E1",
"2X c #5DB3E0",
"3X c #8E8794",
"4X c #919291",
"5X c #B0A190",
"6X c #B0B1AB",
"7X c #C9A983",
"8X c #D4B48B",
"9X c #D9B98A",
"0X c #C9B595",
"qX c #DABD95",
"wX c #C4B4A7",
"eX c #B9C6B9",
"rX c #E5C69D",
"tX c #D4C4AB",
"yX c #E6CCA4",
"uX c #EBD3AC",
"iX c #EFD7AF",
"pX c #F5DCB4",
"aX c #F9DFB6",
"sX c #FDE5B8",
"dX c #FDE4BB",
"fX c #D2D2CA",
"gX c #DFE0DC",
"hX c #FFE7C0",
"jX c #FFF1DC",
"kX c #EEEDEF",
"lX c #FFF6E8",
"zX c #F2F6F3",
"xX c #FFFFFF",
/* pixels */
"w.w.w.w.w.w.w.w.w.w.w.w.w.w.w.w.w.w.w.w.w.w.w.w.w.w.w.w.w.w.w.w.w.w.w.w.w.w.w.w.w.w.w.w.w.w.w.w.w.w.w.w.w.w.w.w.w.w.",
"w.w.w.w.w.w.w.w.w.w.w.w.w.w.w.w.w.w.w.w.w.w.w.w.w.w.U U y.p.p.p.p.C , k U U W a / :.<.`.w.w.w.w.w.w.w.w.w.w.w.w.w.w.",
"w.w.w.w.w.w.w.w.w.w.w.w.w.w.w.w.w.w.w.w.w.w.w.w.w.w.E 6.y.l.l.l.l.A l c R R  .( ( >.C._.w.w.w.w.w.w.w.w.w.w.w.w.w.w.",
"w.w.w.w.w.w.w.w.w.w.w.w.w.w.w.w.w.w.w.w.w.t.g.n.n.x.s.s.l.l.l.l.l.A l z r.s.K.U.Y.Y.R.E.=X=X_.w.w.w.w.w.w.w.w.w.w.w.",
"w.w.w.w.w.w.w.w.w.w.w.w.w.w.w.w.w.w.w.w.w.U 6.l.l.l.l.l.l.l.l.l.l.A l z r.s.K.T.T.T.T.Y.@X@XXX2.`.w.w.w.w.w.w.w.w.w.",
"w.w.w.w.w.w.w.w.w.w.w.w.w.w.w.w.w.w.w.w.m.8.9.l.l.l.l.l.l.l.l.l.l.A l z r.s.N.!./.Q.Q.Q.~.^.W.G.J.w.w.w.w.w.w.w.w.w.",
"w.w.w.w.w.w.w.w.w.w.w.w.w.w.w.H b P 7.7.t.s.s.l.l.l.l.l.l.l.l.l.l.A l z r.s.D.OX@X_.C.A.T.T.T.T.R.H.).w.w.w.w.w.w.w.",
"w.w.w.w.w.w.w.w.w.w.w.w.w.w.w.G l V R 6.y.l.l.l.l.l.l.l.l.l.l.s.s.A z b z.z.D.OX@X_.2.Z.Y.T.T.T.R.H.C.d.d.d.a.w.w.w.",
"w.w.w.w.w.w.w.w.w.w.w.w.w.w.w.P V Q q.w.r.l.l.l.l.l.l.l.l.l.r.A A S 5.5.L.P.P./.!.J.XXXX~.~.W.G.G.W.P.~.f.f.a.w.w.w.",
"w.w.w.w.w.w.w.w.w.w.w.w.w., k R Y q.l.l.l.l.l.l.l.l.l.l.l.l.e.l l D l.x.Y.T.T.T.T.~.@X@X@X@XXX2.C.I.T.R.<.<.a.w.w.w.",
"w.w.w.w.w.w.w.w.w.w.w.w.w.k c R Y 9.l.l.l.l.l.r.r.r.r.r.l.l.e.l l D l.z.E.Y.T.T.T.~.@X+XOXOXXX).Z.I.T.R.2.,.a.w.w.w.",
"w.w.w.w.w.w.w.w.w.w.H G P R R R Y 9.l.l.l.l.r.l l l l b e.l.e.l l D l.z.V.2.G.T.T.G.2.<.{ [ <.+X#X/.T.U.j s w.w.w.w.",
"w.w.w.w.w.w.w.w.w.w.b l V R R R Y 9.l.l.l.l.r.l l l l z e.l.e.l l D s.k.V.2.J.T.T.G.2.<./ a <.@X#X/.T.Y.p i w.w.w.w.",
"w.w.w.w.w.w.w.w.w.w.b l V R R R Y 6.q.q.q.q.9.S D S S S S D D S D h.L.L.C.2.S.W.W.oX[.[.`.3.`.XXXXH.F.H.w.w.w.w.w.w.",
"w.w.w.w.w.w.w.a.a.a.b l V R R R R R R R R R 6.s.l.l.l.r.M l Z r.l.L.T.U.Z.2.2.2.).&X8X8X8X8X[.2.<.-.( 1.a.d.a.w.w.w.",
"w.w.w.w.w.w.w.d.f.f.b c K R R R R R R R R R 6.s.s.r.r.e.M x C y.l.L.Y.U.S.C.).2.).*XqX9X8X8X[.,.>.-.| 4.f.f.a.w.w.w.",
"w.w.w.w.w.w.w.d.f.f.P L T R R R R R R R R R R 8.8.S Z C P L T 8.8.V.H.H.I.I.^.*X*XrXpXiX8X8X3.y ` w.w.f.f.f.a.w.w.w.",
"w.w.w.w.w.w.w.d.k m R R R R R R R R R R R R R R R m l x I R R R E ..2.C.R.T.-X9X9XiXsXsX8X8X1.. 9 w.w.f.f.f.a.w.w.w.",
"w.w.w.w.w.w.w.w.l m R R R R R R R R R R R R R T T m l l L T E Q ! ..2.C.R.T.-X9XqXyXiXuX7X7X1.o 9 w.w.w.w.w.w.w.w.w.",
"w.w.w.w.w.w.w.w.l m R R R R R R R R R R R R T l l l l l l l N ^ [ :.2.C.R.T.;XsXpX*.    s / r . 9 w.w.w.w.w.w.w.w.w.",
"w.w.w.w.w.w.w.w.l m R R R R R R R R R R R R I , , , , , k k N ^ [ :.2.C.R.T.;XsXpX*.  . / / r   9 w.w.w.w.w.w.w.w.w.",
"w.w.w.w.w.w.w.G l m R R L m m 4 4 4 4 x n m W |.|.|.|.|.(.(.1.[ [ <.XXXXG.G.=XsXsXwX4X4X$.$.%.*.*.b.w.w.w.w.w.w.w.w.",
"w.w.w.w.w.  X 2 l m R R m l l           1 l &.sXdXdXsXsXqX8X%X[ [ A.@X+X).<.*XsXdXlXxXkX,X:X3X8X7X'   w.w.w.w.w.w.w.",
"w.w.w.w.w.    2 l m I I n 2 2 % $ $ $ & 1 2 &.iXpXsXsXsXrXqX*X[ / A.#XOX<.,.*XsXhXlXxXkX,X:X3X8X7X'   w.w.w.w.w.w.w.",
"w.w.w.w.w.    2 l x c c < + e w.w.w.w.w.w.+ f [.[.qXdXdXaXaXrX/ [ F.E.I.;.{ }.sXhXlXxXkX,X:X3X8X7X'   w.w.w.w.w.w.w.",
"w.w.w.w.w.    2 l l l l @   e w.w.w.w.w.w.  6 2.<.9XdXdXdXdXyX/ [ F.T.U.=.s }.sXhXlXxXkX,X:X3X8X7X'   d.d.d.a.w.w.w.",
"w.w.w.w.w.    2 l 2 1 3 w.w.w.w.w.w.w.w.w.  : :.:.}.yXyXfXgXtX>.>.F.T.U.=./ }.aXdXjXlXkX>X>X3X{.].w.w.f.f.f.a.w.w.w.",
"w.w.w.w.w.    2 l 1   * w.w.w.w.w.w.w.w.w.        ] 2.(.1X<X2X+X@X!.T.U.=./ }.aXdXdXsXsX8X8X1.  8 w.w.f.f.f.a.w.w.w.",
"w.w.w.w.w.o & 2 l 1 & 9 w.w.w.w.w.w.w.w.w.. # . . ] 2.1.1X<X2X+X$X!.T.U.=.[ }.aXdXsXdXsX8X8X1.* 0 w.w.f.f.f.a.w.w.w.",
"w.w.w.a.f.f.f.e @ w.w.f.f.f.a.w.w.w.w.w..XB.B.:.>.] y f +.+.m.Q.!.F.M.M.`.].*XrXyXrXrXqX%.' w.d.f.f.d.w.w.w.a.f.f.f.",
"w.w.w.a.f.f.f.w.  w.w.f.f.f.a.w.w.w.w.w.;XT.R.$X$X|         ) Y.T.M.j { 7X8X8X8X8X8X8X*X;   w.d.f.f.d.w.w.w.a.f.f.f.",
"w.w.w.a.f.f.f.w.w.w.w.f.f.f.a.w.w.w.w.w.;XU.P.XXXX} X       ) U.Y.M.p [ }. X X X X X X{.0   w.d.f.f.d.w.w.w.a.f.f.f.",
"w.w.w.a.a.a.a.a.a.a.a.a.a.a.a.w.w.w.w.w.w.~ ~ 6 6 5 2 1 +   } OX#X} O # J J J J J w w ` w.w.w.a.a.a.a.w.w.w.a.a.a.a.",
"w.w.w.w.w.w.w.d.f.f.d.w.w.w.w.w.w.w.w.w.w.        > l 2 +   } +X@X}     2 l l l 2 @   0 w.w.w.w.w.w.w.w.w.w.w.w.w.w.",
"w.w.w.w.w.w.w.d.f.f.f.w.w.w.w.w.w.w.w.w.w.w.w.    1 m m v v _ ,.<.~ > > 2 l c m m v v G w.w.w.w.w.w.w.w.w.w.w.w.w.w.",
"w.w.w.w.w.w.w.d.f.f.f.w.w.w.w.w.w.w.w.w.w.w.w.    v R R T T K     > l l l l m I R R T L X   w.w.w.w.w.w.w.w.w.w.w.w.",
"w.w.w.a.d.d.d.a.t.t.a.d.d.d.a.w.w.w.w.w.w.w.w.  o v R R R R L . . > x x H H W I I R Y I @   w.w.w.w.w.w.w.w.w.w.w.w.",
"w.w.w.a.f.f.f.w.w.w.w.f.f.f.a.w.w.w.w.w.w.w.w.X.X.F R R R R W y u B L E 6XeX4X4 4 K Y Y m n #.w.w.w.w.w.w.w.w.w.w.w.",
"w.w.w.a.f.f.f.w.w.w.w.f.f.f.a.w.w.w.w.w.w.  7 @.@.o.R R R R ! [ [ W Y 7.zXxXfX  X n Y R Y Y v   8 w.w.w.w.w.w.w.w.w.",
"w.w.w.a.d.d.d.w.w.w.w.d.d.d.a.w.w.w.w.w.w.w e @.@.o.Q Q E R ! [ [  .b.b.gXkX6X  X n Y R j.j.B   9 t.t.w.w.w.w.w.w.w.",
"w.w.w.w.w.w.w.w.w.w.w.w.w.w.w.w.w.w.w.0 0XsXiX    r [ ] ! R ! [ [ wXxXkX*.g 6   X n Y 0.T.T.B.# 9 v.c.w.w.w.w.w.w.w.",
"w.w.w.w.w.w.w.w.w.w.w.w.w.w.w.w.w.w.w.. 0XsXpX    r j ] ! Y ! [ { wXxXkX%.d :   X n R 0.T.T.B.# 9 v.c.w.w.w.w.w.w.w.",
"w.w.w.w.w.w.w.w.w.w.w.w.w.w.w.w.w.w.w.w.'.'.'.v v W  . ._ _ _ r r 4.6X5X' d t r r 5 v B N.K.) X & v.c.w.w.w.w.w.w.w.",
"w.w.w.w.w.w.w.w.w.w.w.w.w.w.w.w.w.w.w.w.w.. 3 I Y q.l.k.} [ p   . : g d d d g a a :   @ E E n     o $ w.w.w.w.w.w.w.",
"w.w.w.w.w.w.w.w.w.w.w.w.w.w.w.w.w.w.w.w.w.  > R Y q.l.k.} ] ] @ @ ; t t d d g j [ t 0 0 L I v o .     w.w.w.w.w.w.w.",
"w.w.w.w.w.w.w.w.w.w.w.w.w.w.w.w.w.w.w.w.0   > R Y q.l.l.j.j.j.0.0.5 O = p h j [ { ].0X7X5 < 5 6 : O   w.w.w.w.w.w.w.",
"w.w.w.w.w.w.w.w.w.w.w.w.w.w.w.w.w.w.&       > R Y q.l.l.l.l.l.l.l.b   X a [ [ [ { 8XsXuX0   ; t t #   w.w.w.w.w.w.w.",
"w.w.w.g.c.c.c.a.w.w.w.w.w.w.w.w.w.w.&   # - 5 L L 8.e.e.l.l.l.l.l.M + + p p | 1.1.7XuXqX0 O ; t t w.w.w.w.w.w.w.w.w.",
"w.w.w.g.v.v.v.a.w.w.w.w.w.w.w.w.w.w.& . u [ a           0.l.l.l.l.A l 2 X   '.pXsX*.    t d ;   9 w.w.w.w.w.w.w.w.w.",
"w.w.w.g.v.v.v.a.w.w.w.w.w.w.w.w.w.w.& . u [ a         X 0.l.l.l.l.A l 2 X   '.pXsX*.  . d d ;   * w.w.w.w.w.w.w.w.w.",
"i.i.i.g.c.c.c.a.w.w.w.w.w.w.w.w.w.w.& . u [ a : : : : ; b b b b b 3 @ @     f *.*.q     = O w.w.w.w.w.w.w.w.w.w.w.w.",
"O.O.O.u.f.f.f.t.w.w.w.w.w.w.w.w.w.w.& . u [ j d d d d t O                                   w.w.w.w.w.w.w.w.w.w.w.w.",
"O.O.O.u.f.f.f.t.w.w.w.w.w.w.w.w.w.w.e 0 y p p d d d d t # . X     & 9 9 9 9 9 9 9 9 9 9 9 * w.w.w.w.w.w.w.w.w.w.w.w.",
"O.O.O.u.f.f.f.w.w.w.w.w.w.w.w.w.w.w.w.w.w.O : h j g d d t t :   o b.w.w.w.w.w.w.w.w.w.w.w.w.w.w.w.w.w.w.w.w.w.w.w.w.",
"u.u.u.i.a.a.a.w.w.w.w.w.w.w.w.w.w.w.w.w.w.  = [ [ g d d d d 6   o w.w.w.w.w.w.w.w.w.w.w.w.w.w.w.w.w.w.w.w.w.w.w.w.w.",
"w.w.w.w.w.w.w.w.w.w.w.w.w.w.w.w.w.w.w.w.w.w.w.u p r 6 6 6 6 #.w.w.w.w.w.w.w.w.w.w.w.w.w.w.w.w.w.w.w.w.w.w.w.w.w.w.w.",
"w.w.w.w.w.w.w.w.w.w.w.w.w.w.w.w.w.w.w.w.w.w.w.              w.w.w.w.w.w.w.w.w.w.w.w.w.w.w.w.w.w.w.w.w.w.w.w.w.w.w.w.",
"w.w.w.w.w.w.w.w.w.w.w.w.w.w.w.w.w.w.w.w.w.w.w.+ + + + + + + w.w.w.w.w.w.w.w.w.w.w.w.w.w.w.w.w.w.w.w.w.w.w.w.w.w.w.w."
};
