/* XPM */
static char *_23cf341fac04ce3b6a64f430da268ab[] = {
/* columns rows colors chars-per-pixel */
"58 58 229 2 ",
"   c #000101",
".  c #050806",
"X  c #09090A",
"o  c #140B06",
"O  c #011404",
"+  c #041A05",
"@  c #041909",
"#  c #1C1704",
"$  c #010B17",
"%  c #080C16",
"&  c #1D1813",
"*  c #1A1A1A",
"=  c #27140C",
"-  c #371C0C",
";  c #271B16",
":  c #361E18",
">  c #052306",
",  c #082A06",
"<  c #022609",
"1  c #042A0A",
"2  c #092D09",
"3  c #02370B",
"4  c #0A3409",
"5  c #003D0D",
"6  c #0B3C0C",
"7  c #103609",
"8  c #1D3B09",
"9  c #0E2C15",
"0  c #2A2802",
"q  c #3B210F",
"w  c #363504",
"e  c #252417",
"r  c #3B2111",
"t  c #3F2E16",
"y  c #061221",
"u  c #122234",
"i  c #252525",
"p  c #352D2F",
"a  c #3D3C25",
"s  c #47271C",
"d  c #473211",
"f  c #6F3807",
"g  c #673819",
"h  c #6D3E1E",
"j  c #703B13",
"k  c #703E1D",
"l  c #473426",
"z  c #653B22",
"x  c #0B4405",
"c  c #04400B",
"v  c #0D420D",
"b  c #16480D",
"n  c #0B4412",
"m  c #0D4B12",
"M  c #094918",
"N  c #134C10",
"B  c #11441B",
"V  c #0E5215",
"C  c #0A531B",
"Z  c #0D5D1C",
"A  c #195714",
"S  c #2F4D0F",
"D  c #0E621D",
"F  c #1C6219",
"G  c #246D19",
"H  c #2B6A1D",
"J  c #2B7A1D",
"K  c #317E1E",
"L  c #125226",
"P  c #31572B",
"I  c #0C6520",
"U  c #0F6B22",
"Y  c #156723",
"T  c #0F7226",
"R  c #0F7B29",
"E  c #117526",
"W  c #187826",
"Q  c #107B29",
"!  c #247925",
"~  c #306A32",
"^  c #4C4A0E",
"/  c #75431D",
"(  c #52710C",
")  c #6E7905",
"_  c #544625",
"`  c #565322",
"'  c #4D4B30",
"]  c #694526",
"[  c #734120",
"{  c #774726",
"}  c #645222",
"|  c #6E522D",
" . c #764E31",
".. c #7E5434",
"X. c #556933",
"o. c #6A6022",
"O. c #1C3044",
"+. c #2F3849",
"@. c #184859",
"#. c #336644",
"$. c #2D4C6B",
"%. c #344E6A",
"&. c #325374",
"*. c #086F75",
"=. c #2F6C67",
"-. c #484B58",
";. c #565154",
":. c #69514B",
">. c #725349",
",. c #6B7453",
"<. c #657260",
"1. c #85562A",
"2. c #875C37",
"3. c #906736",
"4. c #956936",
"5. c #9C763E",
"6. c #A3783D",
"7. c #845D47",
"8. c #8E6848",
"9. c #93704E",
"0. c #9A7657",
"q. c #A47A41",
"w. c #A37D59",
"e. c #9A7B64",
"r. c #128227",
"t. c #1B8129",
"y. c #268629",
"u. c #368B22",
"i. c #2D9229",
"p. c #2D992D",
"a. c #369527",
"s. c #3E9C27",
"d. c #339C2C",
"f. c #3A9D29",
"g. c #33893A",
"h. c #2E9232",
"j. c #379539",
"k. c #32A42D",
"l. c #3EA229",
"z. c #35AC2C",
"x. c #37B22C",
"c. c #3AA631",
"v. c #7A8708",
"b. c #678F12",
"n. c #438123",
"m. c #459D28",
"M. c #4EA222",
"N. c #41A429",
"B. c #59AE23",
"V. c #4BBB37",
"C. c #4FBF39",
"Z. c #4A944A",
"A. c #578E5E",
"S. c #65A05F",
"D. c #73906C",
"F. c #8A8901",
"G. c #899807",
"H. c #839908",
"J. c #918719",
"K. c #8F9A18",
"L. c #AF9319",
"P. c #A9AA02",
"I. c #B7B903",
"U. c #B19037",
"Y. c #96AF35",
"T. c #C6AE2D",
"R. c #DCBD32",
"E. c #A8CC16",
"W. c #A5CD1D",
"Q. c #B1D110",
"!. c #A1C821",
"~. c #C3C904",
"^. c #D5D602",
"/. c #E6E403",
"(. c #E3E609",
"). c #F3EC0E",
"_. c #EEF305",
"`. c #F2F402",
"'. c #F6F902",
"]. c #FBFC02",
"[. c #F9F30A",
"{. c #D4C927",
"}. c #EBDD2A",
"|. c #E8CB38",
" X c #F2E42D",
".X c #A98149",
"XX c #B9904E",
"oX c #AA8853",
"OX c #AA8758",
"+X c #B18E5C",
"@X c #93986C",
"#X c #AF8F6F",
"$X c #B79976",
"%X c #CB9B4C",
"&X c #D9A651",
"*X c #D7A954",
"=X c #DBAB51",
"-X c #E1B84B",
";X c #E3BC55",
":X c #C19E74",
">X c #C8A77B",
",X c #D0AF7F",
"<X c #0179A4",
"1X c #677282",
"2X c #0C81AB",
"3X c #2E94B8",
"4X c #778B9B",
"5X c #03A1CD",
"6X c #18A7D4",
"7X c #0AB9F6",
"8X c #969997",
"9X c #AB9488",
"0X c #BEAB9F",
"qX c #8094A7",
"wX c #ADABAC",
"eX c #CCAD84",
"rX c #D6B58C",
"tX c #C6AD92",
"yX c #D8BB94",
"uX c #92C580",
"iX c #A5E294",
"pX c #E0C59C",
"aX c #E9CBA3",
"sX c #F6DDB5",
"dX c #F6E0B7",
"fX c #FFE6BD",
"gX c #A9B5C3",
"hX c #EBF3ED",
"jX c #FBFDFC",
/* pixels */
"p.p.p.p.p.p.p.p.p.p.p.p.p.p.p.p.p.p.p.p.p.p.p.p.....9.oXoXoXoXoXoXoX8...9.p.p.p.p.p.p.p.p.p.p.p.p.p.p.p.p.p.p.p.p.p.",
"p.p.p.p.p.p.p.p.p.p.p.p.p.p.p.p.p.p.p.p.p.p.p.p.j k 3.q.q.q.q.q.q.q.1.k 7.p.p.p.p.p.p.p.p.p.p.p.p.p.p.p.p.p.p.p.p.p.",
"p.p.p.p.p.p.p.p.p.p.p.p.p.p.p.p.p.p.p.p.p.p.p.p.4.4.U.T.T.T.T.T.T.T.L.L.U.p.@XS.p.p.p.p.p.p.p.p.p.p.p.p.p.p.p.p.p.p.",
"p.p.p.p.p.p.p.p.p.p.p.p.p.p.p.p.p.p.p.p.p.d.i _ &X&X}.].].].].].].].'.'.).;X=X*X.XOXp.p.p.p.p.p.p.p.p.p.p.p.p.p.p.p.",
"p.p.p.p.p.p.p.p.p.p.p.p.p.p.p.p.p.p.p.p.p.c.  d =X&X}.'.].].].].].].].].[.-X=X%Xq..Xp.p.p.p.p.p.p.p.p.p.p.p.p.p.p.p.",
"p.p.p.p.p.p.p.p.p.p.p.p.p.p.p.p.p.p.p.p.p.X.J n.Y.Y.Y.W.W.W.W.W.W.W.W.W.W.}. X|.%X%XeXp.p.p.p.p.p.p.p.p.p.p.p.p.p.p.",
"p.p.p.p.p.p.p.p.p.p.p.p.p.p.p.p.p.p.p.  O K N.N.l.l.l.l.l.l.l.l.l.l.l.l.B._.]. X=X=XXX6.+Xp.p.p.p.p.p.p.p.p.p.p.p.p.",
"p.p.p.p.p.p.p.p.p.p.p.p.p.p.p.p.p.p.~ 7 7 K s.s.s.s.s.s.s.s.s.s.s.s.s.s.B.(.'. X-X-XXX.X+Xz.z.p.p.p.p.z.z.z.k.p.p.p.",
"p.p.p.p.p.p.p.p.p.p.p.p.p.p.p.p.p.% H u.u.F N N N N N N N N N N N N N N A M.B.W.[.[.|.&X%X2...k.p.p.p.x.x.x.k.p.p.p.",
"p.p.p.p.p.p.p.p.p.p.p.p.p.p.p.p.p.  H N.s.F v v v v v v v v v v v v v v N s.N.!.].].|.=X%X{ j k.p.p.p.x.x.x.k.p.p.p.",
"p.p.p.p.p.p.p.p.p.p.p.p.p.p.p.p.B 3 F J J G G G G G G G G G G G G G G G G J J b.E.E.{.|.R.3.1.k.p.p.k.z.z.z.k.p.p.p.",
"p.p.p.p.p.p.p.p.p.p.p.p.p.p.  9 Q Q D v N u.N.N.N.N.N.N.N.N.N.N.N.N.N.N.a.A v Z W y.Q.].).U.6.z.x.x.z.p.p.p.p.p.p.p.",
"p.p.p.p.p.p.p.p.p.p.p.p.p.p.  @ E Q Z v N u.N.N.N.N.N.N.N.N.N.N.N.N.N.N.a.A v Z Q ! Q.'./.U.6.z.x.x.x.p.p.p.p.p.p.p.",
"p.p.p.p.p.p.p.p.p.p.p.p.p.p.  O V V D T W a.N.N.N.N.N.N.N.N.N.N.N.N.N.N.a.A v m V A ( G.K.p.p.z.x.x.x.p.p.p.p.p.p.p.",
"p.p.p.p.p.p.p.k.k.k.k.p.p.p.  . v v D Q Q d.N.N.N.N.N.N.N.N.N.N.N.N.N.N.a.A v v v v v v P k.k.k.k.k.k.k.k.k.k.p.p.p.",
"p.p.p.p.p.p.p.z.x.x.z.p.p.p.O > m V D E W i.f.f.f.f.l.N.N.N.N.N.N.N.N.N.s.G A A 6 6 6 v P x.x.k.p.p.p.x.x.x.k.p.p.p.",
"p.p.p.p.p.p.p.z.#XoX>XyXrXX.3 n T E Z m m E r.Q Q Q a.N.N.N.N.N.N.N.N.N.N.s.s.K     2 v P rXyX>XoX+Xp.x.x.x.k.p.p.p.",
"p.p.p.p.p.p.p.z.+Xq.$XrXeXX.c m Q Q D v m U Q Q Q R i.N.N.N.N.N.N.N.N.N.N.N.N.u.    2 v P eXrX:Xq.oXp.x.x.x.k.p.p.p.",
"p.p.p.p.p.p.0XtX,X,XyXaXpX,.c m Q Q U Z Z M M C Q R y.i.i.i.i.a.N.N.N.N.l.i.i.!     2 v P pXaXyX,X,XtX0Xp.p.p.p.p.p.",
"p.p.p.p.p.e.j 2.sXfXfXfXdX,.c m Q Q Q Q T 1   < Q Q R Q R R R y.N.N.N.N.f.t.R I     2 v P sXfXfXfXsXw.j 2.p.p.p.p.p.",
"p.p.p.p.p.OXf 2.sXfXfXfXsX,.5 m Q Q Q Q T 1   < Q Q Q Q Q Q Q y.N.N.N.N.f.t.Q I     2 v P sXfXfXfXsXw.f 2.p.p.p.p.p.",
"p.p.p.p.p.p.p.p.0.8.0.+XOX` c m Q Q Q Q E V 6 4 1 1 6 m V T R Q t.t.t.t.t.Q Q I     2 v S OX+Xw.8.9.p.p.p.p.p.p.p.p.",
"p.p.p.p.p.p.p.p.7.j 2.q.5.` x m Q Q Q Q E V v 6     2 v m T R R Q Q Q Q Q Q Q I     , x S 5.q.3./ ..p.p.p.p.p.p.p.p.",
"p.p.p.p.p.p.p.p.9X#Xe.4.3.=.*.*.U U U U D m v 6 + + > 4 6 C Z I U U E Q Q U U C   . @.*.=.3.4.0.#X9Xp.p.p.p.p.p.p.p.",
"p.p.p.p.p.p.p.p.p.p.p./  .3X7X5XL v v v v v v v 6 6 >     . . > v v U Q T V v 6   $ <X7X6X>./ p.p.p.p.p.p.p.p.p.p.p.",
"p.p.p.p.p.p.p.p.p.p.p./  .3X7X6XL v v v v v v v v v >         + v v D Q T m v 4   $ 2X7X6X:.j p.p.p.p.k.z.z.k.p.p.p.",
"p.p.p.p.p.p.p.p.p.p.p.d l D.iXuX_ ^ S v v v v v v v 4 , , , , , > > m Z Z v v 4   @ D.iXuX' - p.p.p.p.x.x.x.k.p.p.p.",
"p.p.p.p.p.p.p.p.p.p.Z.  0 I.]./.{ [ ^ v v v v v v v v v v v v 6     2 v v v v 4   # P.].^.^   p.p.p.p.x.x.x.k.p.p.p.",
"p.p.p.p.p.p.p.p.p.p.p.i a I.]./.{ [ ^ S S b v v v v v v v v v 6     2 v v v v 7 o 0 P.].^.' i p.p.p.p.x.x.x.k.p.p.p.",
"p.p.p.k.x.x.x.p.p.p.d.x.x.x.0 t 5.q.{.`./.) c v v v v v v v v v 6 6 +       . _ 5.5.d w a p.p.z.x.x.z.p.p.p.k.x.x.x.",
"p.p.p.k.x.x.x.p.p.p.p.x.x.x.  = q.q.{.].`.b.5 5 5 5 v v v v v v 5 5 .         ] q.q.t   i p.p.z.x.x.z.p.p.p.k.x.x.x.",
"p.p.p.k.x.x.x.p.p.p.p.x.x.8Xk.p.| | J.P.P.H.H.H.H.H.( v v v v S H.H.v.) ) 0   t | | p.j.p.p.p.z.x.x.z.p.p.p.k.x.x.x.",
"p.p.p.k.k.k.k.k.k.k.k.k.k.k.k.p.i o # # w ~.'.'.'.'.H.b v v v v.].'.'.'.^.^     o ; p.p.p.p.p.k.k.k.k.p.p.p.k.k.k.k.",
"p.p.p.p.p.p.p.z.x.x.z.p.p.p.p.p.i .     w I.'.`.`.`.G.b b b b v.`.`.`.`.^.^       * p.p.p.p.p.p.p.p.p.p.p.p.p.p.p.p.",
"p.p.p.p.p.p.p.z.x.x.x.p.p.p.p.p.Y Z M 4 8 ) G.G.F.F.P.~.~.~.~.I.F.F.G.G.v.S 4 n Z Z p.p.p.p.p.p.p.p.p.p.p.p.p.p.p.p.",
"p.p.p.p.p.p.p.z.x.x.x.p.p.p.  O R Q D v v c c 3     P.].].].]./.    < 5 5 v v Z Q E 1   p.p.p.p.p.p.p.p.p.p.p.p.p.p.",
"p.p.p.k.z.z.z.k.k.k.k.z.z.z.  e A.A.~ 6 6 n m n < @ P._.`.`._.^.. < 6 m n 6 6 ~ A.A.P y p.p.p.p.p.p.p.p.p.p.p.p.p.p.",
"p.p.p.k.x.x.x.p.p.        : s :.hXhX8XX O Z E E T T Q r.r.r.r.r.T T T E I <   8XhXhX4X$.$.$       p.p.p.p.p.p.p.p.p.",
"p.p.p.k.x.x.x.p.p.        : s :.jXjXwXX O Z Q Q Q R R R R R R R Q Q Q Q U <   8XjXjXqX&.$.$       p.p.p.p.p.p.p.p.p.",
"p.p.p.k.z.z.z.D.l r r r r p +.;.wXgX<.. O Z Q Q Q Q Q Q Q Q Q Q Q Q Q Q U <   <.0X0X1X&.%.: r r r a d.p.p.p.p.p.p.p.",
"p.p.p.p.p.p.  o h [ [ [ ] -.&.&.&.&.O.  O Z Q Q Q Q Q Q Q Q Q Q Q Q Q Q U <   s [ { -.&.%.] k [ [ h ; X p.p.p.p.p.p.",
"p.p.p.p.p.p.  o h [ [ { { -.$.$.$.$.O.  O Z Q Q Q Q Q Q Q Q Q Q Q Q Q Q U <   q h z -.$.%.{ { [ [ h =   p.p.p.p.p.p.",
"p.p.p.p.p.p.  o h / 0.:X$X' u u u u L I Y ` } } } } } } } } } } } } } } ` H U A - - i u p $X>Xw.[ h =   p.p.p.p.p.p.",
"p.p.p.p.p.p.  o h k w.rXeX'         C Q W ` [ [ [ [ [ [ [ [ [ [ [ [ [ [ ] ! Q I         ; eXrX#X[ h =   p.p.p.p.p.p.",
"p.p.p.p.p.p.Z.p.z g 9.$X$Xl   . 3 3 D t.y.X.o.o.o.o.o.o.o.o.o.o.o.o.} o.o.y.y.W 3 3 O   & $X$X0.g z z.p.p.p.p.p.p.p.",
"p.p.p.p.p.p.p.p.p.            @ T T i.s.l.m.m.m.m.m.m.m.m.m.m.m.m.m.m.m.m.s.l.a.T T 1             x.z.p.p.p.p.p.p.p.",
"p.p.p.p.p.p.p.p.p.X X X X     @ E R i.N.N.N.N.N.N.N.N.N.N.N.N.N.N.N.N.N.N.N.N.d.R Q 9 X X X X X X x.z.p.p.p.p.p.p.p.",
"p.p.p.c.V.V.V.k.p.p.p.p.p.p.  . n n W i.i.f.N.N.N.N.N.N.N.N.N.N.N.N.N.N.l.i.i.! n B p.p.h.h.h.p.p.p.p.p.p.p.p.p.p.p.",
"p.p.p.c.C.C.C.c.p.p.p.p.p.p.        C R Q d.N.N.N.N.N.N.N.N.N.N.N.N.N.N.f.t.R I   * p.p.p.p.p.p.p.p.p.p.p.p.p.p.p.p.",
"p.p.p.c.C.C.C.c.p.p.p.p.p.p.        M T W a.s.s.s.s.s.s.s.s.s.s.s.s.s.s.a.W E D   * p.p.p.p.p.p.p.p.p.p.p.p.p.p.p.p.",
"h.h.h.c.V.V.V.k.p.p.p.p.p.p.  X s s e < 1 4 7 7 7 7 7 7 7 7 7 7 7 7 7 7 4 , < +     p.p.p.p.p.p.p.p.p.p.p.p.p.p.p.p.",
"#.#.#.g.x.x.x.d.p.p.p.p.p.p.    s s ;                                                   p.p.p.p.p.p.p.p.p.p.p.p.p.p.",
"#.#.#.g.x.x.x.p.p.p.p.p.p.p.p.Z.~ : =         i p.p.p.p.p.x.x.x.    = - - - - - = = X   p.p.p.p.p.p.p.p.p.p.p.p.p.p.",
"#.#.#.g.x.x.x.p.p.p.p.p.p.p.p.p.p.            p.p.p.p.p.p.x.x.x.    s h h h h g s s o   p.p.p.p.p.p.p.p.p.p.p.p.p.p.",
"g.g.g.h.k.k.k.p.p.p.p.p.p.p.p.p.p.* * * * * * p.p.p.p.p.p.k.k.k.  * s k k k k g s s ; * p.p.p.p.p.p.p.p.p.p.p.p.p.p.",
"p.p.p.p.p.p.p.p.p.p.p.p.p.p.p.S.p.p.p.p.p.p.p.p.p.p.p.p.p.p.p.p.p.p.;.r q q q - = ; p.p.p.p.p.p.p.p.p.p.p.p.p.p.p.p.",
"p.p.p.p.p.p.p.p.p.p.p.p.p.p.p.p.p.p.p.p.p.p.p.p.p.p.p.p.p.p.p.p.p.p.p.            * p.p.p.p.p.p.p.p.p.p.p.p.p.p.p.p.",
"p.p.p.p.p.p.p.p.p.p.p.p.p.p.p.p.p.p.p.p.p.p.p.p.p.p.p.p.p.p.p.p.p.p.p.+ + + + + + e p.p.p.p.p.p.p.p.p.p.p.p.p.p.p.p."
};
