/* XPM */
static char *_f1f5a9da6784cc6a6a71862e0bc1c5e[] = {
/* columns rows colors chars-per-pixel */
"58 58 229 2 ",
"   c #000101",
".  c #050806",
"X  c #09090A",
"o  c #140B06",
"O  c #011404",
"+  c #041A05",
"@  c #041909",
"#  c #1C1704",
"$  c #010B17",
"%  c #080C16",
"&  c #1D1813",
"*  c #1A1A1A",
"=  c #27140C",
"-  c #371C0C",
";  c #271B16",
":  c #361E18",
">  c #052306",
",  c #082A06",
"<  c #022609",
"1  c #042A0A",
"2  c #092D09",
"3  c #02370B",
"4  c #0A3409",
"5  c #003D0D",
"6  c #0B3C0C",
"7  c #103609",
"8  c #1D3B09",
"9  c #0E2C15",
"0  c #2A2802",
"q  c #3B210F",
"w  c #363504",
"e  c #252417",
"r  c #3B2111",
"t  c #3F2E16",
"y  c #061221",
"u  c #122234",
"i  c #252525",
"p  c #352D2F",
"a  c #3D3C25",
"s  c #47271C",
"d  c #473211",
"f  c #6F3807",
"g  c #673819",
"h  c #6D3E1E",
"j  c #703B13",
"k  c #703E1D",
"l  c #473426",
"z  c #653B22",
"x  c #0B4405",
"c  c #04400B",
"v  c #0D420D",
"b  c #16480D",
"n  c #0B4412",
"m  c #0D4B12",
"M  c #094918",
"N  c #134C10",
"B  c #11441B",
"V  c #0E5215",
"C  c #0A531B",
"Z  c #0D5D1C",
"A  c #195714",
"S  c #2F4D0F",
"D  c #0E621D",
"F  c #1C6219",
"G  c #246D19",
"H  c #2B6A1D",
"J  c #2B7A1D",
"K  c #317E1E",
"L  c #125226",
"P  c #31572B",
"I  c #0C6520",
"U  c #0F6B22",
"Y  c #156723",
"T  c #0F7226",
"R  c #0F7B29",
"E  c #117526",
"W  c #187826",
"Q  c #107B29",
"!  c #30682F",
"~  c #247925",
"^  c #4C4A0E",
"/  c #75431D",
"(  c #52710C",
")  c #6E7905",
"_  c #544625",
"`  c #565322",
"'  c #4D4B30",
"]  c #694526",
"[  c #734120",
"{  c #774726",
"}  c #645222",
"|  c #6E522D",
" . c #764E31",
".. c #7E5434",
"X. c #556933",
"o. c #6A6022",
"O. c #1C3044",
"+. c #2F3849",
"@. c #184859",
"#. c #336644",
"$. c #2D4C6B",
"%. c #384C64",
"&. c #2F5173",
"*. c #325374",
"=. c #086F75",
"-. c #2F6C67",
";. c #484B58",
":. c #565154",
">. c #69514B",
",. c #725349",
"<. c #6B7453",
"1. c #657260",
"2. c #85562A",
"3. c #875C37",
"4. c #906736",
"5. c #956936",
"6. c #9C763E",
"7. c #A3783D",
"8. c #845D47",
"9. c #8E6848",
"0. c #93704E",
"q. c #9A7657",
"w. c #A47A41",
"e. c #A37D59",
"r. c #9A7B64",
"t. c #128227",
"y. c #1B8129",
"u. c #268629",
"i. c #368B22",
"p. c #2D9229",
"a. c #2D992D",
"s. c #3E9C27",
"d. c #359728",
"f. c #3A9D29",
"g. c #33893A",
"h. c #2E9232",
"j. c #309433",
"k. c #31A42D",
"l. c #3EA229",
"z. c #35AC2C",
"x. c #37B22C",
"c. c #3AA732",
"v. c #7A8708",
"b. c #678F12",
"n. c #438123",
"m. c #459D28",
"M. c #4EA222",
"N. c #41A429",
"B. c #53AB2A",
"V. c #4BBB37",
"C. c #4FBF39",
"Z. c #4A944A",
"A. c #578E5E",
"S. c #65A05F",
"D. c #73906C",
"F. c #8A8901",
"G. c #899807",
"H. c #839908",
"J. c #918719",
"K. c #8F9A18",
"L. c #AF9319",
"P. c #A9AA02",
"I. c #B7B903",
"U. c #B19037",
"Y. c #96AF35",
"T. c #C6AE2D",
"R. c #DCBD32",
"E. c #A8CC16",
"W. c #A5CD1D",
"Q. c #B1D110",
"!. c #A1C821",
"~. c #C3C904",
"^. c #D5D602",
"/. c #E6E403",
"(. c #E3E609",
"). c #F3EC0E",
"_. c #EEF305",
"`. c #F2F402",
"'. c #F6F902",
"]. c #FBFC02",
"[. c #F9F30A",
"{. c #D4C927",
"}. c #EBDD2A",
"|. c #E8CB38",
" X c #F2E42D",
".X c #A98149",
"XX c #B9904E",
"oX c #AA8853",
"OX c #AA8758",
"+X c #B18E5C",
"@X c #93986C",
"#X c #AF8F6F",
"$X c #B79976",
"%X c #CB9B4C",
"&X c #D9A651",
"*X c #D7A954",
"=X c #DBAB51",
"-X c #E1B84B",
";X c #E3BC55",
":X c #C19E74",
">X c #C8A77B",
",X c #D0AF7F",
"<X c #0179A4",
"1X c #677282",
"2X c #0C81AB",
"3X c #2E94B8",
"4X c #778B9B",
"5X c #03A1CD",
"6X c #18A7D4",
"7X c #0AB9F6",
"8X c #969997",
"9X c #AB9488",
"0X c #BEAB9F",
"qX c #8094A7",
"wX c #ADABAC",
"eX c #CCAD84",
"rX c #D6B58C",
"tX c #C6AD92",
"yX c #D8BB94",
"uX c #92C580",
"iX c #A5E294",
"pX c #E0C59C",
"aX c #E9CBA3",
"sX c #F6DDB5",
"dX c #F6E0B7",
"fX c #FFE6BD",
"gX c #A9B5C3",
"hX c #EBF3ED",
"jX c #FBFDFC",
/* pixels */
"a.a.a.a.a.a.a.a.a.a.a.a.a.a.a.a.a.a.a.a.a.0...9.oXoXoXoXoXoXoX0.....a.a.a.a.a.a.a.a.a.a.a.a.a.a.a.a.a.a.a.a.a.a.a.a.",
"a.a.a.a.a.a.a.a.a.a.a.a.a.a.a.a.a.a.a.a.a.8.k 2.w.w.w.w.w.w.w.4.k k a.a.a.a.a.a.a.a.a.a.a.a.a.a.a.a.a.a.a.a.a.a.a.a.",
"a.a.a.a.a.a.a.a.a.a.a.a.a.a.a.a.a.a.S.@Xa.U.L.L.T.T.T.T.T.T.T.U.5.5.a.a.a.a.a.a.a.a.a.a.a.a.a.a.a.a.a.a.a.a.a.a.a.a.",
"a.a.a.a.a.a.a.a.a.a.a.a.a.a.a.a.OX.X*X=X;X).'.'.].].].].].].].}.&X&X_ i a.a.a.a.a.a.a.a.a.a.a.a.a.a.a.a.a.a.a.a.a.a.",
"a.a.a.a.a.a.a.a.a.a.a.a.a.a.a.a..Xw.%X=X-X).].].].].].].].].'.}.*X=Xd   a.a.a.a.a.a.a.a.a.a.a.a.a.a.a.a.a.a.a.a.a.a.",
"a.a.a.a.a.a.a.a.a.a.a.a.a.a.a.eX%X%X|. X}.W.W.W.W.W.W.W.W.W.W.Y.Y.Y.n.J X.a.a.a.a.a.a.a.a.a.a.a.a.a.a.a.a.a.a.a.a.a.",
"a.a.a.a.a.a.a.a.a.a.a.a.a.+X7.XX=X=X X]._.B.l.l.l.l.l.l.l.l.l.l.l.l.N.N.K O   a.a.a.a.a.a.a.a.a.a.a.a.a.a.a.a.a.a.a.",
"a.a.a.a.a.a.a.a.a.a.a.a.a.+X.XXX-X-X X'.(.B.s.s.s.s.s.s.s.s.s.s.s.s.s.s.K 7 7 a.a.a.a.k.z.z.z.a.a.a.a.z.z.z.k.a.a.a.",
"a.a.a.a.a.a.a.a.a.a.a...3.%X&X|.[.[.W.B.M.A N N N N N N N N N N N N N N F i.i.H % a.a.k.x.x.x.a.a.a.a.x.x.x.k.a.a.a.",
"a.a.a.a.a.a.a.a.a.a.a.j { %X=X|.].].!.N.s.N v v v v v v v v v v v v v c F s.N.H   a.a.k.x.x.x.a.a.a.a.x.x.x.k.a.a.a.",
"a.a.a.a.a.a.a.a.a.a.a.2.4.R.|.{.E.E.b.J J G G G G G G G G G G G G G G G G J J F 3 B a.k.z.z.z.k.a.a.k.z.z.z.k.a.a.a.",
"a.a.a.a.a.a.a.a.a.a.a.7.U.).].Q.u.W Z v A d.N.N.N.N.N.N.N.N.N.N.N.N.N.N.i.N v D Q Q 9   a.a.a.z.x.x.z.a.a.a.a.a.a.a.",
"a.a.a.a.a.a.a.a.a.a.a.7.U./.'.Q.~ Q Z v A d.N.N.N.N.N.N.N.N.N.N.N.N.N.N.i.N v Z Q R @   a.a.a.z.x.x.x.a.a.a.a.a.a.a.",
"a.a.a.a.a.a.a.a.a.a.a.a.a.K.H.( A V m v A d.N.N.N.N.N.N.N.N.N.N.N.N.N.N.d.W U D V V O   a.a.a.z.x.x.x.a.a.a.a.a.a.a.",
"a.a.a.a.a.a.a.k.z.z.k.a.a.! v v v v v v A d.N.N.N.N.N.N.N.N.N.N.N.N.N.N.d.Q Q D v v .   z.z.z.k.k.k.k.z.z.z.k.a.a.a.",
"a.a.a.a.a.a.a.z.x.x.z.a.a.P v 6 6 6 A A G s.N.N.N.N.N.N.N.N.N.l.f.f.f.f.p.W T D V m > O x.x.x.k.a.a.a.x.x.x.k.a.a.a.",
"a.a.a.a.a.a.a.z.+XoX>XyXrXP c 4 .   K s.s.N.N.N.N.N.N.N.N.N.N.d.Q Q Q t.E m m Z E T n 3 X.rXyX>XoX#Xa.x.x.x.k.a.a.a.",
"a.a.a.a.a.a.a.z.oXw.:XrXeXP c 2     i.N.N.N.N.N.N.N.N.N.N.N.N.p.R Q Q Q U m v D Q Q m c X.eXrX$Xw.+Xa.x.x.x.k.a.a.a.",
"a.a.a.a.a.a.0XtX,X,XyXaXpXP c 2     ~ p.p.l.N.N.N.N.d.p.p.p.p.u.R Q C M M Z Z U Q Q m c <.pXaXyX,XeXtX0Xa.a.a.a.a.a.",
"a.a.a.a.a.3.j e.sXfXfXfXsXP v 2     I R y.f.N.N.N.N.u.R R R R R Q Q <   1 T Q Q Q Q m 5 <.dXfXfXfXsX3.j r.a.a.a.a.a.",
"a.a.a.a.a.3.f e.sXfXfXfXsXP v 2     I Q y.f.N.N.N.N.u.Q Q Q Q Q Q Q <   1 T Q Q Q Q m 5 <.sXfXfXfXsX3.f OXa.a.a.a.a.",
"a.a.a.a.a.a.a.a.0.9.e.+XOXS c 2     I Q Q y.y.y.y.y.Q Q T V m 6 < < 4 6 V Q Q Q Q Q m c ` OX+Xq.9.r.a.a.a.a.a.a.a.a.",
"a.a.a.a.a.a.a.a.../ 4.w.6.S x ,     I Q Q Q Q Q Q Q Q Q T m v 2     6 v V E Q Q Q R m x ` 6.w.3.k 8.a.a.a.a.a.a.a.a.",
"a.a.a.a.a.a.a.a.9X#Xq.5.4.-.=.@..   C U U Q Q E U U I Z C 6 4 > + + 6 v m D U U U U =.=.-.4.5.r.#X9Xa.a.a.a.a.a.a.a.",
"a.a.a.a.a.a.a.a.a.a.a./ ,.6X7X<X$   6 v V T Q U v v > . . . . > 6 6 v v v v v v m L 5X7X3X .{ a.a.a.a.a.a.a.a.a.a.a.",
"a.a.a.a.a.a.a.a.a.a.a.j >.6X7X2X$   4 v m T R D v v +         > v v v v v v v v b L 6X7X3X ./ a.a.a.a.z.z.z.k.a.a.a.",
"a.a.a.a.a.a.a.a.a.a.a.- ' uXiXD.@   4 v v Z Z m > > , , , , , 4 v v v v v v v S ^ _ uXiXD.l d a.a.a.a.x.x.x.k.a.a.a.",
"a.a.a.a.a.a.a.a.a.a.a.  ^ ^.].P.#   4 v v v v 2     6 v v v v v v v v v v v v ^ [ / /.].I.0   Z.a.a.a.x.x.x.k.a.a.a.",
"a.a.a.a.a.a.a.a.a.a.a.i ' ^.].P.0 o 7 v v v v 2 .   6 v v v v v v v v v b S S ^ [ { /.].I.a i a.a.a.a.x.x.x.k.a.a.a.",
"a.a.a.k.x.x.x.a.a.a.a.x.x.a w d 6.6._ . . . . + 6 6 v v v v v v v v v 5 ) /.`.{.7.6.t 0 a.a.a.z.x.x.z.a.a.a.k.x.x.x.",
"a.a.a.k.x.x.x.a.a.a.a.x.x.i   t w.w.]         O 5 5 c v v v v c 5 5 5 5 b.`.].{.w.w.#   a.a.a.z.x.x.z.a.a.a.k.x.x.x.",
"a.a.a.k.x.x.x.a.a.a.a.x.x.x.N.a.| | t   0 ) ) F.H.H.S v v v v ( H.H.H.H.H.P.P.J.| | a.a.8Xa.a.z.x.x.z.a.a.a.k.x.x.x.",
"a.a.a.k.z.z.z.k.k.k.k.z.z.z.k.a.; o     ^ ^.'.'.'.'.v.v v v b H.'.'.'.'.~.w # # o i a.a.a.a.a.k.z.z.k.a.a.a.k.z.z.z.",
"a.a.a.a.a.a.a.z.x.x.z.a.a.a.a.a.* .     ^ ^.`.`.`.`.v.b b b b G.`.`.`.'.I.w     . i a.a.a.a.a.a.a.a.a.a.a.a.a.a.a.a.",
"a.a.a.a.a.a.a.z.x.x.z.a.a.a.a.a.Z Z n 4 S v.G.G.F.F.I.~.~.~.~.P.F.F.G.G.) 8 4 M Z Y a.a.a.a.a.a.a.a.a.a.a.a.a.a.a.a.",
"a.a.a.a.a.a.a.z.x.x.z.a.a.a.  1 Q Q Z v v c 5 <     /.].].].].P.    3 5 5 v v D Q R O   a.a.a.a.a.a.a.a.a.a.a.a.a.a.",
"a.a.a.k.z.z.z.k.a.a.k.z.z.z.y P A.A.! 6 6 n m 6 < . ^.`.`.`._.P.@ < n m n 6 6 ! A.A.e   a.a.a.a.a.a.a.a.a.a.a.a.a.a.",
"a.a.a.k.x.x.x.a.a.      $ $.$.4XhXhX8X  < I E T T T t.t.t.t.t.Q T T T E Z + X 8XhXhX>.s :         a.a.a.a.a.a.a.a.a.",
"a.a.a.k.x.x.x.a.a.      $ $.&.qXjXjX8X  < U Q Q Q Q R R R R R Q Q Q Q Q Z + X wXjXjX>.s :         a.a.a.a.a.a.a.a.a.",
"a.a.a.k.z.z.z.a.a r - r : %.&.1X0X0X1.  < U Q Q Q Q Q Q Q Q Q Q Q Q Q Q Z + . 1.gXgX:.+.p r r r r l D.a.a.a.a.a.a.a.",
"a.a.a.a.a.a.X ; h [ [ [ ] %.*.;.{ [ s   < U Q Q Q Q Q Q Q Q Q Q Q Q Q Q Z +   O.*.*.*.*.;.] [ [ [ h o   a.a.a.a.a.a.",
"a.a.a.a.a.a.  = h [ [ { { %.$.;.z h -   < U Q Q Q Q Q Q Q Q Q Q Q Q Q Q Z +   O.$.$.$.$.;.{ { [ [ h o   a.a.a.a.a.a.",
"a.a.a.a.a.a.  = h [ e.>X$Xp u i - - A U H ` } } } } } } } } } } } } } } ` Y U L u u u u ' $X:Xq./ h o   a.a.a.a.a.a.",
"a.a.a.a.a.a.  = h [ #XrXeX;         I Q ~ ] [ [ [ [ [ [ [ [ [ [ [ [ [ [ ` W Q C         ' eXrXOXk h o   a.a.a.a.a.a.",
"a.a.a.a.a.a.a.a.z g q.$X$X&   O 3 3 W u.u.o.o.o.o.o.o.o.o.o.o.o.o.o.o.o.X.u.y.D 3 3 .   l $X$X0.g z z.Z.a.a.a.a.a.a.",
"a.a.a.a.a.a.a.a.a.            1 T T d.l.l.m.m.m.m.m.m.m.m.m.m.m.m.m.m.m.m.l.f.p.T T @             x.z.a.a.a.a.a.a.a.",
"a.a.a.a.a.a.a.a.a.X X X X X X 9 Q R d.N.N.N.N.N.N.N.N.N.N.N.N.N.N.N.N.N.N.N.N.p.R Q @     X X X X x.z.a.a.a.a.a.a.a.",
"a.a.a.c.V.V.V.k.a.a.a.a.a.a.a.a.B n ~ p.p.l.N.N.N.N.N.N.N.N.N.N.N.N.N.N.f.p.p.W n n .   h.h.h.a.a.a.a.a.a.a.a.a.a.a.",
"a.a.a.c.C.C.C.k.a.a.a.a.a.a.a.a.*   I R y.f.N.N.N.N.N.N.N.N.N.N.N.N.N.N.d.Q R C         a.a.a.a.a.a.a.a.a.a.a.a.a.a.",
"a.a.a.c.C.C.C.k.a.a.a.a.a.a.a.a.*   D E W d.s.s.s.s.s.s.s.s.s.s.s.s.s.s.p.W T M         a.a.a.a.a.a.a.a.a.a.a.a.a.a.",
"h.h.h.c.V.V.V.k.a.a.a.a.a.a.a.a.    + < , 4 7 7 7 7 7 7 7 7 7 7 7 7 7 7 4 < < e s s X   a.a.a.a.a.a.a.a.a.a.a.a.a.a.",
"#.#.#.g.x.x.x.a.a.a.a.a.a.a.                                                  ; s s     a.a.a.a.a.a.a.a.a.a.a.a.a.a.",
"#.#.#.g.x.x.x.a.a.a.a.a.a.a.  X = = - - - - - =     a.a.a.x.x.x.z.a.i         = : ! Z.a.a.a.a.a.a.a.a.a.a.a.a.a.a.a.",
"#.#.#.g.x.x.x.a.a.a.a.a.a.a.  o s s g h h h h s     a.a.a.x.x.x.z.a.a.            a.a.a.a.a.a.a.a.a.a.a.a.a.a.a.a.a.",
"g.g.g.j.k.k.k.a.a.a.a.a.a.a.* ; s s g k k k k s *   a.a.a.k.k.k.k.a.a.* * * * * * a.a.a.a.a.a.a.a.a.a.a.a.a.a.a.a.a.",
"a.a.a.a.a.a.a.a.a.a.a.a.a.a.a.a.; = - q q q q :.a.a.a.a.a.a.a.a.a.a.a.a.a.a.a.a.a.a.S.a.a.a.a.a.a.a.a.a.a.a.a.a.a.a.",
"a.a.a.a.a.a.a.a.a.a.a.a.a.a.a.a.*             a.a.a.a.a.a.a.a.a.a.a.a.a.a.a.a.a.a.a.a.a.a.a.a.a.a.a.a.a.a.a.a.a.a.a.",
"a.a.a.a.a.a.a.a.a.a.a.a.a.a.a.a.i @ @ @ @ @ @ a.a.a.a.a.a.a.a.a.a.a.a.a.a.a.a.a.a.a.a.a.a.a.a.a.a.a.a.a.a.a.a.a.a.a."
};
