/* XPM */
static char *_7d768648d5b4f179639d02410e1e3b2[] = {
/* columns rows colors chars-per-pixel */
"58 58 237 2 ",
"   c #000001",
".  c #0B0706",
"X  c #010B02",
"o  c #170907",
"O  c #031604",
"+  c #031B04",
"@  c #041C09",
"#  c #050F16",
"$  c #121313",
"%  c #13131A",
"&  c #1A1A1B",
"*  c #25140C",
"=  c #2F1209",
"-  c #2B1712",
";  c #271C16",
":  c #062808",
">  c #052A0C",
",  c #053608",
"<  c #0B3B0B",
"1  c #073712",
"2  c #103312",
"3  c #2E2818",
"4  c #3C2319",
"5  c #2E302A",
"6  c #343435",
"7  c #36363B",
"8  c #421300",
"9  c #44261D",
"0  c #492918",
"q  c #563118",
"w  c #66391C",
"e  c #6A3B1E",
"r  c #713D1C",
"t  c #4B2920",
"y  c #4D3427",
"u  c #463A2C",
"i  c #693920",
"p  c #723E20",
"a  c #014205",
"s  c #0D430D",
"d  c #114A0F",
"f  c #074816",
"g  c #0D4D14",
"h  c #174813",
"j  c #075717",
"k  c #0E5416",
"l  c #0D5A1B",
"z  c #195916",
"x  c #2E4616",
"c  c #0B611F",
"v  c #05691C",
"b  c #18621A",
"n  c #246918",
"m  c #3B6D1C",
"M  c #28741A",
"N  c #2C7A1D",
"B  c #195A26",
"V  c #265928",
"C  c #324C34",
"Z  c #0C6421",
"A  c #0E6B22",
"S  c #166B25",
"D  c #0F7326",
"F  c #057926",
"G  c #0E7B29",
"H  c #107426",
"J  c #1B7926",
"K  c #107B29",
"L  c #2C6F2D",
"P  c #53500D",
"I  c #69431E",
"U  c #72411F",
"Y  c #695C17",
"T  c #757210",
"R  c #56462E",
"E  c #575724",
"W  c #634B24",
"Q  c #6D4824",
"!  c #734121",
"~  c #7A4A26",
"^  c #6D5325",
"/  c #725132",
"(  c #446A26",
")  c #5A722C",
"_  c #6B652F",
"`  c #336644",
"'  c #396042",
"]  c #7D5442",
"[  c #77704F",
"{  c #7D6951",
"}  c #485160",
"|  c #78706B",
" . c #967219",
".. c #845629",
"X. c #865A38",
"o. c #82642E",
"O. c #8A6B31",
"+. c #956B39",
"@. c #9B723D",
"#. c #A77A3A",
"$. c #A67D3E",
"%. c #8D6647",
"&. c #906F51",
"*. c #8B7053",
"=. c #847A56",
"-. c #A47B41",
";. c #A67C45",
":. c #A07753",
">. c #2F821F",
",. c #168129",
"<. c #1C8429",
"1. c #298A27",
"2. c #368425",
"3. c #348C22",
"4. c #2D922C",
"5. c #2D992D",
"6. c #3A9425",
"7. c #399927",
"8. c #349C2B",
"9. c #3B9E29",
"0. c #308538",
"q. c #368A38",
"w. c #2E9132",
"e. c #2F9138",
"r. c #3FA325",
"t. c #31A42D",
"y. c #3FA229",
"u. c #35AD2C",
"i. c #37B22C",
"p. c #3AA732",
"a. c #72AB1A",
"s. c #528727",
"d. c #4A9728",
"f. c #698D32",
"g. c #41A429",
"h. c #49A329",
"j. c #4DA731",
"k. c #48B936",
"l. c #4EBE39",
"z. c #338B43",
"x. c #4C9651",
"c. c #65A665",
"v. c #61A370",
"b. c #8D8A08",
"n. c #B29D18",
"m. c #95AD1E",
"M. c #B2A016",
"N. c #928B38",
"B. c #AC863D",
"V. c #B39431",
"C. c #B79738",
"Z. c #B5AF2A",
"A. c #C2AD11",
"S. c #C5B211",
"D. c #C2A82D",
"F. c #CDB331",
"G. c #92C71D",
"H. c #A9C01C",
"J. c #D0D118",
"K. c #E5DB19",
"L. c #CFE314",
"P. c #ECEA08",
"I. c #F8F604",
"U. c #FEFE01",
"Y. c #EDE617",
"T. c #F3EA19",
"R. c #F5F010",
"E. c #D6C531",
"W. c #E4DA24",
"Q. c #ECD536",
"!. c #F9F623",
"~. c #FBFA36",
"^. c #968753",
"/. c #AD8743",
"(. c #B78B46",
"). c #BD9849",
"_. c #AC8554",
"`. c #B38C56",
"'. c #BFA559",
"]. c #9A8E69",
"[. c #A5926F",
"{. c #B89569",
"}. c #B79873",
"|. c #A8A97E",
" X c #C18F46",
".X c #C99B4A",
"XX c #D5A74B",
"oX c #D0AC4A",
"OX c #D6A550",
"+X c #DDAB52",
"@X c #E1B648",
"#X c #D5BB6E",
"$X c #C5A47B",
"%X c #D9CF58",
"&X c #E8D654",
"*X c #224B9A",
"=X c #38559C",
"-X c #126E95",
";X c #636898",
":X c #678C91",
">X c #00BCFE",
",X c #3EB3E4",
"<X c #52B7EA",
"1X c #928F8F",
"2X c #A99990",
"3X c #BBA98B",
"4X c #ADABA9",
"5X c #CBAD85",
"6X c #CFAF86",
"7X c #C7AC89",
"8X c #D2B187",
"9X c #D5B48B",
"0X c #CDB796",
"qX c #D5BA94",
"wX c #DCBC93",
"eX c #E3BE88",
"rX c #E9D087",
"tX c #E2C49A",
"yX c #D8CBB6",
"uX c #E4CAA4",
"iX c #EBCEA6",
"pX c #ECD1A9",
"aX c #F3D8AB",
"sX c #E3D1B5",
"dX c #F6DDB3",
"fX c #FFEAA1",
"gX c #FEE5BD",
"hX c #CCC7C6",
"jX c #C4C7D8",
"kX c #D5DAD6",
"lX c #EADFC8",
"zX c #FFE9C5",
"xX c #FFEED1",
"cX c #E1E1E1",
"vX c #EFF5F0",
"bX c #F9F8F2",
"nX c #FEFDFC",
/* pixels */
"5.5.5.5.5.5.5.5.5.5.5.5.5.5.5.5.5.5.5.5.5.5.5.5.5.5.5.5.5.5.5.5.5.5.5.5.5.5.5.5.5.5.5.5.5.5.5.5.5.5.5.5.5.5.5.5.5.5.",
"5.5.5.5.5.5.5.5.5.5.5.5.5.5.5.$.#...r I J F v a a M r.r.r.r.7.G F 5.5.5.5.5.5.5.5.5.5.5.5.5.5.5.5.5.5.5.5.5.5.5.5.5.",
"5.5.5.5.5.5.5.5.5.5.5.5.5.5.5.B.$...! W J K A s s N g.g.g.g.9.,.G 5.5.5.5.5.5.5.5.5.5.5.5.5.5.5.5.5.5.5.5.5.5.5.5.5.",
"5.5.5.5.5.5.5.5.5.5.5.5.eXeX&XT.Y.V.@.O.d.9.2.s s N g.g.g.g.g.9.9.x.5.5.5.5.5.5.5.5.5.5.5.5.5.5.5.5.5.5.5.5.5.5.5.5.",
"5.5.5.5.5.5.5.5.5.{.-.(.+X+XQ.U.I.Z.-.N.h.g.3.s s N g.g.g.g.g.g.g.g.g.g.1.G z.5.5.5.5.5.5.5.5.5.5.5.5.5.5.5.5.5.5.5.",
"5.5.5.5.5.5.5.5.5.'.C.C.OXOXQ.T.Y.D././.j.g.3.s s N g.g.g.g.g.g.g.g.g.g.4.<.z.5.5.5.5.5.5.5.5.5.5.5.5.5.5.5.5.5.5.5.",
"5.5.5.5.5.5.5._.).K.I.K././.B.B.B..XOX.Xj.g.3.s s N g.g.g.g.g.g.g.g.g.g.y.9.9.e.z.L V z 5.5.5.5.5.5.5.5.5.5.5.5.5.5.",
"5.5.5.5.5.5.5.-.C.P.U.K.-.-.-.-.;..X+XoXj.g.3.s s N g.g.g.g.g.g.g.g.g.g.g.g.y.<.G A s , i.i.u.5.5.5.5.u.u.u.t.5.5.5.",
"5.5.5.5.5.5.#XD.F.J.K.F.(.(.(.(.).F.Q.E.G.G.a.n n M >.2.9.g.g.g.g.g.g.g.g.g.y.4.1.J l j i.i.i.5.5.5.5.i.i.i.t.5.5.5.",
"5.5.5.5.;.;.Y.U.R.C.-.(.+X+X+X+X@XT.U.U.U.U.L.g.g.M s d 6.g.g.g.g.g.g.g.g.g.g.g.g.7.K K S h V 5.5.5.5.i.i.i.t.5.5.5.",
"5.5.5.5.#.-.T.U.R.C.-.(.+X+X+X+X@XT.U.U.U.U.L.g.g.M s s 6.g.g.g.g.g.g.g.g.g.g.g.g.7.K K A s h t.5.5.t.u.u.u.t.5.5.5.",
"5.5.5.5...X.Y.U.R.F..X(.#.#.(.)..XY.U.I.E.F.Z.g.g.M s s 6.g.9.N M M M M 6.g.g.g.g.7.K K H A S u.i.i.u.5.5.5.5.5.5.5.",
"5.5.5.5.r i P.U.R.@X+X X! r +.-.B.K.U.P.B.-.N.g.g.M s s 6.g.6.d s s s s 2.g.g.g.g.7.K K K K K j , V i.5.5.5.5.5.5.5.",
"5.5.5.5.] ] K.I.T.@X+X X~ ~ +.;./.K.I.Y.C.B.N.h.h.M d d 6.9.6.z d d d d 2.y.y.y.g.7.K K K K K k s V i.5.5.5.5.5.5.5.",
"5.5.5.5.5.5.[. . .B./.`.}.}.$X$X$X).C.D.K.Y.E.N.N.f.3.3.n z n 3.3.3.3.3.1.<.<.<.<.<.K K K K K k s V t.u.u.u.t.5.5.5.",
"5.5.5.5.5.5.5.r ~ @.-.`.9X9X9X9X8X`.-.B.I.U.W.$.-.f.g.9.z s z 7.g.g.g.g.1.G K K K K K K K K K k s V 5.i.i.i.t.5.5.5.",
"5.5.5.5.5.5.5.&.*.X.o.:.9X9XwXwXwX{._.).R.U.W.$.-.f.8.7.b k z 3.3.6.7.7.1.K K K K K K K K K K l g V 5.i.i.i.t.5.5.5.",
"5.5.5.5.5.5.5.u.i.u * R 8X9XiXgXdXwX8X#X!.U.W.$.-.) ,.K K K H k d b K K K K K K K K K K K K K K H H L ' i.i.t.5.5.5.",
"5.5.5.5.5.5.5.5.5.6   R 8X9XpXgXgXtX9X#X!.U.W.B.-.) G G K K H g s l K K K K K K K K K K K K K K K H g s 5.5.5.5.5.5.",
"5.5.5.5.5.5.5.5.5.6   u }.}.7X0X0XqXuXrX!.U.W.B.-._ ( ( n A c s s k A A H K K K K K K K K K K K K H g s 5.5.5.5.5.5.",
"5.5.5.5.5.5.5.5.5.6   * r r 8   ; 3XgXfX~.U.W.B.-.X.p I x s s s s s s s A K K K K K K K K K K K K H g s 5.5.5.5.5.5.",
"5.5.5.5.5.5.5.5.5.6   - ! ! 0 $ 5 3XgXfX~.U.W.B.-.X.! I x h h h h h h h S K K K K K K K K K K K K H g s 5.5.5.5.5.5.",
"5.5.5.5.5.5.5.5.5.[ *.| } } 1X4X4XsXgXaXoXF.D..X.X+.p ! =.^.].|.|.|.|.|.[ j l l l k 1 1 f l l A K H g s C 5.5.5.5.5.",
"5.5.5.5.5.5.5.  u }.9X2X=X*XjXnXnXxXgXaX_.-.(.+X+X#.r ~ $X9XwXgXgXgXgXgX[., s s s , X   : s s A K H g s <     5.5.5.",
"5.5.5.5.5.5.5.  u }.9X2X=X*XjXnXnXxXgXaX_.@.(.@X@X#.r ~ 5XwXtXgXgXgXdXaX]., < < < 2 $ $ > < < c H A g s <     5.5.5.",
"5.5.5.5.5.5.5.  u }.9X2X=X*XjXnXnXxXgXiX%.~ n.T.T.n.p ~ uXdXdXgXgXtX{.{._ O O O O 5.5.5.5.  + < k g s s <     5.5.5.",
"5.5.5.5.5.5.5.  u }.9X2X=X*XjXnXnXxXgXiXX.p n.I.U.n.r ~ iXgXgXgXgXwX;.-.W         5.5.5.5.    : s s s s <     5.5.5.",
"5.5.5.5.5.5.5.5.5.[.$X1X;X;XjXbXbXxXgXiXX.p n.I.U.Z.X.%.yXlXlXaXaX6X@.+.W   $ 5.5.5.5.5.5.5.5.5 < < s s <     5.5.5.",
"5.5.5.5.5.5.5.5.5.6   R 7X7XpXzXzXgXgXiXX.p n.I.U.&X5X7X<X>X,X^.;./ .       5.5.5.5.5.5.5.5.c.5.  X < s <     5.5.5.",
"5.5.5.t.i.i.i.5.5.5   u 9X9XpXgXgXgXgXiXX.r M.I.U.&X9X0X<X>X<X^.-.^         5.5.5.5.5.5.5.5.5.u.    < s <     i.i.i.",
"5.5.5.t.i.i.i.5.5.5.5.j.*.*.7XiXpXpXpXtX_.:./.A.S.E.&X%X:X-X-XR W W ^ ^ T b.N.5.5.5.5.5.5.5.5.u.i.i.6 : C 5.t.i.i.i.",
"5.5.5.t.i.i.i.5.5.5.5.i.;   ].9X9X9X9X9X8X8X}.~ ~ A.U.P.T # # . . W OX+XQ.I.~.5.5.5.5.5.5.5.5.u.i.i.u.  5.5.t.i.i.i.",
"5.5.5.t.u.u.u.t.t.t.t.u.$   :.5X5X5X5X5X5X6X{.! U A.U.P.T         W XXOXQ.I.~.5.5.5.5.5.5.5.5.t.u.u.t.5.5.5.t.u.u.u.",
"5.5.5.5.5.5.5.u.i.i.u.5.5.5.5.{ { [ =.=.=.=.[ 0 0 N.Q.E.Y   X : , 3 o.o.b.b.N.5.5.5.5.5.5.5.5.5.5.5.5.5.5.5.5.5.5.5.",
"5.5.5.5.5.5.5.u.i.i.u.5.5.5.5.    : a a a a ,   . o.+X.XW   O < s :         7 5.5.5.5.5.5.5.5.5.5.5.5.5.5.5.5.5.5.5.",
"5.5.5.5.5.5.5.u.i.i.u.5.5.5.5.X + < s s s s ,   . _ +X.XW O : < s :     5 6 5.5.5.5.5.5.5.5.5.5.5.5.5.5.5.5.5.5.5.5.",
"5.5.5.t.u.u.u.t.t.t.t.u.u.u.V A A D D D D D l   X h q.2.S A Z s s :     5.5.5.5.5.5.5.5.5.5.5.5.5.5.5.5.5.5.5.5.5.5.",
"5.5.5.t.i.i.i.5.5.5.5.i.%   j K K K K K K K c   X f F F F F A g s :     5.5.5.5.5.5.5.5.5.5.5.5.5.5.5.5.5.5.5.5.5.5.",
"5.5.5.t.i.i.i.5.5.5.5.i.P P m K K K K K K K c   X ' v.v.v.v.x.< , :     5.5.5.5.5.5.5.5.5.5.5.5.5.5.5.5.5.5.5.5.5.5.",
"5.5.5.t.u.u.u.5.5.5.6 _ P.I.m.F K K K K K K c   $ 1XvXvXvXvXkX@ X X     5.5.5.5.5.5.5.5.5.5.5.8.8.8.8.5.5.5.5.5.5.5.",
"5.5.5.5.5.5.5.5.5.6   P I.U.H.F K K K K K K c   $ 1XnXnXnXnXcX.         5.5.5.5.5.5.5.5.5.5.5.k.l.l.k.5.5.5.5.5.5.5.",
"5.5.5.5.5.5.5.5.5.5   P J.J.m.( ( J G K K K c   . | hXhXhXhX4X.   @ f a 5.5.5.5.5.5.5.5.5.5.5.k.l.l.l.5.5.5.5.5.5.5.",
"5.5.5.5.              > F F E U I L G K K K c     * 8 8 8 8 = .   1 K K a   5.5.5.5.5.5.5.5.5.k.l.l.l.5.5.5.5.5.5.5.",
"5.5.5.5.              > G G E U Q L G K K K c     - t t t t 9 .   1 K K f   5.5.5.5.5.w.0.0.0.k.k.k.k.5.5.5.5.5.5.5.",
"5.5.5.5.    0 q 0 .   > G G 2.s.s.E E E E E P     - t t i i w q q 3 1 > f l B 5.5.5.5.0.` ` ` p.i.i.u.5.5.5.5.5.5.5.",
"5.5.5.5.    w ! w o   > G G 4.g.d.^ r ! ! ! q     - t t e U U U ! 0     c K D @   5.5.0.` ` ` p.i.i.u.5.5.5.5.5.5.5.",
"5.5.5.5.    w ! w * . > A A 3.g.d.) ^ ^ ^ ^ W @ @ ; 9 9 / X.X.X.X.y     c K D @   5.5.0.` ` ` p.i.i.u.5.5.5.5.5.5.5.",
"5.5.5.p.    w ! e 9 4 ; > : N y.g.d.d.d.d.d.2.A A 2 o . 0XuXtX$X$X{ .   c K D @   5.5.5.w.w.w.5.5.5.5.5.5.5.5.5.5.5.",
"5.5.5.p.    w ! p t t 4     N g.g.g.g.g.g.g.8.K K 1     uXgXdXwX9X*.o   c K D @   5.5.5.5.5.5.5.5.5.5.5.5.5.5.5.5.5.",
"5.5.5.p.l.l./ e w 0 t 4 o o M 6.6.7.9.9.9.9.4.D A 1     0XpXuX7X$X{ .   l A S 5.5.5.5.5.5.5.5.5.5.5.5.5.5.5.5.5.5.5.",
"w.w.w.p.l.l.l.  . 4 t t t t -   X l G G G G c                               5.5.5.5.5.5.5.5.5.5.5.5.5.5.5.5.5.5.5.5.",
"` ` ` q.i.i.i.    4 t t t t =     l K K K K Z                               5.5.5.5.5.5.5.5.5.5.5.5.5.5.5.5.5.5.5.5.",
"` ` ` q.i.i.i.5.5.5 - - - * 5.5.5.C f f f f 1               . * - - - - o   5.5.5.5.5.5.5.5.5.5.5.5.5.5.5.5.5.5.5.5.",
"` ` ` q.i.i.i.5.5.4.        5.5.5.5.  X X X X               o 9 9 9 9 9 -   5.5.5.5.5.5.5.5.5.5.5.5.5.5.5.5.5.5.5.5.",
"0.0.0.w.t.t.t.5.5.5.& & &   5.5.5.5.$ & & & & & & & & & .   o 4 9 9 9 9 ; & 5.5.5.5.5.5.5.5.5.5.5.5.5.5.5.5.5.5.5.5.",
"5.5.5.5.5.5.5.5.5.5.5.5.5.5.5.5.5.5.5.5.5.5.5.5.5.5.5.5.5.  . * * * * o 5.5.5.5.5.5.5.5.5.5.5.5.5.5.5.5.5.5.5.5.5.5.",
"5.5.5.5.5.5.5.5.5.5.5.5.5.5.5.5.5.5.5.5.5.5.5.5.5.5.5.5.5.              5.5.5.5.5.5.5.5.5.5.5.5.5.5.5.5.5.5.5.5.5.5.",
"5.5.5.5.5.5.5.5.5.5.5.5.5.5.5.5.5.5.5.5.5.5.5.5.5.5.5.5.5.+ + + + + + + 5.5.5.5.5.5.5.5.5.5.5.5.5.5.5.5.5.5.5.5.5.5."
};
