/* XPM */
static char *f25e97d288744e788eca8e30703a2e9e[] = {
/* columns rows colors chars-per-pixel */
"58 58 236 2 ",
"   c #000101",
".  c #0B0403",
"X  c #020B02",
"o  c #090909",
"O  c #190A07",
"+  c #021603",
"@  c #031B05",
"#  c #081B05",
"$  c #191206",
"%  c #0F0F12",
"&  c #0F1112",
"*  c #131414",
"=  c #1B1B1C",
"-  c #27130B",
";  c #2B1508",
":  c #2B1A13",
">  c #331C16",
",  c #052908",
"<  c #003E04",
"1  c #03300E",
"2  c #0B330C",
"3  c #0C3D0C",
"4  c #10320F",
"5  c #073C14",
"6  c #262D12",
"7  c #3C2518",
"8  c #0F1922",
"9  c #1D2023",
"0  c #252526",
"q  c #2B2926",
"w  c #352D28",
"e  c #3B3427",
"r  c #343634",
"t  c #482817",
"y  c #43251D",
"u  c #4D351B",
"i  c #593219",
"p  c #6E3500",
"a  c #64371B",
"s  c #6D3E1D",
"d  c #723E1B",
"f  c #4B2A20",
"g  c #483525",
"h  c #583424",
"j  c #6C3D20",
"k  c #723D20",
"l  c #024204",
"z  c #0D420D",
"x  c #11480F",
"c  c #0C4612",
"v  c #0D4C13",
"b  c #074B18",
"n  c #194D14",
"m  c #0B541A",
"M  c #0E5B1A",
"N  c #1B5816",
"B  c #2C4213",
"V  c #265617",
"C  c #0F661F",
"Z  c #1B6617",
"A  c #216517",
"S  c #256E19",
"D  c #29761C",
"F  c #2A7A1E",
"G  c #195D3C",
"H  c #264C28",
"J  c #31522C",
"K  c #3E5228",
"L  c #0D6421",
"P  c #0E6C23",
"I  c #156A24",
"U  c #0F7426",
"Y  c #097826",
"T  c #0E7B29",
"R  c #117526",
"E  c #107B29",
"W  c #177829",
"Q  c #336627",
"!  c #247727",
"~  c #367127",
"^  c #4F450F",
"/  c #6F411F",
"(  c #74411D",
")  c #7A4C1F",
"_  c #40661F",
"`  c #757B06",
"'  c #4C4F28",
"]  c #5D4C3C",
"[  c #694723",
"{  c #734221",
"}  c #7A4A28",
"|  c #6C5625",
" . c #735532",
".. c #537129",
"X. c #6B7230",
"o. c #223952",
"O. c #22654B",
"+. c #336644",
"@. c #0E516E",
"#. c #2F4D6D",
"$. c #4B5246",
"%. c #55535D",
"&. c #6A5B55",
"*. c #616947",
"=. c #766857",
"-. c #8A691E",
";. c #875B32",
":. c #8E6C24",
">. c #8D6734",
",. c #976C34",
"<. c #9D753C",
"1. c #A4793C",
"2. c #8E7554",
"3. c #A47B41",
"4. c #A67E5B",
"5. c #8B7367",
"6. c #36861E",
"7. c #1A8129",
"8. c #1E8437",
"9. c #248828",
"0. c #2B8F29",
"q. c #368923",
"w. c #2C922A",
"e. c #2D992D",
"r. c #399324",
"t. c #3D9C27",
"y. c #329D2D",
"u. c #3A9C28",
"i. c #308538",
"p. c #358C3B",
"a. c #2E9132",
"s. c #3DA323",
"d. c #32A42D",
"f. c #3EA229",
"g. c #35AC2C",
"h. c #37B22C",
"j. c #39A632",
"k. c #76AC18",
"l. c #498E26",
"z. c #479A29",
"x. c #41A429",
"c. c #4BA328",
"v. c #4CAB2F",
"b. c #46B735",
"n. c #4BBB37",
"m. c #4EBE39",
"M. c #4B9251",
"N. c #63AE58",
"B. c #6C9366",
"V. c #AB9514",
"C. c #9BBD19",
"Z. c #A4A400",
"A. c #948A39",
"S. c #AB853C",
"D. c #AB8B3D",
"F. c #B2883B",
"G. c #B79938",
"H. c #94B034",
"J. c #C8B315",
"K. c #CBB52B",
"L. c #C3AC35",
"P. c #CBB332",
"I. c #9DC31C",
"U. c #AED317",
"Y. c #DBD91A",
"T. c #E5DB1B",
"R. c #F1EB05",
"E. c #F7F607",
"W. c #FEFD01",
"Q. c #F6F40D",
"!. c #F2EE13",
"~. c #D9C62C",
"^. c #E6D926",
"/. c #F1DD26",
"(. c #EACD38",
"). c #ECD03C",
"_. c #F3E425",
"`. c #8D8659",
"'. c #A98245",
"]. c #B5924E",
"[. c #AB8559",
"{. c #948A6F",
"}. c #AB8C6B",
"|. c #BA9666",
" X c #AF9573",
".X c #B59774",
"XX c #9DA276",
"oX c #BEA57D",
"OX c #BFBF74",
"+X c #C59749",
"@X c #CFAC4F",
"#X c #D9AB4D",
"$X c #D5AA52",
"%X c #DDAB52",
"&X c #E1B44C",
"*X c #E1AF52",
"=X c #C19F79",
"-X c #C3A06F",
";X c #C7A67B",
":X c #E1B66D",
">X c #E8D956",
",X c #F9F56F",
"<X c #2B509C",
"1X c #787698",
"2X c #445EA0",
"3X c #807D9B",
"4X c #00BAFD",
"5X c #3DB0E1",
"6X c #5DB3E0",
"7X c #8E8794",
"8X c #919291",
"9X c #B0A190",
"0X c #B0B1AB",
"qX c #C9A983",
"wX c #D4B48B",
"eX c #D9B98A",
"rX c #C9B595",
"tX c #DABD95",
"yX c #C4B4A7",
"uX c #B9C6B9",
"iX c #E5C69D",
"pX c #E6CCA4",
"aX c #EBD3AC",
"sX c #EFD7AF",
"dX c #F5DCB4",
"fX c #F9DFB6",
"gX c #FDE5B8",
"hX c #FDE4BB",
"jX c #D2D2CA",
"kX c #DFE0DC",
"lX c #FFE7C0",
"zX c #FFF1DC",
"xX c #EEEDEF",
"cX c #FFF6E8",
"vX c #F2F6F3",
"bX c #FFFFFF",
/* pixels */
"e.e.e.e.e.e.e.e.e.e.e.e.e.e.e.e.e.e.e.e.e.e.e.e.e.e.e.e.e.e.e.e.e.e.e.e.e.e.e.e.e.e.e.e.e.e.e.e.e.e.e.e.e.e.e.e.e.e.",
"e.e.e.e.e.e.e.e.e.e.e.e.e.e.e.[.1.>.( s _ Y Y l < Z s.s.s.s.u.Y Y e.e.e.e.e.e.e.e.e.e.e.e.e.e.e.e.e.e.e.e.e.e.e.e.e.",
"e.e.e.e.e.e.e.e.e.e.e.e.e.e.e.].S.,.) ) ..E E c z S x.x.x.x.u.7.W e.e.e.e.e.e.e.e.e.e.e.e.e.e.e.e.e.e.e.e.e.e.e.e.e.",
"e.e.e.e.e.e.e.e.e.e.e.e.].:X:X!.Q.E.E.R.I.f.u.x z S x.x.x.x.x.f.f.v.N.N.e.e.e.e.e.e.e.e.e.e.e.e.e.e.e.e.e.e.e.e.e.e.",
"e.e.e.e.e.e.e.e.e.e.[.3.+X%X%XQ.W.W.W.W.I.f.t.x z S x.x.x.x.x.x.x.x.x.x.7.Y e.e.e.e.e.e.e.e.e.e.e.e.e.e.e.e.e.e.e.e.",
"e.e.e.e.e.e.e.e.e.e.P.P.~.).).^.Y.^._./.C.f.t.x z S x.x.x.x.x.x.x.x.x.x.0.9.B.e.e.e.e.e.e.e.e.e.e.e.e.e.e.e.e.e.e.e.",
"e.e.e.e.e.e.e.e.'.L.Q.W.W.W.E.F.S.].%X#XH.f.t.x z S x.x.x.x.x.x.x.x.x.x.f.f.y.8.8.I n J e.e.e.e.e.e.e.e.e.e.e.e.e.e.",
"e.e.e.e.e.e.e.e.S.L.Q.W.W.W.E.D.3.].%X#XH.c.c.n x S t.f.x.x.x.x.x.x.x.x.x.x.u.7.E C z H g.g.g.e.e.e.e.g.g.g.d.e.e.e.",
"e.e.e.e.e.e.e.(.Y.~.K.K.~.(.(.+X+XP./._.Y.U.U.6.6.D S S r.x.x.x.x.x.x.x.x.x.t.e.w.! C I h.h.h.e.e.e.e.h.h.h.d.e.e.e.",
"e.e.e.e.e.1.1.Q.W.T.S.3.+X%X%X%X%X(.W.W.W.W.E.v.x.F z z r.x.x.x.x.x.x.x.x.x.x.x.x.w.T E l < h.e.e.e.e.h.h.h.d.e.e.e.",
"e.e.e.e.e.<.3.Q.W.T.F.'.+X#X#X%X%X(.W.W.E.E.!.c.x.F z z r.x.x.t.t.t.t.t.x.x.x.x.x.0.T E c l g.d.e.e.d.g.g.g.d.e.e.e.",
"e.e.e.e.e.d k R.W._.&X%X1.{ } 1.3.K.W.W.K.3.S.c.x.F z z r.x.r.n z z z z t.x.x.x.x.0.T E E E I H J h.g.e.e.e.e.e.e.e.",
"e.e.e.e.e.p a E.W._.&X%X1.s ( 1.3.K.W.W.K.3.A.z.f.F z z r.x.r.x z z z z t.x.x.x.x.0.T E E E C z n h.h.e.e.e.e.e.e.e.",
"e.e.e.e.e.e.e.L.J.L.+X+X[.4.[.|.|.@X~.~.G.3.S.U.U.k.F D D D D D D D D D 0.w.w.w.w.7.T E E E C z n h.h.e.e.e.e.e.e.e.",
"e.e.e.e.e.e.e.2.) ;.1.3.|.wXwXwXwX-X'.3.3.3.D.R.W.U.x.t.A z N r.x.x.x.f.7.E E E E E E E E E C z n d.d.g.g.g.d.e.e.e.",
"e.e.e.e.e.e.e.5. .;.,.<.|.wXwXeXeX;X'.'.'.S.G.R.E.U.x.u.Z c N r.t.t.f.f.7.E E E E E E E E E L c n e.e.h.h.h.d.e.e.e.",
"e.e.e.e.e.e.e.g.h.h.' u 4.wXwXsXsXiX;X;X).T.T.L.L.H.9.9.R P I Z A D 9.9.E E E E E E E E E E R P P e.e.h.h.h.d.e.e.e.",
"e.e.e.e.e.e.e.g.h.h.0 o 2.wXwXhXhXaXwXeX>XW.Q.S.3.X.E E T E U c z M E E E E E E E E E E E E E E E M l h.h.h.d.e.e.e.",
"e.e.e.e.e.e.e.e.e.e.0 o 2.qXqXaXsXpXtXtX>XW.Q.S.3.X.~ ! W R P z z M R R E E E T E E E E E E E E E M z e.e.e.e.e.e.e.",
"e.e.e.e.e.e.e.e.e.e.0   t ( s     =.fXhX,XW.Q.S.3.>.{ / B z z z z z z z R E E T E E E E E E E E E M z e.e.e.e.e.e.e.",
"e.e.e.e.e.e.e.e.e.e.0   t ( ( .   =.fXhX,XW.Q.S.3.>.{ / B l l < < < < < U E E E E E E E E E E E E M z e.e.e.e.e.e.e.",
"e.e.e.e.e.e.e.e.e.M.=.=.&.%.%.8X8XyXhXhX:XK.K.+X+X1.{ { 2.`.`.XXXXXXXXXXQ M m c 5 5 5 5 M M L E E M z H e.e.e.e.e.e.",
"e.e.e.e.e.e.e.e.  ] qXwX7X<X2XxXbXcXhXhX;X1.'.$X%XF.{ { =XwXtXhXhXhXhXhX*.z 2           z z M E R M z 3 .   e.e.e.e.",
"e.e.e.e.e.e.e.e.  ] qXwX7X<X2XxXbXcXhXhX;X<.1.#X&XF.{ { ;XeXiXhXhXhXdXsX*.3 2 * % % % & 3 3 m U U M z 3     e.e.e.e.",
"e.e.e.e.e.e.e.e.  ] qXwX7X<X2XxXbXcXlXfX.X} :.T.!.J.{ ( iXfXfXhXhXtX|.|.g + e.e.e.e.e.e.r + , v v c z 3     e.e.e.e.",
"e.e.e.e.e.e.e.e.  ] qXwX7X<X2XxXbXcXlXfX.Xs -.R.W.J.{ ( pXhXhXhXhXeX1.3.7   e.e.e.e.e.e.r   @ z z z z 3     d.e.e.e.",
"e.e.e.e.e.e.e.e.e.e.}. X7X1X3XxXcXzXhXfX.Xs -.R.W.J.,.,.uXkXjXpXpXoX>.>.:   e.e.e.e.e.e.e.e.e.4 2 3 z 3     d.e.e.e.",
"e.e.e.e.e.e.e.e.e.e.9   2.wXwXhXhXhXhXfX.Xs -.R.W./.%X$X6X4X5X`.3.[         e.e.e.e.e.e.e.e.e.=   2 z 3     d.e.e.e.",
"e.e.e.e.e.e.e.e.e.e.q = 2.wXwXhXhXhXhXfX.X{ :.R.W./.*X$X6X4X5X2.3.[ . . $ . e.e.e.e.e.e.e.e.e.0 * 2 z 3 * o d.e.e.e.",
"e.e.e.d.h.h.h.e.e.e.e.h.h.] &.tXiXiXiXiX;X}.[.V.V.J./.^.B.@.@.g u [ >.>.V.Z.OXe.e.e.e.e.e.e.e.g.h.h.@ r e.e.d.h.h.h.",
"e.e.e.d.h.h.h.e.e.e.e.h.h.  : ;XwXwXwXwXwXwXqX} s V.W.E.-.         .*X%XQ.W.,Xe.e.e.e.e.e.e.e.g.h.h.  e.e.e.d.h.h.h.",
"e.e.e.d.h.h.h.e.e.e.e.h.h.  q  XoXoXoXoXoX;X.X{ a V.E.R.`       X | +X+XY.R.,Xe.e.e.e.e.e.e.e.g.h.h.g.e.e.e.d.h.h.h.",
"e.e.e.d.g.g.g.d.d.d.d.g.g.g.d.' e e K K K K K $ O | &X#X|   + 3 3 6 7 7 ^ ^ e.e.e.e.e.e.e.e.e.d.g.g.d.e.e.e.d.g.g.g.",
"e.e.e.e.e.e.e.g.h.h.g.e.e.e.e.q   @ 3 z z z 3     | %X$X|   + 3 z ,         e.e.e.e.e.e.e.e.e.e.e.e.e.e.e.e.e.e.e.e.",
"e.e.e.e.e.e.e.g.h.h.g.e.e.e.e.H b b M M v z 3 , , ^ 1.<.' b b M M 2     e.e.e.e.e.e.e.e.e.e.e.e.e.e.e.e.e.e.e.e.e.e.",
"e.e.e.e.e.e.e.g.h.h.g.e.e.  X P T E E R M z z z z ,     L T R E R b     e.e.e.e.e.e.e.e.e.e.e.e.e.e.e.e.e.e.e.e.e.e.",
"e.e.e.d.g.g.g.d.d.d.d.g.g.  @ U T T U U Q J J c z , . . P E E E E b o   e.e.e.e.e.e.e.e.e.e.e.e.e.e.e.e.e.e.e.e.e.e.",
"e.e.e.d.h.h.h.e.e.e.e.h.$.m M T T L 5 5 8XuX0XW L V i u Q E E E E G o.o.e.e.e.e.e.e.e.e.e.e.e.e.e.e.e.e.e.e.e.e.e.e.",
"e.e.e.d.h.h.h.e.e.e.9   b T T T T m X   jXbXvX8.T Q { { ~ E E E E O.#.#.8   e.e.e.e.e.e.e.e.e.e.e.e.e.e.e.e.e.e.e.e.",
"e.e.e.d.g.g.g.e.e.e.0   V l.l.E T m X   0XxXkXM.M...{ { ~ E E ! ! O.#.#.r e e.e.e.e.e.e.e.e.e.y.y.y.y.e.e.e.e.e.e.e.",
"e.e.e.e.e.e.e.e.e.e.0 $ Z.W.W.q.T m X   7 h =.xXbXyX{ { ~ E ~ [ { t     sXhXrXq e.e.e.e.e.e.e.b.m.m.n.e.e.e.e.e.e.e.",
"e.e.e.e.e.e.e.e.e.e.0 $ Z.W.W.q.E m X   > f &.xXbXyX{ { ~ T ~ [ k t     dXhXrX. e.e.e.e.e.e.e.b.m.m.n.e.e.e.e.e.e.e.",
"e.e.e.e.e.e.e.e.e.e.* X ` I.C.V b 6 t t y f ] 9X0X5.t t ' _ ......Q b b {.{.{.e.e.e.e.e.e.e.e.b.m.m.n.e.e.e.e.e.e.e.",
"e.e.e.e.e.e.e.e.% o     m W W @   > s s h f f f g >     a ( | z.x.0.T U 4   e.e.e.e.e.a.i.i.i.b.b.b.b.e.e.e.e.e.e.e.",
"e.e.e.e.e.e.e.e.    . o b U P q q y k k h f f y y : # @ [ [ | z.x.w.T E ,   e.e.e.e.e.i.+.+.+.j.h.h.g.e.e.e.e.e.e.e.",
"e.e.e.e.e.e.e.e.  O > 7 6 1 6 qXrX}.} { j j a - O B q.q.l.l.l.x.x.w.T E ,   q e.e.e.e.i.+.+.+.j.h.h.g.e.e.e.e.e.e.e.",
"e.e.e.e.e.e.e.e.  $ y f :   q aXhXwX} { { { s .   n x.x.x.x.x.x.x.w.T R ,       * e.e.i.+.+.+.d.h.h.g.e.e.e.e.e.e.e.",
"e.e.e.j.n.n.n.d.e.e.7 y : O 7 tXaXqX2.2. .a a + + N x.x.x.x.x.r.r.9.P P 6 ; $   * e.e.e.a.a.a.e.e.e.e.e.e.e.e.e.e.e.",
"e.e.e.j.m.m.m.d.e.e.0   : f y     =.hXfX{.  X 3 z S x.x.x.x.r.          s { i . * e.e.e.e.e.e.e.e.e.e.e.e.e.e.e.e.e.",
"e.e.e.j.m.m.m.d.e.e.=   : f f .   =.hXfX{.  X 3 z S x.x.x.x.r.X         s { i . * e.e.e.e.e.e.e.e.e.e.e.e.e.e.e.e.e.",
"a.a.a.j.n.n.n.d.e.e.e.e.e.O -     w =.=.g     @ @ 4 n n n n n : > > > > s { i . * e.e.e.e.e.e.e.e.e.e.e.e.e.e.e.e.e.",
"+.+.+.p.h.h.h.y.e.e.e.e.e.                                  O y f f f f j { i . * e.e.e.e.e.e.e.e.e.e.e.e.e.e.e.e.e.",
"+.+.+.p.h.h.h.y.e.e.e.e.e.= 0 0 0 0 0 0 0 0 0 0 0 *     . . $ y f f f f a a u q r e.e.e.e.e.e.e.e.e.e.e.e.e.e.e.e.e.",
"+.+.+.p.h.h.h.e.e.e.e.e.e.e.e.e.e.e.e.e.e.e.e.e.e.M.o   > y y f f h j j > O e.e.e.e.e.e.e.e.e.e.e.e.e.e.e.e.e.e.e.e.",
"i.i.i.a.d.d.d.e.e.e.e.e.e.e.e.e.e.e.e.e.e.e.e.e.e.e.o   7 f f f f i { { ;   e.e.e.e.e.e.e.e.e.e.e.e.e.e.e.e.e.e.e.e.",
"e.e.e.e.e.e.e.e.e.e.e.e.e.e.e.e.e.e.e.e.e.e.e.e.e.e.e.e.$.7 7 7 7 t a i e.e.e.e.e.e.e.e.e.e.e.e.e.e.e.e.e.e.e.e.e.e.",
"e.e.e.e.e.e.e.e.e.e.e.e.e.e.e.e.e.e.e.e.e.e.e.e.e.e.e.e.e.              e.e.e.e.e.e.e.e.e.e.e.e.e.e.e.e.e.e.e.e.e.e.",
"e.e.e.e.e.e.e.e.e.e.e.e.e.e.e.e.e.e.e.e.e.e.e.e.e.e.e.e.e.+ + + + + + + e.e.e.e.e.e.e.e.e.e.e.e.e.e.e.e.e.e.e.e.e.e."
};
